# Blender 5.1.0
# www.blender.org
mtllib kar.mtl
o another_boduy
v 0.802244 0.128233 0.023678
v 0.867472 0.096112 0.023678
v 0.802244 0.128233 -0.000000
v 0.802244 0.128233 -0.023678
v 0.747373 0.150210 -0.023678
v 0.867472 0.096112 -0.000000
v 0.933681 0.058135 0.023678
v 0.867472 0.096112 -0.023678
v 0.933681 0.058135 -0.000000
v 0.999645 0.011909 0.023678
v 0.933681 0.058135 -0.023678
v 0.999645 0.011909 -0.000000
v 1.061440 -0.039743 0.023678
v 0.999645 0.011909 -0.023678
v 1.061440 -0.039743 -0.000000
v 1.107785 -0.084448 0.023678
v 1.061440 -0.039743 -0.023678
v 1.107785 -0.084448 -0.000000
v 1.150452 -0.132412 0.023678
v 1.107785 -0.084448 -0.023678
v 1.150452 -0.132412 -0.000000
v 1.193121 -0.189921 0.023678
v 1.150452 -0.132412 -0.023678
v 1.193121 -0.189921 0.000000
v 1.233582 -0.255679 0.023678
v 1.193121 -0.189921 -0.023678
v 1.233582 -0.255679 0.000000
v 1.259820 -0.308416 0.023678
v 1.233582 -0.255679 -0.023678
v 1.259820 -0.308416 0.000000
v 1.295377 -0.400217 0.023678
v 1.259820 -0.308416 -0.023678
v 1.295377 -0.400217 0.000000
v 1.295377 -0.400217 0.000000
v 1.316465 -0.493155 0.007872
v 1.316332 -0.493128 0.000000
v 1.326716 -0.539166 0.000000
v 1.295377 -0.400217 -0.023678
v 1.316465 -0.493155 -0.007872
v 1.316332 -0.493128 0.000000
v 1.326716 -0.539166 0.000000
v -0.719388 -0.054585 -0.028767
v -0.627475 -0.024886 -0.000000
v -0.627475 -0.032788 -0.028767
v -0.535561 -0.054585 -0.028767
v -0.723853 -0.047742 -0.000000
v -0.794405 -0.110182 -0.000000
v -0.786672 -0.114132 -0.028767
v -0.719388 -0.054585 0.028767
v -0.627475 -0.032788 0.028767
v -0.786672 -0.114132 0.028767
v -0.535561 -0.054585 0.028767
v -0.820229 -0.195479 0.000000
v -0.811300 -0.195479 -0.028767
v -0.811300 -0.195479 0.028767
v -0.786672 -0.276823 -0.028767
v -0.786672 -0.276823 0.028767
v -0.794405 -0.280774 0.000000
v -0.719388 -0.336372 -0.028767
v -0.719388 -0.336372 0.028767
v -0.723853 -0.343216 0.000000
v -0.627475 -0.366070 0.000000
v -0.627475 -0.358168 -0.028767
v -0.627475 -0.358168 0.028767
v -0.535561 -0.336372 -0.028767
v -0.535561 -0.336372 0.028767
v -0.531097 -0.343216 0.000000
v -0.468276 -0.276823 -0.028767
v -0.468276 -0.276823 0.028767
v -0.460544 -0.280774 0.000000
v -0.434720 -0.195479 0.000000
v -0.443649 -0.195479 -0.028767
v -0.443649 -0.195479 0.028767
v -0.468276 -0.114132 -0.028767
v -0.468276 -0.114132 0.028767
v -0.460544 -0.110182 -0.000000
v -0.531097 -0.047742 -0.000000
v -0.506868 -0.133852 -0.000000
v -0.501390 -0.131054 0.028767
v -0.557842 -0.088740 -0.000000
v -0.554679 -0.083890 0.028767
v -0.481884 -0.195479 0.028767
v -0.627475 -0.066627 0.028767
v -0.488209 -0.195479 0.000000
v -0.481884 -0.195479 -0.028767
v -0.506868 -0.257104 0.000000
v -0.501390 -0.131054 -0.028767
v -0.501390 -0.259904 -0.028767
v -0.554679 -0.083890 -0.028767
v -0.501390 -0.259904 0.028767
v -0.627475 -0.066627 -0.028767
v -0.557842 -0.302219 0.000000
v -0.554679 -0.307067 -0.028767
v -0.554679 -0.307067 0.028767
v -0.627475 -0.324327 -0.028767
v -0.627475 -0.324327 0.028767
v -0.627475 -0.318729 0.000000
v -0.697107 -0.302219 0.000000
v -0.700270 -0.307067 -0.028767
v -0.700270 -0.307067 0.028767
v -0.753559 -0.259904 -0.028767
v -0.753559 -0.259904 0.028767
v -0.748081 -0.257104 0.000000
v -0.773065 -0.195479 -0.028767
v -0.773065 -0.195479 0.028767
v -0.766739 -0.195479 0.000000
v -0.748081 -0.133852 -0.000000
v -0.753559 -0.131054 -0.028767
v -0.753559 -0.131054 0.028767
v -0.697107 -0.088740 -0.000000
v -0.700270 -0.083890 -0.028767
v -0.700270 -0.083890 0.028767
v -0.627475 -0.072227 -0.000000
v 0.422540 0.215588 0.023678
v 0.536521 0.204425 -0.000000
v 0.422540 0.215588 -0.000000
v 0.536521 0.204425 0.023678
v 0.587726 0.195424 0.023678
v 0.536521 0.204425 -0.023678
v 0.422540 0.215588 -0.023678
v 0.587726 0.195424 -0.000000
v 0.650521 0.181189 0.023678
v 0.587726 0.195424 -0.023678
v 0.650521 0.181189 -0.000000
v 0.695458 0.168003 0.023678
v 0.650521 0.181189 -0.023678
v 0.695458 0.168003 -0.000000
v 0.747373 0.150210 0.023678
v 0.695458 0.168003 -0.023678
v 0.747373 0.150210 -0.000000
v -0.468276 -0.276823 -0.028767
v -0.481884 -0.195479 -0.028767
v -0.443649 -0.195479 -0.028767
v -0.501390 -0.131054 -0.028767
v -0.501390 -0.259904 -0.028767
v -0.468276 -0.114132 -0.028767
v -0.535561 -0.336372 -0.028767
v -0.554679 -0.083890 -0.028767
v -0.554679 -0.307067 -0.028767
v -0.535561 -0.054585 -0.028767
v -0.627475 -0.358168 -0.028767
v -0.627475 -0.032788 -0.028767
v -0.627475 -0.324327 -0.028767
v -0.627475 -0.066627 -0.028767
v -0.700270 -0.307067 -0.028767
v -0.719388 -0.054585 -0.028767
v -0.719388 -0.336372 -0.028767
v -0.700270 -0.083890 -0.028767
v -0.753559 -0.259904 -0.028767
v -0.786672 -0.114132 -0.028767
v -0.786672 -0.276823 -0.028767
v -0.753559 -0.131054 -0.028767
v -0.773065 -0.195479 -0.028767
v -0.811300 -0.195479 -0.028767
v -0.786672 -0.114132 0.028767
v -0.700270 -0.083890 0.028767
v -0.719388 -0.054585 0.028767
v -0.627475 -0.066627 0.028767
v -0.753559 -0.131054 0.028767
v -0.627475 -0.032788 0.028767
v -0.811300 -0.195479 0.028767
v -0.554679 -0.083890 0.028767
v -0.773065 -0.195479 0.028767
v -0.535561 -0.054585 0.028767
v -0.786672 -0.276823 0.028767
v -0.468276 -0.114132 0.028767
v -0.753559 -0.259904 0.028767
v -0.501390 -0.131054 0.028767
v -0.719388 -0.336372 0.028767
v -0.443649 -0.195479 0.028767
v -0.700270 -0.307067 0.028767
v -0.481884 -0.195479 0.028767
v -0.627475 -0.358168 0.028767
v -0.468276 -0.276823 0.028767
v -0.627475 -0.324327 0.028767
v -0.501390 -0.259904 0.028767
v -0.554679 -0.307067 0.028767
v -0.535561 -0.336372 0.028767
v 0.659635 -0.115262 -0.023678
v 0.802244 0.128233 -0.023678
v 0.728787 -0.127630 -0.023678
v 0.867472 0.096112 -0.023678
v 0.747373 0.150210 -0.023678
v 0.781999 -0.141087 -0.023678
v 0.695458 0.168003 -0.023678
v 0.933681 0.058135 -0.023678
v 0.605933 -0.107882 -0.023678
v 0.843549 -0.160184 -0.023678
v 0.650521 0.181189 -0.023678
v 0.999645 0.011909 -0.023678
v 0.914662 -0.186445 -0.023678
v 1.061440 -0.039743 -0.023678
v 0.958556 -0.205976 -0.023678
v 1.107785 -0.084448 -0.023678
v 1.005883 -0.229632 -0.023678
v 1.150452 -0.132412 -0.023678
v 1.050267 -0.255891 -0.023678
v 1.193121 -0.189921 -0.023678
v 1.093916 -0.284104 -0.023678
v 1.233582 -0.255679 -0.023678
v 1.136583 -0.313835 -0.023678
v 1.180477 -0.350513 -0.023678
v 1.259820 -0.308416 -0.023678
v 1.239574 -0.406503 -0.023678
v 1.295377 -0.400217 -0.023678
v 1.276847 -0.447521 -0.023678
v 1.316465 -0.493155 -0.007872
v 1.316465 -0.493155 0.007872
v 1.295377 -0.400217 0.023678
v 1.276847 -0.447521 0.023678
v 1.239574 -0.406503 0.023678
v 1.259820 -0.308416 0.023678
v 1.180477 -0.350513 0.023678
v 1.233582 -0.255679 0.023678
v 1.136583 -0.313835 0.023678
v 1.093916 -0.284104 0.023678
v 1.193121 -0.189921 0.023678
v 1.050267 -0.255891 0.023678
v 1.150452 -0.132412 0.023678
v 1.005883 -0.229632 0.023678
v 1.107785 -0.084448 0.023678
v 0.958556 -0.205976 0.023678
v 1.061440 -0.039743 0.023678
v 0.914662 -0.186445 0.023678
v 0.999645 0.011909 0.023678
v 0.843549 -0.160184 0.023678
v 0.933681 0.058135 0.023678
v 0.781999 -0.141087 0.023678
v 0.867472 0.096112 0.023678
v 0.728787 -0.127630 0.023678
v 0.802244 0.128233 0.023678
v 0.659635 -0.115262 0.023678
v 0.747373 0.150210 0.023678
v 0.695458 0.168003 0.023678
v 0.605933 -0.107882 0.023678
v 0.650521 0.181189 0.023678
v 0.537517 -0.102891 0.023678
v 0.587726 0.195424 0.023678
v 0.536521 0.204425 0.023678
v 0.377274 -0.047402 0.023678
v 0.422540 0.215588 0.023678
v 0.465915 -0.102456 0.023678
v 0.376485 -0.105278 0.023678
v 0.536521 0.204425 -0.023678
v 0.377274 -0.047402 -0.023678
v 0.422540 0.215588 -0.023678
v 0.465915 -0.102456 -0.023678
v 0.376485 -0.105278 -0.023678
v 0.537517 -0.102891 -0.023678
v 0.587726 0.195424 -0.023678
v 0.376485 -0.105278 -0.023678
v 0.465915 -0.148466 -0.000000
v 0.376485 -0.151288 -0.000000
v 0.465915 -0.102456 -0.023678
v 0.537517 -0.102891 -0.023678
v 0.537517 -0.148900 -0.000000
v 0.605933 -0.107882 -0.023678
v 0.605933 -0.153892 -0.000000
v 0.659635 -0.115262 -0.023678
v 0.659635 -0.161271 -0.000000
v 0.728787 -0.127630 -0.023678
v 0.728787 -0.173641 0.000000
v 0.781999 -0.141087 -0.023678
v 0.781999 -0.187096 0.000000
v 0.843549 -0.160184 -0.023678
v 0.843549 -0.206194 0.000000
v 0.914662 -0.186445 -0.023678
v 0.914662 -0.232455 0.000000
v 0.958556 -0.205976 -0.023678
v 0.958556 -0.251986 0.000000
v 1.005883 -0.229632 -0.023678
v 1.005883 -0.275642 0.000000
v 1.050267 -0.255891 -0.023678
v 1.050267 -0.301900 0.000000
v 1.093916 -0.284104 -0.023678
v 1.093916 -0.330113 0.000000
v 1.136583 -0.313835 -0.023678
v 1.136583 -0.359847 0.000000
v 1.180477 -0.350513 -0.023678
v 1.180477 -0.396523 0.000000
v 1.239574 -0.406503 -0.023678
v 1.239574 -0.452514 0.000000
v 1.276847 -0.447521 -0.023678
v 1.276847 -0.493530 0.000000
v 1.316465 -0.493155 -0.007872
v 1.326716 -0.539166 0.000000
v 1.276847 -0.493530 0.000000
v 1.316465 -0.493155 0.007872
v 1.276847 -0.447521 0.023678
v 1.326716 -0.539166 0.000000
v 1.239574 -0.452514 0.000000
v 1.239574 -0.406503 0.023678
v 1.180477 -0.396523 0.000000
v 1.180477 -0.350513 0.023678
v 1.136583 -0.359847 0.000000
v 1.136583 -0.313835 0.023678
v 1.093916 -0.330113 0.000000
v 1.093916 -0.284104 0.023678
v 1.050267 -0.301900 0.000000
v 1.050267 -0.255891 0.023678
v 1.005883 -0.275642 0.000000
v 1.005883 -0.229632 0.023678
v 0.958556 -0.251986 0.000000
v 0.958556 -0.205976 0.023678
v 0.914662 -0.232455 0.000000
v 0.914662 -0.186445 0.023678
v 0.843549 -0.206194 0.000000
v 0.843549 -0.160184 0.023678
v 0.781999 -0.187096 0.000000
v 0.781999 -0.141087 0.023678
v 0.728787 -0.173641 0.000000
v 0.728787 -0.127630 0.023678
v 0.659635 -0.161271 -0.000000
v 0.659635 -0.115262 0.023678
v 0.605933 -0.153892 -0.000000
v 0.605933 -0.107882 0.023678
v 0.537517 -0.148900 -0.000000
v 0.537517 -0.102891 0.023678
v 0.465915 -0.148466 -0.000000
v 0.465915 -0.102456 0.023678
v 0.376485 -0.105278 0.023678
v 0.376485 -0.151288 -0.000000
v 0.377274 -0.047402 -0.000000
v 0.376485 -0.151288 -0.000000
v 0.376485 -0.105278 0.023678
v 0.377274 -0.047402 0.023678
v 0.422540 0.215588 0.023678
v 0.422540 0.215588 -0.000000
v 0.377274 -0.047402 -0.023678
v 0.422540 0.215588 -0.023678
v 0.376485 -0.105278 -0.023678
v 0.376485 -0.151288 -0.000000
v -0.391444 0.143845 0.024456
v -0.314922 0.152239 0.039162
v -0.320324 0.168012 0.024441
v -0.320324 0.168012 -0.024441
v -0.385323 0.128277 0.039162
v -0.314922 0.152239 -0.039162
v -0.391444 0.143845 -0.024456
v -0.385323 0.128277 -0.039162
v -0.458431 0.108079 0.039162
v -0.458431 0.108079 -0.039162
v -0.464603 0.123628 -0.024446
v -0.589951 0.062545 -0.039162
v -0.464603 0.123628 0.024446
v -0.589951 0.062545 0.039162
v -0.598247 0.077313 0.024379
v -0.711488 -0.003116 0.039162
v -0.598247 0.077313 -0.024379
v -0.711488 -0.003116 -0.039162
v -0.728551 0.003460 0.024381
v -0.728551 0.003460 -0.024381
v -0.704914 -0.032900 -0.039162
v -0.704914 -0.032900 0.039162
v -0.714921 -0.046735 -0.024544
v -0.651612 -0.038021 -0.024357
v -0.714921 -0.046735 0.024544
v -0.651612 -0.038021 0.024357
v -0.653828 -0.021626 0.039162
v -0.653828 -0.021626 -0.039162
v -0.612669 -0.037887 0.024473
v -0.610196 -0.021540 0.039162
v -0.612669 -0.037887 -0.024473
v -0.610196 -0.021540 -0.039162
v -0.574515 -0.047246 0.024462
v -0.567954 -0.031810 0.039162
v -0.574515 -0.047246 -0.024462
v -0.567954 -0.031810 -0.039162
v -0.532358 -0.065240 0.024471
v -0.522001 -0.051530 0.039162
v -0.532358 -0.065240 -0.024471
v -0.522001 -0.051530 -0.039162
v -0.489984 -0.098505 0.024309
v -0.475118 -0.088504 0.039162
v -0.489984 -0.098505 -0.024309
v -0.475118 -0.088504 -0.039162
v -0.429627 -0.171487 0.039162
v -0.429627 -0.171487 -0.039162
v -0.432441 -0.187647 0.024823
v -0.432441 -0.187647 -0.024823
v -0.373003 -0.142241 0.024288
v 0.372457 -0.139778 0.039162
v 0.295613 -0.167332 0.024480
v 0.386016 -0.151053 0.024407
v 0.404191 -0.060117 0.024413
v 0.304284 -0.152787 0.039162
v 0.386384 -0.055219 0.039162
v 0.386016 -0.151053 -0.024407
v 0.253026 -0.084171 0.024371
v 0.269526 -0.076475 0.039162
v 0.295613 -0.167332 -0.024480
v 0.438739 0.002583 0.024489
v 0.423905 0.012563 0.039162
v 0.489664 0.064258 0.039162
v 0.372457 -0.139778 -0.039162
v 0.499971 0.050510 0.024430
v 0.404191 -0.060117 -0.024413
v 0.304284 -0.152787 -0.039162
v 0.386384 -0.055219 -0.039162
v 0.253026 -0.084171 -0.024371
v 0.269526 -0.076475 -0.039162
v 0.438739 0.002583 -0.024489
v 0.423905 0.012563 -0.039162
v 0.489664 0.064258 -0.039162
v 0.541111 0.085825 0.039162
v 0.499971 0.050510 -0.024430
v 0.541111 0.085825 -0.039162
v 0.556192 0.076176 0.024398
v 0.556192 0.076176 -0.024398
v 0.562566 0.127776 -0.024434
v 0.562566 0.127776 0.024434
v 0.546140 0.120061 0.039162
v 0.546140 0.120061 -0.039162
v 0.506057 0.154872 0.024480
v 0.491985 0.144025 0.039162
v 0.506057 0.154872 -0.024480
v 0.491985 0.144025 -0.039162
v 0.471484 0.197087 0.039162
v 0.471484 0.197087 -0.039162
v 0.490080 0.198521 -0.024349
v 0.476898 0.225160 -0.039162
v 0.490080 0.198521 0.024349
v 0.476898 0.225160 0.039162
v 0.491376 0.235400 0.024639
v 0.491376 0.235400 -0.024639
v 0.420615 0.244291 0.024305
v 0.422744 0.227898 0.039162
v 0.347701 0.207700 0.039162
v 0.420615 0.244291 -0.024305
v 0.422744 0.227898 -0.039162
v 0.347701 0.207700 -0.039162
v 0.342889 0.223625 0.024454
v 0.267629 0.191267 0.039162
v 0.342889 0.223625 -0.024454
v 0.267629 0.191267 -0.039162
v 0.264345 0.207496 -0.024457
v 0.221984 0.186133 -0.039162
v 0.264345 0.207496 0.024457
v 0.221984 0.186133 0.039162
v 0.222344 0.202620 0.024480
v 0.222344 0.202620 -0.024480
v 0.152516 0.213021 0.024457
v 0.147714 0.197087 0.039162
v 0.152516 0.213021 -0.024457
v 0.147714 0.197087 -0.039162
v 0.085437 0.217628 0.039162
v 0.085437 0.217628 -0.039162
v 0.087950 0.233950 0.024433
v -0.007093 0.227128 0.024437
v -0.004692 0.210779 0.039162
v 0.087950 0.233950 -0.024433
v -0.079735 0.199142 0.039162
v -0.007093 0.227128 -0.024437
v -0.004692 0.210779 -0.039162
v -0.079735 0.199142 -0.039162
v -0.083391 0.215305 0.024447
v -0.083391 0.215305 -0.024447
v -0.385530 -0.129996 0.039162
v -0.373003 -0.142241 -0.024288
v -0.385530 -0.129996 -0.039162
v -0.343291 -0.121113 0.024499
v -0.351181 -0.106169 0.039162
v -0.343291 -0.121113 -0.024499
v -0.351181 -0.106169 -0.039162
v -0.322866 -0.100827 0.039162
v -0.322866 -0.100827 -0.039162
v -0.320918 -0.117227 0.024461
v -0.320918 -0.117227 -0.024461
v -0.282935 -0.117136 0.024469
v -0.280161 -0.100827 0.039162
v -0.282935 -0.117136 -0.024469
v -0.280161 -0.100827 -0.039162
v -0.236052 -0.129610 0.024405
v -0.235134 -0.113152 0.039162
v -0.236052 -0.129610 -0.024405
v -0.235134 -0.113152 -0.039162
v -0.215082 -0.109602 0.039162
v -0.215082 -0.109602 -0.039162
v -0.204663 -0.123244 0.024436
v -0.204663 -0.123244 -0.024436
v -0.178352 -0.089730 0.024442
v -0.192355 -0.078842 0.039162
v -0.178352 -0.089730 -0.024442
v -0.192355 -0.078842 -0.039162
v -0.139743 -0.060074 -0.024486
v -0.148908 -0.045712 -0.039162
v -0.139743 -0.060074 0.024486
v -0.148908 -0.045712 0.039162
v -0.106129 -0.033290 -0.039162
v -0.106129 -0.033290 0.039162
v -0.103741 -0.049648 0.024479
v -0.103741 -0.049648 -0.024479
v -0.055311 -0.052230 0.024422
v -0.050649 -0.036247 0.039162
v -0.055311 -0.052230 -0.024422
v -0.050649 -0.036247 -0.039162
v 0.007152 -0.076232 0.024482
v 0.004830 -0.059912 0.039162
v 0.007152 -0.076232 -0.024482
v 0.004830 -0.059912 -0.039162
v 0.032208 -0.060721 0.024379
v 0.018198 -0.049853 0.039162
v 0.032208 -0.060721 -0.024379
v 0.018198 -0.049853 -0.039162
v 0.051211 -0.033893 0.024486
v 0.037583 -0.022641 0.039162
v 0.051211 -0.033893 -0.024486
v 0.037583 -0.022641 -0.039162
v 0.067661 -0.003120 0.039162
v 0.067661 -0.003120 -0.039162
v 0.077306 -0.017228 -0.024457
v 0.077306 -0.017228 0.024457
v 0.105302 -0.004838 -0.024489
v 0.100415 0.011078 -0.039162
v 0.105302 -0.004838 0.024489
v 0.100415 0.011078 0.039162
v 0.135841 0.013443 -0.039162
v 0.135841 0.013443 0.039162
v 0.135261 -0.003039 0.024460
v 0.135261 -0.003039 -0.024460
v 0.173297 -0.007499 0.024482
v 0.179289 0.008120 0.039162
v 0.173297 -0.007499 -0.024482
v 0.179289 0.008120 -0.039162
v 0.210002 -0.025813 -0.024502
v 0.222736 -0.013769 -0.039162
v 0.210002 -0.025813 0.024502
v 0.222736 -0.013769 0.039162
v 0.221984 0.186133 -0.039162
v 0.135841 0.013443 -0.039162
v 0.147714 0.197087 -0.039162
v 0.179289 0.008120 -0.039162
v 0.100415 0.011078 -0.039162
v 0.085437 0.217628 -0.039162
v -0.004692 0.210779 -0.039162
v 0.067661 -0.003120 -0.039162
v 0.222736 -0.013769 -0.039162
v -0.079735 0.199142 -0.039162
v 0.267629 0.191267 -0.039162
v 0.037583 -0.022641 -0.039162
v -0.050649 -0.036247 -0.039162
v 0.018198 -0.049853 -0.039162
v 0.004830 -0.059912 -0.039162
v -0.106129 -0.033290 -0.039162
v -0.314922 0.152239 -0.039162
v -0.148908 -0.045712 -0.039162
v -0.192355 -0.078842 -0.039162
v -0.280161 -0.100827 -0.039162
v -0.235134 -0.113152 -0.039162
v -0.215082 -0.109602 -0.039162
v -0.385323 0.128277 -0.039162
v -0.322866 -0.100827 -0.039162
v -0.351181 -0.106169 -0.039162
v -0.458431 0.108079 -0.039162
v -0.475118 -0.088504 -0.039162
v -0.385530 -0.129996 -0.039162
v -0.429627 -0.171487 -0.039162
v -0.522001 -0.051530 -0.039162
v -0.589951 0.062545 -0.039162
v -0.567954 -0.031810 -0.039162
v -0.610196 -0.021540 -0.039162
v -0.653828 -0.021626 -0.039162
v -0.711488 -0.003116 -0.039162
v -0.704914 -0.032900 -0.039162
v 0.423905 0.012563 -0.039162
v 0.347701 0.207700 -0.039162
v 0.386384 -0.055219 -0.039162
v 0.269526 -0.076475 -0.039162
v 0.372457 -0.139778 -0.039162
v 0.304284 -0.152787 -0.039162
v 0.491985 0.144025 -0.039162
v 0.489664 0.064258 -0.039162
v 0.541111 0.085825 -0.039162
v 0.546140 0.120061 -0.039162
v 0.471484 0.197087 -0.039162
v 0.422744 0.227898 -0.039162
v 0.476898 0.225160 -0.039162
v -0.322866 -0.100827 0.039162
v -0.385323 0.128277 0.039162
v -0.351181 -0.106169 0.039162
v -0.280161 -0.100827 0.039162
v -0.458431 0.108079 0.039162
v -0.314922 0.152239 0.039162
v -0.475118 -0.088504 0.039162
v -0.385530 -0.129996 0.039162
v -0.429627 -0.171487 0.039162
v -0.522001 -0.051530 0.039162
v -0.589951 0.062545 0.039162
v -0.567954 -0.031810 0.039162
v -0.610196 -0.021540 0.039162
v -0.653828 -0.021626 0.039162
v -0.711488 -0.003116 0.039162
v -0.704914 -0.032900 0.039162
v -0.192355 -0.078842 0.039162
v -0.235134 -0.113152 0.039162
v -0.215082 -0.109602 0.039162
v -0.148908 -0.045712 0.039162
v -0.106129 -0.033290 0.039162
v -0.079735 0.199142 0.039162
v -0.050649 -0.036247 0.039162
v 0.004830 -0.059912 0.039162
v 0.018198 -0.049853 0.039162
v 0.037583 -0.022641 0.039162
v 0.067661 -0.003120 0.039162
v -0.004692 0.210779 0.039162
v 0.100415 0.011078 0.039162
v 0.085437 0.217628 0.039162
v 0.147714 0.197087 0.039162
v 0.135841 0.013443 0.039162
v 0.221984 0.186133 0.039162
v 0.179289 0.008120 0.039162
v 0.222736 -0.013769 0.039162
v 0.267629 0.191267 0.039162
v 0.423905 0.012563 0.039162
v 0.347701 0.207700 0.039162
v 0.386384 -0.055219 0.039162
v 0.269526 -0.076475 0.039162
v 0.372457 -0.139778 0.039162
v 0.304284 -0.152787 0.039162
v 0.491985 0.144025 0.039162
v 0.489664 0.064258 0.039162
v 0.541111 0.085825 0.039162
v 0.546140 0.120061 0.039162
v 0.471484 0.197087 0.039162
v 0.422744 0.227898 0.039162
v 0.476898 0.225160 0.039162
vn 0.4070 0.9134 0.0004
vn 0.4698 0.8828 -0.0000
vn 0.4071 0.9134 0.0006
vn 0.4070 0.9134 -0.0000
vn 0.3486 0.9373 0.0006
vn 0.4697 0.8828 0.0004
vn 0.5361 0.8442 -0.0000
vn 0.5360 0.8442 0.0004
vn 0.6080 0.7939 -0.0000
vn 0.5360 0.8442 0.0006
vn 0.6081 0.7939 0.0004
vn 0.6679 0.7442 0.0005
vn 0.6081 0.7939 0.0006
vn 0.6679 0.7443 0.0006
vn 0.7209 0.6931 0.0004
vn 0.7208 0.6932 0.0006
vn 0.7755 0.6313 0.0004
vn 0.7208 0.6931 0.0005
vn 0.7754 0.6315 0.0007
vn 0.8278 0.5610 0.0004
vn 0.7755 0.6314 0.0005
vn 0.8742 0.4855 0.0006
vn 0.8277 0.5611 0.0006
vn 0.8742 0.4856 0.0007
vn 0.9148 0.4038 0.0006
vn 0.9549 0.2969 -0.0019
vn 0.9148 0.4038 0.0008
vn 0.9563 0.2924 -0.0018
vn 0.9563 0.2924 0.0020
vn 0.9754 0.2202 -0.0097
vn 0.9754 0.2200 -0.0157
vn 0.9549 0.2969 0.0019
vn 0.9754 0.2202 0.0097
vn 0.9754 0.2200 0.0157
vn -0.4379 0.8571 -0.2712
vn 0.0003 1.0000 0.0004
vn 0.0004 0.9644 -0.2645
vn 0.4379 0.8571 -0.2714
vn -0.4549 0.8906 0.0003
vn -0.8375 0.5464 -0.0000
vn -0.8023 0.5234 -0.2869
vn -0.4379 0.8571 0.2713
vn 0.0004 0.9644 0.2645
vn -0.8023 0.5234 0.2871
vn 0.4379 0.8571 0.2713
vn -1.0000 0.0004 0.0005
vn -0.9552 0.0004 -0.2961
vn -0.9552 0.0004 0.2961
vn -0.8023 -0.5234 -0.2871
vn -0.8023 -0.5234 0.2871
vn -0.8376 -0.5462 0.0004
vn -0.4379 -0.8572 -0.2711
vn -0.4379 -0.8571 0.2712
vn -0.4548 -0.8906 0.0005
vn 0.0003 -1.0000 0.0004
vn 0.0003 -0.9644 -0.2645
vn 0.0003 -0.9644 0.2645
vn 0.4379 -0.8571 -0.2713
vn 0.4379 -0.8571 0.2713
vn 0.4550 -0.8905 -0.0000
vn 0.8023 -0.5234 -0.2869
vn 0.8024 -0.5234 0.2868
vn 0.8377 -0.5462 0.0006
vn 1.0000 0.0004 0.0005
vn 0.9552 0.0004 -0.2961
vn 0.9552 0.0004 0.2961
vn 0.8023 0.5234 -0.2869
vn 0.8023 0.5234 0.2869
vn 0.8377 0.5461 0.0007
vn 0.4550 0.8905 -0.0000
vn -0.8375 -0.5464 -0.0000
vn -0.8192 -0.5344 0.2080
vn -0.4549 -0.8906 0.0004
vn -0.4459 -0.8732 0.1965
vn -0.9766 0.0006 0.2152
vn 0.0004 -0.9815 0.1913
vn -1.0000 0.0006 0.0007
vn -0.9766 0.0006 -0.2152
vn -0.8192 -0.5344 -0.2080
vn -0.8192 0.5344 -0.2080
vn -0.4459 -0.8732 -0.1965
vn -0.8193 0.5342 0.2083
vn 0.0004 -0.9815 -0.1913
vn -0.4550 0.8905 -0.0000
vn -0.4458 0.8733 -0.1966
vn -0.4459 0.8732 0.1965
vn 0.0004 0.9815 -0.1913
vn 0.0004 0.9815 0.1913
vn 0.0004 1.0000 0.0006
vn 0.4458 0.8733 -0.1966
vn 0.4458 0.8733 0.1966
vn 0.8193 0.5342 -0.2083
vn 0.8193 0.5342 0.2083
vn 0.8375 0.5464 -0.0000
vn 0.9766 0.0006 -0.2152
vn 0.9766 0.0006 0.2152
vn 1.0000 0.0006 0.0007
vn 0.8375 -0.5464 -0.0000
vn 0.8193 -0.5342 -0.2083
vn 0.8192 -0.5344 0.2080
vn 0.4458 -0.8733 -0.1966
vn 0.4458 -0.8733 0.1966
vn 0.0004 -1.0000 0.0006
vn 0.0974 0.9952 0.0004
vn 0.1356 0.9908 0.0005
vn 0.0975 0.9952 -0.0000
vn 0.1357 0.9907 0.0006
vn 0.1968 0.9804 0.0006
vn 0.1358 0.9907 0.0007
vn 0.2515 0.9679 0.0004
vn 0.1969 0.9804 0.0005
vn 0.2515 0.9679 0.0005
vn 0.3025 0.9531 0.0006
vn 0.3485 0.9373 0.0005
vn 0.0004 0.0004 -1.0000
vn 0.0004 0.0004 1.0000
vn 0.0018 -0.0004 -1.0000
vn 0.0019 -0.0004 -1.0000
vn 0.0019 -0.0004 1.0000
vn 0.0018 -0.0004 1.0000
vn 0.0144 -0.4575 -0.8891
vn 0.0059 -0.4576 -0.8891
vn 0.0058 -0.4576 -0.8892
vn -0.0177 -0.4575 -0.8890
vn -0.0184 -0.4575 -0.8890
vn -0.0471 -0.4571 -0.8882
vn -0.0486 -0.4568 -0.8882
vn -0.0716 -0.4563 -0.8869
vn -0.0731 -0.4564 -0.8868
vn -0.0960 -0.4555 -0.8851
vn -0.1001 -0.4555 -0.8846
vn -0.1256 -0.4540 -0.8821
vn -0.1296 -0.4540 -0.8816
vn -0.1507 -0.4522 -0.8791
vn -0.1560 -0.4522 -0.8782
vn -0.1788 -0.4498 -0.8750
vn -0.1868 -0.4495 -0.8735
vn -0.2081 -0.4476 -0.8697
vn -0.2144 -0.4472 -0.8684
vn -0.2362 -0.4444 -0.8641
vn -0.2477 -0.4433 -0.8615
vn -0.2688 -0.4408 -0.8564
vn -0.2761 -0.4398 -0.8546
vn -0.2902 -0.4379 -0.8509
vn -0.2974 -0.4372 -0.8488
vn -0.3202 -0.4335 -0.8424
vn -0.3403 -0.4303 -0.8361
vn -0.3686 -0.4253 -0.8266
vn -0.3858 -0.4222 -0.8203
vn -0.4116 -0.4169 -0.8104
vn -0.4352 -0.4120 -0.8005
vn -0.3917 -0.3956 -0.8307
vn -0.2533 -0.3586 -0.8985
vn -0.1805 -0.3371 -0.9240
vn -0.2533 -0.3586 0.8985
vn -0.1805 -0.3371 0.9240
vn -0.3917 -0.3956 0.8307
vn -0.4352 -0.4120 0.8005
vn -0.4119 -0.4170 0.8102
vn -0.3858 -0.4222 0.8203
vn -0.3686 -0.4253 0.8266
vn -0.3403 -0.4303 0.8361
vn -0.3198 -0.4336 0.8425
vn -0.2974 -0.4372 0.8488
vn -0.2902 -0.4379 0.8509
vn -0.2761 -0.4398 0.8546
vn -0.2688 -0.4408 0.8564
vn -0.2477 -0.4433 0.8615
vn -0.2363 -0.4446 0.8640
vn -0.2144 -0.4473 0.8683
vn -0.2081 -0.4476 0.8697
vn -0.1867 -0.4493 0.8737
vn -0.1788 -0.4498 0.8750
vn -0.1561 -0.4520 0.8783
vn -0.1506 -0.4522 0.8791
vn -0.1296 -0.4539 0.8816
vn -0.1256 -0.4540 0.8821
vn -0.1001 -0.4555 0.8846
vn -0.0960 -0.4555 0.8851
vn -0.0731 -0.4564 0.8868
vn -0.0716 -0.4563 0.8869
vn -0.0486 -0.4568 0.8882
vn -0.0471 -0.4571 0.8882
vn -0.0184 -0.4575 0.8890
vn -0.0177 -0.4575 0.8890
vn 0.0059 -0.4576 0.8891
vn 0.0058 -0.4576 0.8892
vn 0.0144 -0.4575 0.8891
vn -0.9959 0.0899 0.0006
vn -0.9999 0.0094 -0.0098
vn -0.9999 0.0094 -0.0097
vn -0.9959 0.0899 -0.0045
vn -0.9854 0.1701 0.0007
vn -0.9959 0.0899 0.0045
vn -0.9855 0.1700 0.0005
vn -0.9999 0.0094 0.0097
vn -0.9999 0.0094 0.0098
vn -0.2653 0.8618 0.4323
vn -0.1716 0.6400 0.7490
vn -0.2352 0.8752 0.4227
vn -0.2353 0.8752 -0.4227
vn -0.1948 0.6322 0.7499
vn -0.1716 0.6400 -0.7490
vn -0.2653 0.8618 -0.4322
vn -0.1949 0.6324 -0.7497
vn -0.1966 0.6321 0.7495
vn -0.1966 0.6320 -0.7496
vn -0.2686 0.8636 -0.4266
vn -0.2757 0.6164 -0.7376
vn -0.2686 0.8636 0.4266
vn -0.2757 0.6164 0.7376
vn -0.3733 0.8306 0.4131
vn -0.5680 0.2514 0.7837
vn -0.3733 0.8306 -0.4131
vn -0.5680 0.2514 -0.7837
vn -0.8262 0.3757 0.4199
vn -0.8261 0.3757 -0.4199
vn -0.3145 -0.5189 -0.7949
vn -0.3145 -0.5189 0.7949
vn -0.4643 -0.7823 -0.4153
vn 0.0712 -0.9083 -0.4121
vn -0.4643 -0.7823 0.4152
vn 0.0712 -0.9084 0.4121
vn 0.0627 -0.6905 0.7206
vn 0.0627 -0.6905 -0.7206
vn -0.1059 -0.8917 0.4401
vn -0.0784 -0.6595 0.7476
vn -0.1059 -0.8917 -0.4401
vn -0.0786 -0.6598 -0.7473
vn -0.2841 -0.8530 0.4379
vn -0.2088 -0.6277 0.7499
vn -0.2841 -0.8530 -0.4379
vn -0.2088 -0.6277 -0.7499
vn -0.4530 -0.7691 0.4508
vn -0.3325 -0.5630 0.7566
vn -0.4530 -0.7691 -0.4509
vn -0.3325 -0.5630 -0.7566
vn -0.6691 -0.6014 0.4366
vn -0.5107 -0.4457 0.7352
vn -0.6691 -0.6014 -0.4366
vn -0.5107 -0.4457 -0.7352
vn -0.0808 -0.5496 0.8315
vn -0.0808 -0.5496 -0.8315
vn -0.1306 -0.8886 0.4397
vn -0.1306 -0.8886 -0.4397
vn 0.5470 -0.7281 0.4132
vn 0.4223 -0.4722 0.7737
vn -0.3755 -0.8334 0.4056
vn 0.6129 -0.6760 0.4091
vn 0.8319 -0.3013 0.4660
vn -0.2534 -0.5739 0.7787
vn 0.6044 -0.2148 0.7672
vn 0.6129 -0.6760 -0.4091
vn -0.7626 -0.4673 0.4472
vn -0.5613 -0.3392 0.7549
vn -0.3755 -0.8334 -0.4056
vn 0.6684 -0.5746 0.4724
vn 0.4826 -0.4142 0.7717
vn 0.3397 -0.5712 0.7472
vn 0.4223 -0.4722 -0.7737
vn 0.4624 -0.7690 0.4415
vn 0.8319 -0.3013 -0.4660
vn -0.2534 -0.5739 -0.7787
vn 0.6044 -0.2148 -0.7672
vn -0.7626 -0.4673 -0.4473
vn -0.5613 -0.3392 -0.7549
vn 0.6683 -0.5746 -0.4725
vn 0.4826 -0.4142 -0.7717
vn 0.3397 -0.5712 -0.7472
vn 0.4989 -0.3879 0.7750
vn 0.4624 -0.7689 -0.4415
vn 0.4989 -0.3879 -0.7750
vn 0.7162 -0.5586 0.4183
vn 0.7162 -0.5586 -0.4183
vn 0.7794 0.4610 -0.4243
vn 0.7794 0.4610 0.4244
vn 0.5287 0.3117 0.7895
vn 0.5287 0.3117 -0.7895
vn 0.6333 0.6046 0.4831
vn 0.4626 0.4522 0.7626
vn 0.6333 0.6046 -0.4832
vn 0.4626 0.4522 -0.7626
vn 0.6475 0.0804 0.7578
vn 0.6475 0.0804 -0.7578
vn 0.8787 0.1283 -0.4598
vn 0.4188 0.3905 -0.8198
vn 0.8787 0.1283 0.4598
vn 0.4188 0.3905 0.8198
vn 0.6555 0.6135 0.4404
vn 0.6555 0.6135 -0.4404
vn -0.0667 0.9186 0.3895
vn -0.0543 0.6904 0.7214
vn -0.1522 0.6476 0.7466
vn -0.0667 0.9186 -0.3896
vn -0.0543 0.6904 -0.7214
vn -0.1522 0.6476 -0.7466
vn -0.2066 0.8792 0.4293
vn -0.1042 0.6567 0.7469
vn -0.2066 0.8792 -0.4293
vn -0.1042 0.6567 -0.7469
vn -0.1424 0.8910 -0.4310
vn 0.0113 0.6639 -0.7478
vn -0.1424 0.8910 0.4310
vn 0.0111 0.6641 0.7475
vn 0.0145 0.8976 0.4406
vn 0.0145 0.8976 -0.4406
vn 0.2060 0.8767 0.4347
vn 0.1526 0.6476 0.7465
vn 0.2060 0.8767 -0.4347
vn 0.1526 0.6476 -0.7465
vn 0.0790 0.6567 0.7500
vn 0.0790 0.6568 -0.7499
vn 0.1093 0.9053 0.4105
vn -0.1019 0.9013 0.4211
vn -0.0755 0.6636 0.7442
vn 0.1093 0.9053 -0.4105
vn -0.1161 0.6549 0.7468
vn -0.1020 0.9012 -0.4212
vn -0.0755 0.6636 -0.7442
vn -0.1162 0.6549 -0.7467
vn -0.1579 0.8914 0.4249
vn -0.1580 0.8912 -0.4252
vn 0.4213 -0.5454 0.7246
vn 0.5470 -0.7280 -0.4132
vn 0.4213 -0.5454 -0.7246
vn 0.3378 -0.8212 0.4600
vn 0.2495 -0.6049 0.7562
vn 0.3378 -0.8212 -0.4600
vn 0.2495 -0.6049 -0.7562
vn 0.0607 -0.6646 0.7447
vn 0.0606 -0.6644 -0.7449
vn 0.0794 -0.8976 0.4335
vn 0.0794 -0.8976 -0.4335
vn -0.1161 -0.8907 0.4395
vn -0.0865 -0.6602 0.7461
vn -0.1161 -0.8907 -0.4394
vn -0.0865 -0.6602 -0.7461
vn -0.0295 -0.9150 0.4024
vn -0.0229 -0.6682 0.7436
vn -0.0295 -0.9150 -0.4024
vn -0.0229 -0.6682 -0.7436
vn 0.3298 -0.5526 0.7655
vn 0.3298 -0.5525 -0.7655
vn 0.4670 -0.7811 0.4145
vn 0.4670 -0.7811 -0.4145
vn 0.6262 -0.6330 0.4550
vn 0.4583 -0.4591 0.7610
vn 0.6262 -0.6330 -0.4550
vn 0.4583 -0.4591 -0.7610
vn 0.3987 -0.7960 -0.4554
vn 0.2923 -0.5845 -0.7569
vn 0.3987 -0.7960 0.4554
vn 0.2923 -0.5845 0.7569
vn 0.0756 -0.6603 -0.7472
vn 0.0756 -0.6603 0.7472
vn 0.1012 -0.8902 0.4442
vn 0.1013 -0.8901 -0.4443
vn -0.1902 -0.8805 0.4342
vn -0.1470 -0.6599 0.7368
vn -0.1902 -0.8805 -0.4342
vn -0.1470 -0.6599 -0.7368
vn 0.0856 -0.9108 0.4038
vn 0.0619 -0.6366 0.7687
vn 0.0856 -0.9108 -0.4038
vn 0.0619 -0.6366 -0.7687
vn 0.6229 -0.6593 0.4211
vn 0.4529 -0.4724 0.7561
vn 0.6228 -0.6593 -0.4212
vn 0.4529 -0.4724 -0.7561
vn 0.6072 -0.6422 0.4679
vn 0.4401 -0.4656 0.7678
vn 0.6072 -0.6422 -0.4679
vn 0.4401 -0.4656 -0.7678
vn 0.3098 -0.5792 0.7541
vn 0.3098 -0.5793 -0.7540
vn 0.4240 -0.7907 -0.4417
vn 0.4239 -0.7907 0.4417
vn 0.2091 -0.8684 -0.4496
vn 0.1542 -0.6416 -0.7514
vn 0.2091 -0.8684 0.4496
vn 0.1542 -0.6416 0.7514
vn -0.0189 -0.6673 -0.7446
vn -0.0189 -0.6673 0.7446
vn -0.0251 -0.9009 0.4333
vn -0.0251 -0.9009 -0.4333
vn -0.2542 -0.8567 0.4488
vn -0.1892 -0.6329 0.7508
vn -0.2542 -0.8567 -0.4488
vn -0.1892 -0.6329 -0.7507
vn -0.5633 -0.6791 -0.4707
vn -0.4095 -0.4941 -0.7669
vn -0.5633 -0.6792 0.4705
vn -0.4095 -0.4941 0.7669
vn -0.0000 -0.0000 -1.0000
vn -0.0000 -0.0000 1.0000
vt 0.000000 0.000000
s 1
f 1/1/1 2/1/2 3/1/3
f 4/1/4 5/1/5 3/1/3
f 6/1/6 3/1/3 2/1/2
f 3/1/3 6/1/6 4/1/4
f 2/1/2 7/1/7 6/1/6
f 8/1/6 4/1/4 6/1/6
f 9/1/8 6/1/6 7/1/7
f 6/1/6 9/1/8 8/1/6
f 7/1/7 10/1/9 9/1/8
f 11/1/10 8/1/6 9/1/8
f 12/1/11 9/1/8 10/1/9
f 9/1/8 12/1/11 11/1/10
f 10/1/9 13/1/12 12/1/11
f 14/1/13 11/1/10 12/1/11
f 15/1/14 12/1/11 13/1/12
f 12/1/11 15/1/14 14/1/13
f 15/1/14 13/1/12 16/1/15
f 17/1/12 14/1/13 15/1/14
f 18/1/16 15/1/14 16/1/15
f 17/1/12 15/1/14 18/1/16
f 18/1/16 16/1/15 19/1/17
f 20/1/18 17/1/12 18/1/16
f 21/1/19 18/1/16 19/1/17
f 20/1/18 18/1/16 21/1/19
f 19/1/17 22/1/20 21/1/19
f 23/1/21 20/1/18 21/1/19
f 24/1/20 21/1/19 22/1/20
f 21/1/19 24/1/20 23/1/21
f 22/1/20 25/1/22 24/1/20
f 26/1/23 23/1/21 24/1/20
f 27/1/24 24/1/20 25/1/22
f 24/1/20 27/1/24 26/1/23
f 25/1/22 28/1/25 27/1/24
f 29/1/24 26/1/23 27/1/24
f 30/1/25 27/1/24 28/1/25
f 27/1/24 30/1/25 29/1/24
f 28/1/25 31/1/26 30/1/25
f 32/1/27 29/1/24 30/1/25
f 33/1/28 30/1/25 31/1/26
f 30/1/25 34/1/29 32/1/27
f 31/1/26 35/1/30 33/1/28
f 36/1/30 33/1/28 35/1/30
f 36/1/30 35/1/30 37/1/31
f 38/1/32 32/1/27 34/1/29
f 34/1/29 39/1/33 38/1/32
f 39/1/33 34/1/29 40/1/33
f 39/1/33 40/1/33 41/1/34
f 42/1/35 43/1/36 44/1/37
f 43/1/36 45/1/38 44/1/37
f 43/1/36 42/1/35 46/1/39
f 42/1/35 47/1/40 46/1/39
f 47/1/40 42/1/35 48/1/41
f 47/1/40 49/1/42 46/1/39
f 49/1/42 43/1/36 46/1/39
f 43/1/36 49/1/42 50/1/43
f 49/1/42 47/1/40 51/1/44
f 52/1/45 43/1/36 50/1/43
f 48/1/41 53/1/46 47/1/40
f 53/1/46 51/1/44 47/1/40
f 53/1/46 48/1/41 54/1/47
f 51/1/44 53/1/46 55/1/48
f 56/1/49 53/1/46 54/1/47
f 53/1/46 57/1/50 55/1/48
f 53/1/46 56/1/49 58/1/51
f 57/1/50 53/1/46 58/1/51
f 59/1/52 58/1/51 56/1/49
f 58/1/51 60/1/53 57/1/50
f 58/1/51 59/1/52 61/1/54
f 60/1/53 58/1/51 61/1/54
f 59/1/52 62/1/55 61/1/54
f 62/1/55 60/1/53 61/1/54
f 62/1/55 59/1/52 63/1/56
f 60/1/53 62/1/55 64/1/57
f 65/1/58 62/1/55 63/1/56
f 62/1/55 66/1/59 64/1/57
f 62/1/55 65/1/58 67/1/60
f 66/1/59 62/1/55 67/1/60
f 68/1/61 67/1/60 65/1/58
f 67/1/60 69/1/62 66/1/59
f 67/1/60 68/1/61 70/1/63
f 69/1/62 67/1/60 70/1/63
f 68/1/61 71/1/64 70/1/63
f 71/1/64 69/1/62 70/1/63
f 71/1/64 68/1/61 72/1/65
f 69/1/62 71/1/64 73/1/66
f 74/1/67 71/1/64 72/1/65
f 71/1/64 75/1/68 73/1/66
f 71/1/64 74/1/67 76/1/69
f 75/1/68 71/1/64 76/1/69
f 74/1/67 77/1/70 76/1/69
f 77/1/70 75/1/68 76/1/69
f 77/1/70 74/1/67 45/1/38
f 75/1/68 77/1/70 52/1/45
f 45/1/38 43/1/36 77/1/70
f 43/1/36 52/1/45 77/1/70
f 78/1/71 79/1/72 80/1/73
f 80/1/73 79/1/72 81/1/74
f 78/1/71 82/1/75 79/1/72
f 83/1/76 80/1/73 81/1/74
f 78/1/71 84/1/77 82/1/75
f 78/1/71 85/1/78 84/1/77
f 86/1/40 82/1/75 84/1/77
f 85/1/78 86/1/40 84/1/77
f 85/1/78 78/1/71 87/1/79
f 80/1/73 87/1/79 78/1/71
f 85/1/78 88/1/80 86/1/40
f 87/1/79 80/1/73 89/1/81
f 82/1/75 86/1/40 90/1/82
f 80/1/73 91/1/83 89/1/81
f 88/1/80 92/1/84 86/1/40
f 92/1/84 90/1/82 86/1/40
f 93/1/85 92/1/84 88/1/80
f 90/1/82 92/1/84 94/1/86
f 95/1/87 92/1/84 93/1/85
f 92/1/84 96/1/88 94/1/86
f 92/1/84 95/1/87 97/1/89
f 92/1/84 97/1/89 96/1/88
f 95/1/87 98/1/70 97/1/89
f 98/1/70 96/1/88 97/1/89
f 98/1/70 95/1/87 99/1/90
f 96/1/88 98/1/70 100/1/91
f 101/1/92 98/1/70 99/1/90
f 98/1/70 102/1/93 100/1/91
f 98/1/70 101/1/92 103/1/94
f 103/1/94 102/1/93 98/1/70
f 104/1/95 103/1/94 101/1/92
f 103/1/94 105/1/96 102/1/93
f 103/1/94 104/1/95 106/1/97
f 103/1/94 106/1/97 105/1/96
f 104/1/95 107/1/98 106/1/97
f 107/1/98 105/1/96 106/1/97
f 104/1/95 108/1/99 107/1/98
f 105/1/96 107/1/98 109/1/100
f 108/1/99 110/1/60 107/1/98
f 110/1/60 109/1/100 107/1/98
f 111/1/101 110/1/60 108/1/99
f 109/1/100 110/1/60 112/1/102
f 91/1/83 110/1/60 111/1/101
f 110/1/60 83/1/76 112/1/102
f 110/1/60 91/1/83 113/1/103
f 110/1/60 113/1/103 83/1/76
f 91/1/83 80/1/73 113/1/103
f 80/1/73 83/1/76 113/1/103
f 114/1/104 115/1/105 116/1/106
f 115/1/105 114/1/104 117/1/107
f 115/1/105 117/1/107 118/1/108
f 119/1/109 116/1/106 115/1/105
f 116/1/106 119/1/109 120/1/104
f 121/1/108 115/1/105 118/1/108
f 119/1/109 115/1/105 121/1/108
f 118/1/108 122/1/110 121/1/108
f 123/1/111 119/1/109 121/1/108
f 124/1/112 121/1/108 122/1/110
f 121/1/108 124/1/112 123/1/111
f 124/1/112 122/1/110 125/1/113
f 126/1/110 123/1/111 124/1/112
f 127/1/113 124/1/112 125/1/113
f 126/1/110 124/1/112 127/1/113
f 127/1/113 125/1/113 128/1/5
f 129/1/113 126/1/110 127/1/113
f 130/1/114 127/1/113 128/1/5
f 129/1/113 127/1/113 130/1/114
f 128/1/5 1/1/1 130/1/114
f 5/1/5 129/1/113 130/1/114
f 3/1/3 130/1/114 1/1/1
f 130/1/114 3/1/3 5/1/5
f 131/1/115 132/1/115 133/1/115
f 134/1/115 133/1/115 132/1/115
f 132/1/115 131/1/115 135/1/115
f 133/1/115 134/1/115 136/1/115
f 137/1/115 135/1/115 131/1/115
f 138/1/115 136/1/115 134/1/115
f 135/1/115 137/1/115 139/1/115
f 136/1/115 138/1/115 140/1/115
f 141/1/115 139/1/115 137/1/115
f 138/1/115 142/1/115 140/1/115
f 139/1/115 141/1/115 143/1/115
f 142/1/115 138/1/115 144/1/115
f 145/1/115 143/1/115 141/1/115
f 146/1/115 142/1/115 144/1/115
f 141/1/115 147/1/115 145/1/115
f 146/1/115 144/1/115 148/1/115
f 147/1/115 149/1/115 145/1/115
f 150/1/115 146/1/115 148/1/115
f 147/1/115 151/1/115 149/1/115
f 148/1/115 152/1/115 150/1/115
f 151/1/115 153/1/115 149/1/115
f 152/1/115 154/1/115 150/1/115
f 153/1/115 151/1/115 154/1/115
f 154/1/115 152/1/115 153/1/115
f 155/1/116 156/1/116 157/1/116
f 158/1/116 157/1/116 156/1/116
f 156/1/116 155/1/116 159/1/116
f 157/1/116 158/1/116 160/1/116
f 161/1/116 159/1/116 155/1/116
f 162/1/116 160/1/116 158/1/116
f 159/1/116 161/1/116 163/1/116
f 160/1/116 162/1/116 164/1/116
f 165/1/116 163/1/116 161/1/116
f 162/1/116 166/1/116 164/1/116
f 163/1/116 165/1/116 167/1/116
f 166/1/116 162/1/116 168/1/116
f 169/1/116 167/1/116 165/1/116
f 170/1/116 166/1/116 168/1/116
f 167/1/116 169/1/116 171/1/116
f 170/1/116 168/1/116 172/1/116
f 173/1/116 171/1/116 169/1/116
f 174/1/116 170/1/116 172/1/116
f 171/1/116 173/1/116 175/1/116
f 172/1/116 176/1/116 174/1/116
f 173/1/116 177/1/116 175/1/116
f 176/1/116 178/1/116 174/1/116
f 177/1/116 173/1/116 178/1/116
f 178/1/116 176/1/116 177/1/116
f 179/1/117 180/1/117 181/1/117
f 182/1/117 181/1/117 180/1/117
f 180/1/117 179/1/117 183/1/117
f 181/1/117 182/1/117 184/1/117
f 179/1/117 185/1/117 183/1/117
f 186/1/117 184/1/117 182/1/117
f 185/1/117 179/1/117 187/1/117
f 184/1/117 186/1/117 188/1/117
f 185/1/117 187/1/117 189/1/117
f 190/1/117 188/1/117 186/1/117
f 188/1/117 190/1/117 191/1/117
f 192/1/117 191/1/117 190/1/117
f 192/1/117 193/1/117 191/1/117
f 193/1/117 192/1/117 194/1/117
f 194/1/117 195/1/117 193/1/117
f 196/1/117 195/1/117 194/1/117
f 195/1/117 196/1/117 197/1/117
f 198/1/117 197/1/117 196/1/117
f 197/1/117 198/1/117 199/1/117
f 200/1/117 199/1/117 198/1/117
f 199/1/117 200/1/117 201/1/117
f 200/1/117 202/1/117 201/1/117
f 202/1/117 200/1/117 203/1/117
f 203/1/117 204/1/117 202/1/117
f 204/1/117 203/1/117 205/1/118
f 205/1/118 206/1/118 204/1/117
f 205/1/118 207/1/118 206/1/118
f 208/1/119 209/1/119 210/1/119
f 209/1/119 211/1/120 210/1/119
f 212/1/120 211/1/120 209/1/119
f 211/1/120 212/1/120 213/1/120
f 214/1/120 213/1/120 212/1/120
f 213/1/120 214/1/120 215/1/120
f 215/1/120 214/1/120 216/1/120
f 217/1/120 216/1/120 214/1/120
f 217/1/120 218/1/120 216/1/120
f 219/1/120 218/1/120 217/1/120
f 219/1/120 220/1/120 218/1/120
f 220/1/120 219/1/120 221/1/120
f 221/1/120 222/1/120 220/1/120
f 223/1/120 222/1/120 221/1/120
f 222/1/120 223/1/120 224/1/120
f 225/1/120 224/1/120 223/1/120
f 224/1/120 225/1/120 226/1/120
f 227/1/120 226/1/120 225/1/120
f 226/1/120 227/1/120 228/1/120
f 229/1/120 228/1/120 227/1/120
f 229/1/120 230/1/120 228/1/120
f 230/1/120 229/1/120 231/1/120
f 231/1/120 232/1/120 230/1/120
f 233/1/120 232/1/120 231/1/120
f 234/1/120 232/1/120 233/1/120
f 232/1/120 234/1/120 235/1/120
f 236/1/120 235/1/120 234/1/120
f 235/1/120 236/1/120 237/1/120
f 238/1/120 237/1/120 236/1/120
f 237/1/120 238/1/120 239/1/120
f 240/1/120 237/1/120 239/1/120
f 240/1/120 239/1/120 241/1/120
f 237/1/120 240/1/120 242/1/120
f 240/1/120 243/1/120 242/1/120
f 244/1/117 245/1/117 246/1/117
f 245/1/117 247/1/117 248/1/117
f 245/1/117 249/1/117 247/1/117
f 249/1/117 245/1/117 244/1/117
f 250/1/117 249/1/117 244/1/117
f 189/1/117 249/1/117 250/1/117
f 249/1/117 189/1/117 187/1/117
f 251/1/121 252/1/122 253/1/121
f 252/1/122 251/1/121 254/1/123
f 255/1/124 252/1/122 254/1/123
f 252/1/122 255/1/124 256/1/125
f 257/1/126 256/1/125 255/1/124
f 256/1/125 257/1/126 258/1/127
f 259/1/128 258/1/127 257/1/126
f 258/1/127 259/1/128 260/1/129
f 261/1/130 260/1/129 259/1/128
f 260/1/129 261/1/130 262/1/131
f 263/1/132 262/1/131 261/1/130
f 262/1/131 263/1/132 264/1/133
f 265/1/134 264/1/133 263/1/132
f 264/1/133 265/1/134 266/1/135
f 267/1/136 266/1/135 265/1/134
f 266/1/135 267/1/136 268/1/137
f 269/1/138 268/1/137 267/1/136
f 269/1/138 270/1/139 268/1/137
f 271/1/140 270/1/139 269/1/138
f 271/1/140 272/1/141 270/1/139
f 273/1/142 272/1/141 271/1/140
f 273/1/142 274/1/143 272/1/141
f 275/1/144 274/1/143 273/1/142
f 275/1/144 276/1/145 274/1/143
f 276/1/145 275/1/144 277/1/146
f 277/1/146 278/1/147 276/1/145
f 278/1/147 277/1/146 279/1/148
f 279/1/148 280/1/149 278/1/147
f 280/1/149 279/1/148 281/1/150
f 282/1/151 280/1/149 281/1/150
f 282/1/151 281/1/150 283/1/152
f 283/1/152 284/1/153 282/1/151
f 284/1/153 283/1/152 285/1/154
f 286/1/154 284/1/153 285/1/154
f 287/1/155 288/1/156 289/1/157
f 288/1/156 287/1/155 290/1/156
f 289/1/157 291/1/158 287/1/155
f 291/1/158 289/1/157 292/1/159
f 292/1/159 293/1/160 291/1/158
f 293/1/160 292/1/159 294/1/161
f 294/1/161 295/1/162 293/1/160
f 295/1/162 294/1/161 296/1/163
f 296/1/163 297/1/164 295/1/162
f 297/1/164 296/1/163 298/1/165
f 298/1/165 299/1/166 297/1/164
f 299/1/166 298/1/165 300/1/167
f 300/1/167 301/1/168 299/1/166
f 301/1/168 300/1/167 302/1/169
f 302/1/169 303/1/170 301/1/168
f 303/1/170 302/1/169 304/1/171
f 304/1/171 305/1/172 303/1/170
f 305/1/172 304/1/171 306/1/173
f 306/1/173 307/1/174 305/1/172
f 307/1/174 306/1/173 308/1/175
f 308/1/175 309/1/176 307/1/174
f 309/1/176 308/1/175 310/1/177
f 310/1/177 311/1/178 309/1/176
f 311/1/178 310/1/177 312/1/179
f 312/1/179 313/1/180 311/1/178
f 313/1/180 312/1/179 314/1/181
f 314/1/181 315/1/182 313/1/180
f 315/1/182 314/1/181 316/1/183
f 316/1/183 317/1/184 315/1/182
f 317/1/184 316/1/183 318/1/185
f 318/1/185 319/1/186 317/1/184
f 319/1/186 318/1/185 320/1/187
f 321/1/188 319/1/186 320/1/187
f 319/1/186 321/1/188 322/1/188
f 323/1/189 324/1/190 325/1/191
f 323/1/189 325/1/191 326/1/192
f 327/1/193 323/1/189 326/1/192
f 328/1/193 323/1/189 327/1/193
f 323/1/189 328/1/193 329/1/194
f 329/1/194 328/1/193 330/1/195
f 331/1/196 323/1/189 329/1/194
f 323/1/189 331/1/196 332/1/197
f 333/1/198 334/1/199 335/1/200
f 336/1/201 333/1/198 335/1/200
f 334/1/199 333/1/198 337/1/202
f 338/1/203 339/1/204 336/1/201
f 339/1/204 333/1/198 336/1/201
f 339/1/204 338/1/203 340/1/205
f 333/1/198 341/1/206 337/1/202
f 342/1/207 339/1/204 340/1/205
f 339/1/204 342/1/207 343/1/208
f 343/1/208 333/1/198 339/1/204
f 344/1/209 343/1/208 342/1/207
f 333/1/198 345/1/210 341/1/206
f 333/1/198 343/1/208 345/1/210
f 346/1/211 341/1/206 345/1/210
f 345/1/210 347/1/212 346/1/211
f 343/1/208 347/1/212 345/1/210
f 348/1/213 346/1/211 347/1/212
f 343/1/208 344/1/209 349/1/214
f 347/1/212 343/1/208 349/1/214
f 350/1/215 349/1/214 344/1/209
f 347/1/212 351/1/216 348/1/213
f 349/1/214 351/1/216 347/1/212
f 349/1/214 350/1/215 352/1/217
f 349/1/214 352/1/217 351/1/216
f 353/1/218 352/1/217 350/1/215
f 351/1/216 354/1/219 348/1/213
f 352/1/217 353/1/218 355/1/220
f 355/1/220 351/1/216 352/1/217
f 353/1/218 356/1/221 355/1/220
f 351/1/216 355/1/220 357/1/222
f 354/1/219 351/1/216 357/1/222
f 356/1/221 357/1/222 355/1/220
f 357/1/222 358/1/223 354/1/219
f 357/1/222 356/1/221 358/1/223
f 354/1/219 358/1/223 359/1/224
f 356/1/221 353/1/218 360/1/225
f 361/1/226 359/1/224 358/1/223
f 356/1/221 361/1/226 358/1/223
f 359/1/224 361/1/226 362/1/227
f 360/1/225 363/1/228 356/1/221
f 356/1/221 363/1/228 361/1/226
f 360/1/225 364/1/229 363/1/228
f 365/1/230 362/1/227 361/1/226
f 363/1/228 365/1/230 361/1/226
f 362/1/227 365/1/230 366/1/231
f 364/1/229 367/1/232 363/1/228
f 363/1/228 367/1/232 365/1/230
f 364/1/229 368/1/233 367/1/232
f 369/1/234 366/1/231 365/1/230
f 367/1/232 369/1/234 365/1/230
f 366/1/231 369/1/234 370/1/235
f 371/1/236 367/1/232 368/1/233
f 367/1/232 371/1/236 369/1/234
f 368/1/233 372/1/237 371/1/236
f 373/1/238 370/1/235 369/1/234
f 371/1/236 373/1/238 369/1/234
f 370/1/235 373/1/238 374/1/239
f 375/1/240 371/1/236 372/1/237
f 371/1/236 375/1/240 373/1/238
f 372/1/237 376/1/241 375/1/240
f 377/1/242 374/1/239 373/1/238
f 378/1/243 375/1/240 376/1/241
f 373/1/238 379/1/244 377/1/242
f 380/1/245 373/1/238 375/1/240
f 373/1/238 380/1/245 379/1/244
f 375/1/240 378/1/243 380/1/245
f 381/1/246 377/1/242 379/1/244
f 380/1/245 381/1/246 379/1/244
f 382/1/247 383/1/248 384/1/249
f 385/1/250 382/1/247 384/1/249
f 383/1/248 382/1/247 386/1/251
f 382/1/247 385/1/250 387/1/252
f 388/1/253 384/1/249 383/1/248
f 388/1/253 385/1/250 384/1/249
f 389/1/254 383/1/248 386/1/251
f 386/1/251 390/1/255 389/1/254
f 391/1/256 388/1/253 383/1/248
f 392/1/257 387/1/252 385/1/250
f 387/1/252 392/1/257 393/1/258
f 394/1/259 393/1/258 392/1/257
f 388/1/253 391/1/256 395/1/260
f 394/1/259 392/1/257 396/1/261
f 397/1/262 385/1/250 388/1/253
f 395/1/260 397/1/262 388/1/253
f 395/1/260 391/1/256 398/1/263
f 395/1/260 399/1/264 397/1/262
f 400/1/265 398/1/263 391/1/256
f 400/1/265 391/1/256 383/1/248
f 398/1/263 400/1/265 401/1/266
f 400/1/265 383/1/248 389/1/254
f 399/1/264 402/1/267 397/1/262
f 402/1/267 385/1/250 397/1/262
f 385/1/250 402/1/267 392/1/257
f 402/1/267 399/1/264 403/1/268
f 402/1/267 396/1/261 392/1/257
f 404/1/269 402/1/267 403/1/268
f 396/1/261 405/1/270 394/1/259
f 402/1/267 404/1/269 406/1/271
f 396/1/261 402/1/267 406/1/271
f 407/1/272 406/1/271 404/1/269
f 396/1/261 408/1/273 405/1/270
f 406/1/271 408/1/273 396/1/261
f 406/1/271 407/1/272 409/1/274
f 408/1/273 406/1/271 409/1/274
f 407/1/272 410/1/275 409/1/274
f 411/1/276 405/1/270 408/1/273
f 409/1/274 411/1/276 408/1/273
f 410/1/275 411/1/276 409/1/274
f 405/1/270 411/1/276 412/1/277
f 407/1/272 413/1/278 410/1/275
f 414/1/279 412/1/277 411/1/276
f 410/1/275 414/1/279 411/1/276
f 412/1/277 414/1/279 415/1/280
f 413/1/278 416/1/281 410/1/275
f 416/1/281 414/1/279 410/1/275
f 413/1/278 417/1/282 416/1/281
f 414/1/279 418/1/283 415/1/280
f 419/1/284 416/1/281 417/1/282
f 416/1/281 419/1/284 420/1/285
f 420/1/285 414/1/279 416/1/281
f 421/1/286 420/1/285 419/1/284
f 414/1/279 422/1/287 418/1/283
f 414/1/279 420/1/285 422/1/287
f 422/1/287 423/1/288 418/1/283
f 420/1/285 424/1/289 422/1/287
f 424/1/289 423/1/288 422/1/287
f 420/1/285 421/1/286 425/1/290
f 425/1/290 424/1/289 420/1/285
f 426/1/291 423/1/288 424/1/289
f 425/1/290 426/1/291 424/1/289
f 423/1/288 426/1/291 427/1/292
f 426/1/291 428/1/293 427/1/292
f 421/1/286 429/1/294 425/1/290
f 426/1/291 425/1/290 429/1/294
f 421/1/286 430/1/295 429/1/294
f 431/1/296 429/1/294 430/1/295
f 426/1/291 432/1/297 428/1/293
f 429/1/294 432/1/297 426/1/291
f 432/1/297 433/1/298 428/1/293
f 429/1/294 431/1/296 434/1/299
f 434/1/299 432/1/297 429/1/294
f 435/1/300 434/1/299 431/1/296
f 434/1/299 435/1/300 436/1/301
f 436/1/301 432/1/297 434/1/299
f 437/1/302 436/1/301 435/1/300
f 432/1/297 438/1/303 433/1/298
f 432/1/297 436/1/301 438/1/303
f 438/1/303 439/1/304 433/1/298
f 436/1/301 440/1/305 438/1/303
f 438/1/303 440/1/305 439/1/304
f 436/1/301 437/1/302 441/1/306
f 441/1/306 440/1/305 436/1/301
f 442/1/307 439/1/304 440/1/305
f 441/1/306 442/1/307 440/1/305
f 439/1/304 442/1/307 443/1/308
f 437/1/302 444/1/309 441/1/306
f 442/1/307 441/1/306 444/1/309
f 437/1/302 445/1/310 444/1/309
f 442/1/307 446/1/311 443/1/308
f 447/1/312 444/1/309 445/1/310
f 446/1/311 442/1/307 448/1/313
f 444/1/309 448/1/313 442/1/307
f 449/1/314 446/1/311 448/1/313
f 446/1/311 449/1/314 450/1/315
f 448/1/313 444/1/309 451/1/316
f 444/1/309 447/1/312 451/1/316
f 451/1/316 449/1/314 448/1/313
f 449/1/314 452/1/317 450/1/315
f 447/1/312 453/1/318 451/1/316
f 453/1/318 449/1/314 451/1/316
f 447/1/312 454/1/319 453/1/318
f 455/1/320 453/1/318 454/1/319
f 449/1/314 456/1/321 452/1/317
f 453/1/318 456/1/321 449/1/314
f 453/1/318 455/1/320 457/1/322
f 457/1/322 456/1/321 453/1/318
f 338/1/203 457/1/322 455/1/320
f 456/1/321 334/1/199 452/1/317
f 457/1/322 338/1/203 336/1/201
f 336/1/201 456/1/321 457/1/322
f 456/1/321 335/1/200 334/1/199
f 456/1/321 336/1/201 335/1/200
f 377/1/242 381/1/246 458/1/323
f 459/1/324 380/1/245 378/1/243
f 380/1/245 459/1/324 381/1/246
f 459/1/324 378/1/243 460/1/325
f 461/1/326 458/1/323 381/1/246
f 459/1/324 461/1/326 381/1/246
f 458/1/323 461/1/326 462/1/327
f 460/1/325 463/1/328 459/1/324
f 463/1/328 461/1/326 459/1/324
f 463/1/328 460/1/325 464/1/329
f 465/1/330 462/1/327 461/1/326
f 466/1/331 463/1/328 464/1/329
f 461/1/326 467/1/332 465/1/330
f 463/1/328 467/1/332 461/1/326
f 463/1/328 466/1/331 468/1/333
f 468/1/333 467/1/332 463/1/328
f 469/1/334 465/1/330 467/1/332
f 468/1/333 469/1/334 467/1/332
f 465/1/330 469/1/334 470/1/335
f 466/1/331 471/1/336 468/1/333
f 468/1/333 471/1/336 469/1/334
f 466/1/331 472/1/337 471/1/336
f 473/1/338 470/1/335 469/1/334
f 471/1/336 473/1/338 469/1/334
f 470/1/335 473/1/338 474/1/339
f 472/1/337 475/1/340 471/1/336
f 471/1/336 475/1/340 473/1/338
f 472/1/337 476/1/341 475/1/340
f 473/1/338 477/1/342 474/1/339
f 478/1/343 475/1/340 476/1/341
f 473/1/338 479/1/344 477/1/342
f 480/1/345 473/1/338 475/1/340
f 473/1/338 480/1/345 479/1/344
f 475/1/340 478/1/343 480/1/345
f 481/1/346 477/1/342 479/1/344
f 480/1/345 481/1/346 479/1/344
f 477/1/342 481/1/346 482/1/347
f 478/1/343 483/1/348 480/1/345
f 480/1/345 483/1/348 481/1/346
f 483/1/348 478/1/343 484/1/349
f 484/1/349 485/1/350 483/1/348
f 485/1/350 481/1/346 483/1/348
f 485/1/350 484/1/349 486/1/351
f 487/1/352 482/1/347 481/1/346
f 481/1/346 485/1/350 487/1/352
f 482/1/347 487/1/352 488/1/353
f 489/1/354 485/1/350 486/1/351
f 490/1/355 488/1/353 487/1/352
f 485/1/350 491/1/356 487/1/352
f 487/1/352 491/1/356 490/1/355
f 492/1/357 491/1/356 485/1/350
f 485/1/350 489/1/354 492/1/357
f 493/1/358 490/1/355 491/1/356
f 492/1/357 493/1/358 491/1/356
f 490/1/355 493/1/358 494/1/359
f 489/1/354 495/1/360 492/1/357
f 492/1/357 495/1/360 493/1/358
f 489/1/354 496/1/361 495/1/360
f 497/1/362 494/1/359 493/1/358
f 495/1/360 497/1/362 493/1/358
f 494/1/359 497/1/362 498/1/363
f 499/1/364 495/1/360 496/1/361
f 495/1/360 499/1/364 497/1/362
f 496/1/361 500/1/365 499/1/364
f 501/1/366 498/1/363 497/1/362
f 499/1/364 501/1/366 497/1/362
f 498/1/363 501/1/366 502/1/367
f 500/1/365 503/1/368 499/1/364
f 503/1/368 501/1/366 499/1/364
f 503/1/368 500/1/365 504/1/369
f 505/1/370 502/1/367 501/1/366
f 503/1/368 505/1/370 501/1/366
f 502/1/367 505/1/370 506/1/371
f 504/1/369 507/1/372 503/1/368
f 507/1/372 505/1/370 503/1/368
f 507/1/372 504/1/369 508/1/373
f 509/1/374 506/1/371 505/1/370
f 510/1/375 507/1/372 508/1/373
f 507/1/372 510/1/375 511/1/376
f 507/1/372 512/1/377 505/1/370
f 509/1/374 505/1/370 512/1/377
f 511/1/376 512/1/377 507/1/372
f 510/1/375 513/1/378 511/1/376
f 513/1/378 512/1/377 511/1/376
f 513/1/378 510/1/375 514/1/379
f 515/1/380 509/1/374 512/1/377
f 512/1/377 513/1/378 515/1/380
f 509/1/374 515/1/380 516/1/381
f 517/1/382 513/1/378 514/1/379
f 518/1/383 516/1/381 515/1/380
f 513/1/378 519/1/384 515/1/380
f 515/1/380 519/1/384 518/1/383
f 520/1/385 519/1/384 513/1/378
f 513/1/378 517/1/382 520/1/385
f 521/1/386 518/1/383 519/1/384
f 520/1/385 521/1/386 519/1/384
f 518/1/383 521/1/386 522/1/387
f 517/1/382 523/1/388 520/1/385
f 520/1/385 523/1/388 521/1/386
f 517/1/382 524/1/389 523/1/388
f 525/1/390 523/1/388 524/1/389
f 525/1/390 521/1/386 523/1/388
f 524/1/389 526/1/391 525/1/390
f 401/1/266 525/1/390 526/1/391
f 525/1/390 401/1/266 400/1/265
f 525/1/390 400/1/265 389/1/254
f 521/1/386 525/1/390 527/1/392
f 525/1/390 389/1/254 527/1/392
f 527/1/392 522/1/387 521/1/386
f 390/1/255 527/1/392 389/1/254
f 522/1/387 527/1/392 528/1/393
f 527/1/392 390/1/255 528/1/393
f 529/1/394 530/1/394 531/1/394
f 530/1/394 529/1/394 532/1/394
f 533/1/394 531/1/394 530/1/394
f 531/1/394 533/1/394 534/1/394
f 533/1/394 535/1/394 534/1/394
f 535/1/394 533/1/394 536/1/394
f 532/1/394 529/1/394 537/1/394
f 535/1/394 536/1/394 538/1/394
f 537/1/394 529/1/394 539/1/394
f 540/1/394 538/1/394 536/1/394
f 538/1/394 540/1/394 541/1/394
f 542/1/394 541/1/394 540/1/394
f 541/1/394 542/1/394 543/1/394
f 538/1/394 541/1/394 544/1/394
f 538/1/394 544/1/394 545/1/394
f 546/1/394 545/1/394 544/1/394
f 547/1/394 545/1/394 546/1/394
f 548/1/394 545/1/394 547/1/394
f 548/1/394 547/1/394 549/1/394
f 549/1/394 547/1/394 550/1/394
f 545/1/394 548/1/394 551/1/394
f 552/1/394 551/1/394 548/1/394
f 553/1/394 551/1/394 552/1/394
f 551/1/394 553/1/394 554/1/394
f 553/1/394 555/1/394 554/1/394
f 555/1/394 553/1/394 556/1/394
f 556/1/394 557/1/394 555/1/394
f 554/1/394 555/1/394 558/1/394
f 558/1/394 559/1/394 554/1/394
f 559/1/394 558/1/394 560/1/394
f 559/1/394 560/1/394 561/1/394
f 562/1/394 559/1/394 561/1/394
f 559/1/394 562/1/394 563/1/394
f 563/1/394 562/1/394 564/1/394
f 539/1/394 565/1/394 537/1/394
f 566/1/394 565/1/394 539/1/394
f 567/1/394 537/1/394 565/1/394
f 537/1/394 567/1/394 568/1/394
f 569/1/394 568/1/394 567/1/394
f 569/1/394 570/1/394 568/1/394
f 571/1/394 565/1/394 566/1/394
f 565/1/394 571/1/394 572/1/394
f 571/1/394 573/1/394 572/1/394
f 571/1/394 574/1/394 573/1/394
f 566/1/394 575/1/394 571/1/394
f 575/1/394 566/1/394 576/1/394
f 576/1/394 577/1/394 575/1/394
f 578/1/395 579/1/395 580/1/395
f 581/1/395 579/1/395 578/1/395
f 582/1/395 580/1/395 579/1/395
f 579/1/395 581/1/395 583/1/395
f 580/1/395 582/1/395 584/1/395
f 580/1/395 584/1/395 585/1/395
f 584/1/395 586/1/395 585/1/395
f 584/1/395 582/1/395 587/1/395
f 588/1/395 587/1/395 582/1/395
f 587/1/395 588/1/395 589/1/395
f 589/1/395 588/1/395 590/1/395
f 588/1/395 591/1/395 590/1/395
f 591/1/395 588/1/395 592/1/395
f 592/1/395 593/1/395 591/1/395
f 581/1/395 594/1/395 583/1/395
f 595/1/395 594/1/395 581/1/395
f 594/1/395 595/1/395 596/1/395
f 597/1/395 583/1/395 594/1/395
f 598/1/395 583/1/395 597/1/395
f 583/1/395 598/1/395 599/1/395
f 600/1/395 599/1/395 598/1/395
f 600/1/395 601/1/395 602/1/395
f 600/1/395 602/1/395 603/1/395
f 603/1/395 599/1/395 600/1/395
f 604/1/395 599/1/395 603/1/395
f 599/1/395 604/1/395 605/1/395
f 606/1/395 605/1/395 604/1/395
f 605/1/395 606/1/395 607/1/395
f 606/1/395 608/1/395 607/1/395
f 608/1/395 606/1/395 609/1/395
f 609/1/395 610/1/395 608/1/395
f 611/1/395 610/1/395 609/1/395
f 612/1/395 610/1/395 611/1/395
f 610/1/395 612/1/395 613/1/395
f 613/1/395 612/1/395 614/1/395
f 613/1/395 614/1/395 615/1/395
f 614/1/395 612/1/395 616/1/395
f 616/1/395 612/1/395 617/1/395
f 617/1/395 618/1/395 616/1/395
f 618/1/395 617/1/395 619/1/395
f 620/1/395 615/1/395 614/1/395
f 620/1/395 614/1/395 621/1/395
f 622/1/395 620/1/395 621/1/395
f 620/1/395 622/1/395 623/1/395
f 624/1/395 615/1/395 620/1/395
f 615/1/395 624/1/395 625/1/395
f 625/1/395 624/1/395 626/1/395
