# Blender 5.1.0
# www.blender.org
mtllib karamb.mtl
o another_boduy
v 0.666736 0.085027 0.023678
v 0.715864 0.057691 0.023678
v 0.666736 0.085027 -0.000000
v 0.666736 0.085027 -0.023678
v 0.625409 0.103730 -0.023678
v 0.715864 0.057691 -0.000000
v 0.765731 0.025372 0.023678
v 0.715864 0.057691 -0.023678
v 0.765731 0.025372 -0.000000
v 0.815413 -0.013968 0.023678
v 0.765731 0.025372 -0.023678
v 0.815413 -0.013968 -0.000000
v 0.861955 -0.057925 0.023678
v 0.815413 -0.013968 -0.023678
v 0.861955 -0.057925 -0.000000
v 0.896861 -0.095970 0.023678
v 0.861955 -0.057925 -0.023678
v 0.896861 -0.095970 -0.000000
v 0.928997 -0.136788 0.023678
v 0.896861 -0.095970 -0.023678
v 0.928997 -0.136788 -0.000000
v 0.961134 -0.185730 0.023678
v 0.928997 -0.136788 -0.023678
v 0.961134 -0.185730 0.000000
v 0.991608 -0.241692 0.023678
v 0.961134 -0.185730 -0.023678
v 0.991608 -0.241692 0.000000
v 1.011370 -0.286572 0.023678
v 0.991608 -0.241692 -0.023678
v 1.011370 -0.286572 0.000000
v 1.038150 -0.364697 0.023678
v 1.011370 -0.286572 -0.023678
v 1.038150 -0.364697 0.000000
v 1.038150 -0.364697 0.000000
v 1.054033 -0.443790 0.007872
v 1.053933 -0.443767 0.000000
v 1.061754 -0.482946 0.000000
v 1.038150 -0.364697 -0.023678
v 1.054033 -0.443790 -0.007872
v 1.053933 -0.443767 0.000000
v 1.061754 -0.482946 0.000000
v -0.479315 -0.070556 -0.028767
v -0.410089 -0.045281 -0.000000
v -0.410089 -0.052006 -0.028767
v -0.340862 -0.070556 -0.028767
v -0.482678 -0.064732 -0.000000
v -0.535816 -0.117870 -0.000000
v -0.529992 -0.121232 -0.028767
v -0.479315 -0.070556 0.028767
v -0.410089 -0.052006 0.028767
v -0.529992 -0.121232 0.028767
v -0.340862 -0.070556 0.028767
v -0.555266 -0.190460 0.000000
v -0.548541 -0.190460 -0.028767
v -0.548541 -0.190460 0.028767
v -0.529992 -0.259686 -0.028767
v -0.529992 -0.259686 0.028767
v -0.535816 -0.263048 0.000000
v -0.479315 -0.310363 -0.028767
v -0.479315 -0.310363 0.028767
v -0.482678 -0.316188 0.000000
v -0.410089 -0.335637 0.000000
v -0.410089 -0.328912 -0.028767
v -0.410089 -0.328912 0.028767
v -0.340862 -0.310363 -0.028767
v -0.340862 -0.310363 0.028767
v -0.337500 -0.316188 0.000000
v -0.290185 -0.259686 -0.028767
v -0.290185 -0.259686 0.028767
v -0.284361 -0.263048 0.000000
v -0.264911 -0.190460 0.000000
v -0.271636 -0.190460 -0.028767
v -0.271636 -0.190460 0.028767
v -0.290185 -0.121232 -0.028767
v -0.290185 -0.121232 0.028767
v -0.284361 -0.117870 -0.000000
v -0.337500 -0.064732 -0.000000
v -0.319251 -0.138014 -0.000000
v -0.315125 -0.135633 0.028767
v -0.357643 -0.099622 -0.000000
v -0.355261 -0.095495 0.028767
v -0.300434 -0.190460 0.028767
v -0.410089 -0.080804 0.028767
v -0.305198 -0.190460 0.000000
v -0.300434 -0.190460 -0.028767
v -0.319251 -0.242904 0.000000
v -0.315125 -0.135633 -0.028767
v -0.315125 -0.245287 -0.028767
v -0.355261 -0.095495 -0.028767
v -0.315125 -0.245287 0.028767
v -0.410089 -0.080804 -0.028767
v -0.357643 -0.281298 0.000000
v -0.355261 -0.285424 -0.028767
v -0.355261 -0.285424 0.028767
v -0.410089 -0.300113 -0.028767
v -0.410089 -0.300113 0.028767
v -0.410089 -0.295349 0.000000
v -0.462534 -0.281298 0.000000
v -0.464916 -0.285424 -0.028767
v -0.464916 -0.285424 0.028767
v -0.505052 -0.245287 -0.028767
v -0.505052 -0.245287 0.028767
v -0.500926 -0.242904 0.000000
v -0.519743 -0.190460 -0.028767
v -0.519743 -0.190460 0.028767
v -0.514979 -0.190460 0.000000
v -0.500926 -0.138014 -0.000000
v -0.505052 -0.135633 -0.028767
v -0.505052 -0.135633 0.028767
v -0.462534 -0.099622 -0.000000
v -0.464916 -0.095495 -0.028767
v -0.464916 -0.095495 0.028767
v -0.410089 -0.085569 -0.000000
v 0.380753 0.159368 0.023678
v 0.466601 0.149868 -0.000000
v 0.380753 0.159368 -0.000000
v 0.466601 0.149868 0.023678
v 0.505167 0.142208 0.023678
v 0.466601 0.149868 -0.023678
v 0.380753 0.159368 -0.023678
v 0.505167 0.142208 -0.000000
v 0.552462 0.130094 0.023678
v 0.505167 0.142208 -0.023678
v 0.552462 0.130094 -0.000000
v 0.586308 0.118872 0.023678
v 0.552462 0.130094 -0.023678
v 0.586308 0.118872 -0.000000
v 0.625409 0.103730 0.023678
v 0.586308 0.118872 -0.023678
v 0.625409 0.103730 -0.000000
v -0.290185 -0.259686 -0.028767
v -0.300434 -0.190460 -0.028767
v -0.271636 -0.190460 -0.028767
v -0.315125 -0.135633 -0.028767
v -0.315125 -0.245287 -0.028767
v -0.290185 -0.121232 -0.028767
v -0.340862 -0.310363 -0.028767
v -0.355261 -0.095495 -0.028767
v -0.355261 -0.285424 -0.028767
v -0.340862 -0.070556 -0.028767
v -0.410089 -0.328912 -0.028767
v -0.410089 -0.052006 -0.028767
v -0.410089 -0.300113 -0.028767
v -0.410089 -0.080804 -0.028767
v -0.464916 -0.285424 -0.028767
v -0.479315 -0.070556 -0.028767
v -0.479315 -0.310363 -0.028767
v -0.464916 -0.095495 -0.028767
v -0.505052 -0.245287 -0.028767
v -0.529992 -0.121232 -0.028767
v -0.529992 -0.259686 -0.028767
v -0.505052 -0.135633 -0.028767
v -0.519743 -0.190460 -0.028767
v -0.548541 -0.190460 -0.028767
v -0.529992 -0.121232 0.028767
v -0.464916 -0.095495 0.028767
v -0.479315 -0.070556 0.028767
v -0.410089 -0.080804 0.028767
v -0.505052 -0.135633 0.028767
v -0.410089 -0.052006 0.028767
v -0.548541 -0.190460 0.028767
v -0.355261 -0.095495 0.028767
v -0.519743 -0.190460 0.028767
v -0.340862 -0.070556 0.028767
v -0.529992 -0.259686 0.028767
v -0.290185 -0.121232 0.028767
v -0.505052 -0.245287 0.028767
v -0.315125 -0.135633 0.028767
v -0.479315 -0.310363 0.028767
v -0.271636 -0.190460 0.028767
v -0.464916 -0.285424 0.028767
v -0.300434 -0.190460 0.028767
v -0.410089 -0.328912 0.028767
v -0.290185 -0.259686 0.028767
v -0.410089 -0.300113 0.028767
v -0.315125 -0.245287 0.028767
v -0.355261 -0.285424 0.028767
v -0.340862 -0.310363 0.028767
v 0.559327 -0.122193 -0.023678
v 0.666736 0.085027 -0.023678
v 0.611410 -0.132719 -0.023678
v 0.715864 0.057691 -0.023678
v 0.625409 0.103730 -0.023678
v 0.651488 -0.144171 -0.023678
v 0.586308 0.118872 -0.023678
v 0.765731 0.025372 -0.023678
v 0.518880 -0.115913 -0.023678
v 0.697846 -0.160423 -0.023678
v 0.552462 0.130094 -0.023678
v 0.815413 -0.013968 -0.023678
v 0.751406 -0.182772 -0.023678
v 0.861955 -0.057925 -0.023678
v 0.784466 -0.199393 -0.023678
v 0.896861 -0.095970 -0.023678
v 0.820111 -0.219525 -0.023678
v 0.928997 -0.136788 -0.023678
v 0.853540 -0.241872 -0.023678
v 0.961134 -0.185730 -0.023678
v 0.886415 -0.265882 -0.023678
v 0.991608 -0.241692 -0.023678
v 0.918551 -0.291184 -0.023678
v 0.951611 -0.322398 -0.023678
v 1.011370 -0.286572 -0.023678
v 0.996121 -0.370047 -0.023678
v 1.038150 -0.364697 -0.023678
v 1.024194 -0.404954 -0.023678
v 1.054033 -0.443790 -0.007872
v 1.054033 -0.443790 0.007872
v 1.038150 -0.364697 0.023678
v 1.024194 -0.404954 0.023678
v 0.996121 -0.370047 0.023678
v 1.011370 -0.286572 0.023678
v 0.951611 -0.322398 0.023678
v 0.991608 -0.241692 0.023678
v 0.918551 -0.291184 0.023678
v 0.886415 -0.265882 0.023678
v 0.961134 -0.185730 0.023678
v 0.853540 -0.241872 0.023678
v 0.928997 -0.136788 0.023678
v 0.820111 -0.219525 0.023678
v 0.896861 -0.095970 0.023678
v 0.784466 -0.199393 0.023678
v 0.861955 -0.057925 0.023678
v 0.751406 -0.182772 0.023678
v 0.815413 -0.013968 0.023678
v 0.697846 -0.160423 0.023678
v 0.765731 0.025372 0.023678
v 0.651488 -0.144171 0.023678
v 0.715864 0.057691 0.023678
v 0.611410 -0.132719 0.023678
v 0.666736 0.085027 0.023678
v 0.559327 -0.122193 0.023678
v 0.625409 0.103730 0.023678
v 0.586308 0.118872 0.023678
v 0.518880 -0.115913 0.023678
v 0.552462 0.130094 0.023678
v 0.467351 -0.111665 0.023678
v 0.505167 0.142208 0.023678
v 0.466601 0.149868 0.023678
v 0.346660 -0.064443 0.023678
v 0.380753 0.159368 0.023678
v 0.413422 -0.111295 0.023678
v 0.346066 -0.113697 0.023678
v 0.466601 0.149868 -0.023678
v 0.346660 -0.064443 -0.023678
v 0.380753 0.159368 -0.023678
v 0.413422 -0.111295 -0.023678
v 0.346066 -0.113697 -0.023678
v 0.467351 -0.111665 -0.023678
v 0.505167 0.142208 -0.023678
v 0.346066 -0.113697 -0.023678
v 0.413422 -0.150451 -0.000000
v 0.346066 -0.152852 -0.000000
v 0.413422 -0.111295 -0.023678
v 0.467351 -0.111665 -0.023678
v 0.467351 -0.150820 -0.000000
v 0.518880 -0.115913 -0.023678
v 0.518880 -0.155068 -0.000000
v 0.559327 -0.122193 -0.023678
v 0.559327 -0.161348 -0.000000
v 0.611410 -0.132719 -0.023678
v 0.611410 -0.171875 0.000000
v 0.651488 -0.144171 -0.023678
v 0.651488 -0.183326 0.000000
v 0.697846 -0.160423 -0.023678
v 0.697846 -0.199579 0.000000
v 0.751406 -0.182772 -0.023678
v 0.751406 -0.221927 0.000000
v 0.784466 -0.199393 -0.023678
v 0.784466 -0.238549 0.000000
v 0.820111 -0.219525 -0.023678
v 0.820111 -0.258681 0.000000
v 0.853540 -0.241872 -0.023678
v 0.853540 -0.281027 0.000000
v 0.886415 -0.265882 -0.023678
v 0.886415 -0.305037 0.000000
v 0.918551 -0.291184 -0.023678
v 0.918551 -0.330341 0.000000
v 0.951611 -0.322398 -0.023678
v 0.951611 -0.361553 0.000000
v 0.996121 -0.370047 -0.023678
v 0.996121 -0.409203 0.000000
v 1.024194 -0.404954 -0.023678
v 1.024194 -0.444109 0.000000
v 1.054033 -0.443790 -0.007872
v 1.061754 -0.482946 0.000000
v 1.024194 -0.444109 0.000000
v 1.054033 -0.443790 0.007872
v 1.024194 -0.404954 0.023678
v 1.061754 -0.482946 0.000000
v 0.996121 -0.409203 0.000000
v 0.996121 -0.370047 0.023678
v 0.951611 -0.361553 0.000000
v 0.951611 -0.322398 0.023678
v 0.918551 -0.330341 0.000000
v 0.918551 -0.291184 0.023678
v 0.886415 -0.305037 0.000000
v 0.886415 -0.265882 0.023678
v 0.853540 -0.281027 0.000000
v 0.853540 -0.241872 0.023678
v 0.820111 -0.258681 0.000000
v 0.820111 -0.219525 0.023678
v 0.784466 -0.238549 0.000000
v 0.784466 -0.199393 0.023678
v 0.751406 -0.221927 0.000000
v 0.751406 -0.182772 0.023678
v 0.697846 -0.199579 0.000000
v 0.697846 -0.160423 0.023678
v 0.651488 -0.183326 0.000000
v 0.651488 -0.144171 0.023678
v 0.611410 -0.171875 0.000000
v 0.611410 -0.132719 0.023678
v 0.559327 -0.161348 -0.000000
v 0.559327 -0.122193 0.023678
v 0.518880 -0.155068 -0.000000
v 0.518880 -0.115913 0.023678
v 0.467351 -0.150820 -0.000000
v 0.467351 -0.111665 0.023678
v 0.413422 -0.150451 -0.000000
v 0.413422 -0.111295 0.023678
v 0.346066 -0.113697 0.023678
v 0.346066 -0.152852 -0.000000
v 0.346660 -0.064443 -0.000000
v 0.346066 -0.152852 -0.000000
v 0.346066 -0.113697 0.023678
v 0.346660 -0.064443 0.023678
v 0.380753 0.159368 0.023678
v 0.380753 0.159368 -0.000000
v 0.346660 -0.064443 -0.023678
v 0.380753 0.159368 -0.023678
v 0.346066 -0.113697 -0.023678
v 0.346066 -0.152852 -0.000000
v -0.232317 0.098313 0.024456
v -0.174683 0.105457 0.039162
v -0.178752 0.118880 0.024441
v -0.178752 0.118880 -0.024441
v -0.227707 0.085064 0.039162
v -0.174683 0.105457 -0.039162
v -0.232317 0.098313 -0.024456
v -0.227707 0.085064 -0.039162
v -0.282770 0.067875 0.039162
v -0.282770 0.067875 -0.039162
v -0.287419 0.081108 -0.024446
v -0.381827 0.029125 -0.039162
v -0.287419 0.081108 0.024446
v -0.381827 0.029125 0.039162
v -0.388076 0.041693 0.024379
v -0.473366 -0.026754 0.039162
v -0.388076 0.041693 -0.024379
v -0.473366 -0.026754 -0.039162
v -0.486217 -0.021158 0.024381
v -0.486217 -0.021158 -0.024381
v -0.468414 -0.052101 -0.039162
v -0.468414 -0.052101 0.039162
v -0.475951 -0.063875 -0.024544
v -0.428269 -0.056459 -0.024357
v -0.475951 -0.063875 0.024544
v -0.428269 -0.056459 0.024357
v -0.429938 -0.042507 0.039162
v -0.429938 -0.042507 -0.039162
v -0.398938 -0.056345 0.024473
v -0.397075 -0.042434 0.039162
v -0.398938 -0.056345 -0.024473
v -0.397075 -0.042434 -0.039162
v -0.370201 -0.064310 0.024462
v -0.365260 -0.051174 0.039162
v -0.370201 -0.064310 -0.024462
v -0.365260 -0.051174 -0.039162
v -0.338450 -0.079623 0.024471
v -0.330649 -0.067956 0.039162
v -0.338450 -0.079623 -0.024471
v -0.330649 -0.067956 -0.039162
v -0.306535 -0.107933 0.024309
v -0.295338 -0.099422 0.039162
v -0.306535 -0.107933 -0.024309
v -0.295338 -0.099422 -0.039162
v -0.261076 -0.170042 0.039162
v -0.261076 -0.170042 -0.039162
v -0.263195 -0.183795 0.024823
v -0.263195 -0.183795 -0.024823
v -0.218428 -0.145153 0.024288
v 0.343032 -0.143057 0.039162
v 0.285155 -0.166506 0.024480
v 0.353244 -0.152652 0.024407
v 0.366933 -0.075264 0.024413
v 0.291686 -0.154128 0.039162
v 0.353521 -0.071095 0.039162
v 0.353244 -0.152652 -0.024407
v 0.253080 -0.095734 0.024371
v 0.265507 -0.089185 0.039162
v 0.285155 -0.166506 -0.024480
v 0.392954 -0.021904 0.024489
v 0.381781 -0.013411 0.039162
v 0.431309 0.030583 0.039162
v 0.343032 -0.143057 -0.039162
v 0.439072 0.018883 0.024430
v 0.366933 -0.075264 -0.024413
v 0.291686 -0.154128 -0.039162
v 0.353521 -0.071095 -0.039162
v 0.253080 -0.095734 -0.024371
v 0.265507 -0.089185 -0.039162
v 0.392954 -0.021904 -0.024489
v 0.381781 -0.013411 -0.039162
v 0.431309 0.030583 -0.039162
v 0.470057 0.048937 0.039162
v 0.439072 0.018883 -0.024430
v 0.470057 0.048937 -0.039162
v 0.481416 0.040725 0.024398
v 0.481416 0.040725 -0.024398
v 0.486217 0.084638 -0.024434
v 0.486217 0.084638 0.024434
v 0.473845 0.078072 0.039162
v 0.473845 0.078072 -0.039162
v 0.443656 0.107697 0.024480
v 0.433057 0.098466 0.039162
v 0.443656 0.107697 -0.024480
v 0.433057 0.098466 -0.039162
v 0.417616 0.143623 0.039162
v 0.417616 0.143623 -0.039162
v 0.431622 0.144844 -0.024349
v 0.421694 0.167514 -0.039162
v 0.431622 0.144844 0.024349
v 0.421694 0.167514 0.039162
v 0.432598 0.176229 0.024639
v 0.432598 0.176229 -0.024639
v 0.379303 0.183795 0.024305
v 0.380907 0.169844 0.039162
v 0.324386 0.152655 0.039162
v 0.379303 0.183795 -0.024305
v 0.380907 0.169844 -0.039162
v 0.324386 0.152655 -0.039162
v 0.320762 0.166208 0.024454
v 0.264078 0.138670 0.039162
v 0.320762 0.166208 -0.024454
v 0.264078 0.138670 -0.039162
v 0.261605 0.152482 -0.024457
v 0.229700 0.134301 -0.039162
v 0.261605 0.152482 0.024457
v 0.229700 0.134301 0.039162
v 0.229971 0.148332 0.024480
v 0.229971 0.148332 -0.024480
v 0.177378 0.157184 0.024457
v 0.173762 0.143623 0.039162
v 0.177378 0.157184 -0.024457
v 0.173762 0.143623 -0.039162
v 0.126856 0.161104 0.039162
v 0.126856 0.161104 -0.039162
v 0.128749 0.174995 0.024433
v 0.057165 0.169189 0.024437
v 0.058974 0.155276 0.039162
v 0.128749 0.174995 -0.024433
v 0.002453 0.145372 0.039162
v 0.057165 0.169189 -0.024437
v 0.058974 0.155276 -0.039162
v 0.002453 0.145372 -0.039162
v -0.000300 0.159127 0.024447
v -0.000300 0.159127 -0.024447
v -0.227863 -0.134732 0.039162
v -0.218428 -0.145153 -0.024288
v -0.227863 -0.134732 -0.039162
v -0.196050 -0.127173 0.024499
v -0.201992 -0.114455 0.039162
v -0.196050 -0.127173 -0.024499
v -0.201992 -0.114455 -0.039162
v -0.180666 -0.109909 0.039162
v -0.180666 -0.109909 -0.039162
v -0.179199 -0.123866 0.024461
v -0.179199 -0.123866 -0.024461
v -0.150591 -0.123788 0.024469
v -0.148502 -0.109909 0.039162
v -0.150591 -0.123788 -0.024469
v -0.148502 -0.109909 -0.039162
v -0.115280 -0.134404 0.024405
v -0.114589 -0.120398 0.039162
v -0.115280 -0.134404 -0.024405
v -0.114589 -0.120398 -0.039162
v -0.099486 -0.117377 0.039162
v -0.099486 -0.117377 -0.039162
v -0.091639 -0.128986 0.024436
v -0.091639 -0.128986 -0.024436
v -0.071822 -0.100465 0.024442
v -0.082369 -0.091199 0.039162
v -0.071822 -0.100465 -0.024442
v -0.082369 -0.091199 -0.039162
v -0.042743 -0.075227 -0.024486
v -0.049646 -0.063005 -0.039162
v -0.042743 -0.075227 0.024486
v -0.049646 -0.063005 0.039162
v -0.017426 -0.052433 -0.039162
v -0.017426 -0.052433 0.039162
v -0.015627 -0.066354 0.024479
v -0.015627 -0.066354 -0.024479
v 0.020849 -0.068552 0.024422
v 0.024360 -0.054950 0.039162
v 0.020849 -0.068552 -0.024422
v 0.024360 -0.054950 -0.039162
v 0.067894 -0.088978 0.024482
v 0.066145 -0.075089 0.039162
v 0.067894 -0.088978 -0.024482
v 0.066145 -0.075089 -0.039162
v 0.086766 -0.075778 0.024379
v 0.076214 -0.066529 0.039162
v 0.086766 -0.075778 -0.024379
v 0.076214 -0.066529 -0.039162
v 0.101078 -0.052946 0.024486
v 0.090814 -0.043371 0.039162
v 0.101078 -0.052946 -0.024486
v 0.090814 -0.043371 -0.039162
v 0.113468 -0.026758 0.039162
v 0.113468 -0.026758 -0.039162
v 0.120732 -0.038764 -0.024457
v 0.120732 -0.038764 0.024457
v 0.141818 -0.028220 -0.024489
v 0.138137 -0.014675 -0.039162
v 0.141818 -0.028220 0.024489
v 0.138137 -0.014675 0.039162
v 0.164819 -0.012662 -0.039162
v 0.164819 -0.012662 0.039162
v 0.164382 -0.026689 0.024460
v 0.164382 -0.026689 -0.024460
v 0.193030 -0.030484 0.024482
v 0.197543 -0.017192 0.039162
v 0.193030 -0.030484 -0.024482
v 0.197543 -0.017192 -0.039162
v 0.220675 -0.046070 -0.024502
v 0.230266 -0.035820 -0.039162
v 0.220675 -0.046070 0.024502
v 0.230266 -0.035820 0.039162
v 0.229700 0.134301 -0.039162
v 0.164819 -0.012662 -0.039162
v 0.173762 0.143623 -0.039162
v 0.197543 -0.017192 -0.039162
v 0.138137 -0.014675 -0.039162
v 0.126856 0.161104 -0.039162
v 0.058974 0.155276 -0.039162
v 0.113468 -0.026758 -0.039162
v 0.230266 -0.035820 -0.039162
v 0.002453 0.145372 -0.039162
v 0.264078 0.138670 -0.039162
v 0.090814 -0.043371 -0.039162
v 0.024360 -0.054950 -0.039162
v 0.076214 -0.066529 -0.039162
v 0.066145 -0.075089 -0.039162
v -0.017426 -0.052433 -0.039162
v -0.174683 0.105457 -0.039162
v -0.049646 -0.063005 -0.039162
v -0.082369 -0.091199 -0.039162
v -0.148502 -0.109909 -0.039162
v -0.114589 -0.120398 -0.039162
v -0.099486 -0.117377 -0.039162
v -0.227707 0.085064 -0.039162
v -0.180666 -0.109909 -0.039162
v -0.201992 -0.114455 -0.039162
v -0.282770 0.067875 -0.039162
v -0.295338 -0.099422 -0.039162
v -0.227863 -0.134732 -0.039162
v -0.261076 -0.170042 -0.039162
v -0.330649 -0.067956 -0.039162
v -0.381827 0.029125 -0.039162
v -0.365260 -0.051174 -0.039162
v -0.397075 -0.042434 -0.039162
v -0.429938 -0.042507 -0.039162
v -0.473366 -0.026754 -0.039162
v -0.468414 -0.052101 -0.039162
v 0.381781 -0.013411 -0.039162
v 0.324386 0.152655 -0.039162
v 0.353521 -0.071095 -0.039162
v 0.265507 -0.089185 -0.039162
v 0.343032 -0.143057 -0.039162
v 0.291686 -0.154128 -0.039162
v 0.433057 0.098466 -0.039162
v 0.431309 0.030583 -0.039162
v 0.470057 0.048937 -0.039162
v 0.473845 0.078072 -0.039162
v 0.417616 0.143623 -0.039162
v 0.380907 0.169844 -0.039162
v 0.421694 0.167514 -0.039162
v -0.180666 -0.109909 0.039162
v -0.227707 0.085064 0.039162
v -0.201992 -0.114455 0.039162
v -0.148502 -0.109909 0.039162
v -0.282770 0.067875 0.039162
v -0.174683 0.105457 0.039162
v -0.295338 -0.099422 0.039162
v -0.227863 -0.134732 0.039162
v -0.261076 -0.170042 0.039162
v -0.330649 -0.067956 0.039162
v -0.381827 0.029125 0.039162
v -0.365260 -0.051174 0.039162
v -0.397075 -0.042434 0.039162
v -0.429938 -0.042507 0.039162
v -0.473366 -0.026754 0.039162
v -0.468414 -0.052101 0.039162
v -0.082369 -0.091199 0.039162
v -0.114589 -0.120398 0.039162
v -0.099486 -0.117377 0.039162
v -0.049646 -0.063005 0.039162
v -0.017426 -0.052433 0.039162
v 0.002453 0.145372 0.039162
v 0.024360 -0.054950 0.039162
v 0.066145 -0.075089 0.039162
v 0.076214 -0.066529 0.039162
v 0.090814 -0.043371 0.039162
v 0.113468 -0.026758 0.039162
v 0.058974 0.155276 0.039162
v 0.138137 -0.014675 0.039162
v 0.126856 0.161104 0.039162
v 0.173762 0.143623 0.039162
v 0.164819 -0.012662 0.039162
v 0.229700 0.134301 0.039162
v 0.197543 -0.017192 0.039162
v 0.230266 -0.035820 0.039162
v 0.264078 0.138670 0.039162
v 0.381781 -0.013411 0.039162
v 0.324386 0.152655 0.039162
v 0.353521 -0.071095 0.039162
v 0.265507 -0.089185 0.039162
v 0.343032 -0.143057 0.039162
v 0.291686 -0.154128 0.039162
v 0.433057 0.098466 0.039162
v 0.431309 0.030583 0.039162
v 0.470057 0.048937 0.039162
v 0.473845 0.078072 0.039162
v 0.417616 0.143623 0.039162
v 0.380907 0.169844 0.039162
v 0.421694 0.167514 0.039162
vn 0.4497 0.8932 0.0003
vn 0.5153 0.8570 -0.0000
vn 0.4497 0.8932 0.0005
vn 0.4496 0.8932 -0.0000
vn 0.3874 0.9219 0.0005
vn 0.5153 0.8570 0.0003
vn 0.5830 0.8125 -0.0000
vn 0.5829 0.8125 0.0003
vn 0.6543 0.7562 -0.0000
vn 0.5829 0.8125 0.0005
vn 0.6544 0.7561 0.0003
vn 0.7120 0.7022 0.0004
vn 0.6544 0.7561 0.0005
vn 0.7120 0.7022 0.0005
vn 0.7616 0.6481 0.0003
vn 0.7615 0.6482 0.0005
vn 0.8114 0.5845 0.0004
vn 0.7615 0.6481 0.0004
vn 0.8112 0.5847 0.0006
vn 0.8576 0.5143 0.0003
vn 0.8113 0.5846 0.0004
vn 0.8974 0.4411 0.0005
vn 0.8575 0.5144 0.0004
vn 0.8974 0.4412 0.0006
vn 0.9314 0.3639 0.0005
vn 0.9642 0.2653 -0.0015
vn 0.9314 0.3639 0.0006
vn 0.9653 0.2612 -0.0014
vn 0.9653 0.2612 0.0015
vn 0.9806 0.1959 -0.0073
vn 0.9806 0.1957 -0.0119
vn 0.9642 0.2653 0.0015
vn 0.9806 0.1959 0.0073
vn 0.9806 0.1957 0.0119
vn -0.4869 0.8434 -0.2271
vn 0.0004 1.0000 0.0004
vn 0.0004 0.9738 -0.2273
vn 0.4869 0.8434 -0.2273
vn -0.4999 0.8661 0.0003
vn -0.8660 0.5000 -0.0000
vn -0.8434 0.4869 -0.2272
vn -0.4869 0.8434 0.2272
vn 0.0004 0.9738 0.2273
vn -0.8434 0.4869 0.2273
vn 0.4869 0.8434 0.2272
vn -1.0000 0.0004 0.0004
vn -0.9738 0.0004 -0.2273
vn -0.9738 0.0004 0.2273
vn -0.8434 -0.4869 -0.2273
vn -0.8434 -0.4869 0.2273
vn -0.8661 -0.4999 0.0003
vn -0.4869 -0.8434 -0.2270
vn -0.4869 -0.8434 0.2271
vn -0.4998 -0.8661 0.0004
vn 0.0004 -1.0000 0.0004
vn 0.0004 -0.9738 -0.2273
vn 0.0004 -0.9738 0.2273
vn 0.4869 -0.8434 -0.2272
vn 0.4869 -0.8434 0.2272
vn 0.5000 -0.8660 -0.0000
vn 0.8434 -0.4869 -0.2272
vn 0.8434 -0.4869 0.2271
vn 0.8661 -0.4998 0.0004
vn 1.0000 0.0004 0.0004
vn 0.9738 0.0004 -0.2273
vn 0.9738 0.0004 0.2273
vn 0.8434 0.4869 -0.2272
vn 0.8434 0.4869 0.2272
vn 0.8662 0.4997 0.0005
vn 0.5000 0.8660 -0.0000
vn -0.8660 -0.5000 -0.0000
vn -0.8544 -0.4933 0.1634
vn -0.4999 -0.8661 0.0003
vn -0.4930 -0.8545 0.1636
vn -0.9865 0.0005 0.1637
vn 0.0004 -0.9865 0.1637
vn -1.0000 0.0005 0.0005
vn -0.9865 0.0005 -0.1637
vn -0.8544 -0.4933 -0.1634
vn -0.8544 0.4933 -0.1634
vn -0.4930 -0.8545 -0.1636
vn -0.8545 0.4930 0.1636
vn 0.0004 -0.9865 -0.1637
vn -0.5000 0.8660 -0.0000
vn -0.4929 0.8545 -0.1637
vn -0.4930 0.8545 0.1636
vn 0.0004 0.9865 -0.1636
vn 0.0004 0.9865 0.1636
vn 0.0005 1.0000 0.0005
vn 0.4929 0.8545 -0.1637
vn 0.4929 0.8545 0.1637
vn 0.8545 0.4930 -0.1636
vn 0.8545 0.4930 0.1636
vn 0.8660 0.5000 -0.0000
vn 0.9865 0.0005 -0.1637
vn 0.9865 0.0005 0.1637
vn 1.0000 0.0005 0.0005
vn 0.8660 -0.5000 -0.0000
vn 0.8545 -0.4930 -0.1636
vn 0.8544 -0.4933 0.1634
vn 0.4929 -0.8545 -0.1637
vn 0.4929 -0.8545 0.1637
vn 0.0005 -1.0000 0.0005
vn 0.1099 0.9939 0.0003
vn 0.1528 0.9883 0.0004
vn 0.1100 0.9939 -0.0000
vn 0.1529 0.9882 0.0005
vn 0.2212 0.9752 0.0005
vn 0.1530 0.9882 0.0006
vn 0.2817 0.9595 0.0003
vn 0.2213 0.9752 0.0004
vn 0.2817 0.9595 0.0005
vn 0.3376 0.9413 0.0005
vn 0.3873 0.9219 0.0004
vn 0.0005 0.0005 -1.0000
vn 0.0005 0.0005 1.0000
vn 0.0024 -0.0005 -1.0000
vn 0.0025 -0.0005 -1.0000
vn 0.0025 -0.0005 1.0000
vn 0.0024 -0.0005 1.0000
vn 0.0184 -0.5174 -0.8556
vn 0.0075 -0.5174 -0.8557
vn 0.0074 -0.5174 -0.8557
vn -0.0226 -0.5173 -0.8555
vn -0.0236 -0.5173 -0.8555
vn -0.0601 -0.5165 -0.8542
vn -0.0620 -0.5162 -0.8542
vn -0.0914 -0.5152 -0.8522
vn -0.0932 -0.5152 -0.8520
vn -0.1224 -0.5136 -0.8493
vn -0.1275 -0.5135 -0.8486
vn -0.1597 -0.5108 -0.8447
vn -0.1647 -0.5106 -0.8439
vn -0.1912 -0.5078 -0.8400
vn -0.1978 -0.5075 -0.8386
vn -0.2262 -0.5037 -0.8338
vn -0.2361 -0.5028 -0.8315
vn -0.2623 -0.4993 -0.8257
vn -0.2700 -0.4985 -0.8238
vn -0.2966 -0.4940 -0.8173
vn -0.3105 -0.4919 -0.8134
vn -0.3359 -0.4874 -0.8060
vn -0.3445 -0.4858 -0.8033
vn -0.3613 -0.4825 -0.7979
vn -0.3698 -0.4811 -0.7949
vn -0.3964 -0.4751 -0.7856
vn -0.4197 -0.4697 -0.7767
vn -0.4520 -0.4615 -0.7633
vn -0.4712 -0.4564 -0.7547
vn -0.4998 -0.4481 -0.7412
vn -0.5255 -0.4403 -0.7280
vn -0.4794 -0.4286 -0.7658
vn -0.3210 -0.4021 -0.8575
vn -0.2319 -0.3833 -0.8940
vn -0.3210 -0.4021 0.8575
vn -0.2319 -0.3833 0.8940
vn -0.4794 -0.4286 0.7658
vn -0.5255 -0.4403 0.7280
vn -0.5002 -0.4481 0.7410
vn -0.4712 -0.4564 0.7547
vn -0.4520 -0.4615 0.7633
vn -0.4197 -0.4697 0.7767
vn -0.3960 -0.4752 0.7858
vn -0.3698 -0.4811 0.7949
vn -0.3613 -0.4825 0.7979
vn -0.3445 -0.4858 0.8033
vn -0.3359 -0.4874 0.8060
vn -0.3105 -0.4919 0.8134
vn -0.2968 -0.4941 0.8172
vn -0.2700 -0.4986 0.8237
vn -0.2623 -0.4993 0.8257
vn -0.2359 -0.5026 0.8317
vn -0.2262 -0.5037 0.8338
vn -0.1980 -0.5072 0.8388
vn -0.1911 -0.5078 0.8400
vn -0.1648 -0.5106 0.8439
vn -0.1597 -0.5108 0.8447
vn -0.1275 -0.5135 0.8486
vn -0.1224 -0.5136 0.8493
vn -0.0932 -0.5152 0.8520
vn -0.0914 -0.5152 0.8522
vn -0.0620 -0.5162 0.8542
vn -0.0601 -0.5165 0.8542
vn -0.0236 -0.5173 0.8555
vn -0.0226 -0.5173 0.8555
vn 0.0075 -0.5174 0.8557
vn 0.0074 -0.5174 0.8557
vn 0.0184 -0.5174 0.8556
vn -0.9968 0.0797 0.0005
vn -0.9999 0.0083 -0.0074
vn -0.9999 0.0083 -0.0073
vn -0.9968 0.0796 -0.0034
vn -0.9885 0.1510 0.0005
vn -0.9968 0.0796 0.0034
vn -0.9885 0.1509 0.0004
vn -0.9999 0.0083 0.0073
vn -0.9999 0.0083 0.0074
vn -0.3047 0.8760 0.3740
vn -0.2099 0.6927 0.6900
vn -0.2704 0.8905 0.3660
vn -0.2705 0.8904 -0.3660
vn -0.2379 0.6836 0.6900
vn -0.2099 0.6927 -0.6900
vn -0.3047 0.8760 -0.3739
vn -0.2381 0.6837 -0.6898
vn -0.2402 0.6833 0.6895
vn -0.2401 0.6832 -0.6896
vn -0.3082 0.8770 -0.3687
vn -0.3338 0.6605 -0.6726
vn -0.3082 0.8770 0.3687
vn -0.3338 0.6605 0.6726
vn -0.4236 0.8342 0.3531
vn -0.6692 0.2621 0.6953
vn -0.4236 0.8342 -0.3531
vn -0.6692 0.2621 -0.6953
vn -0.8742 0.3519 0.3346
vn -0.8742 0.3519 -0.3346
vn -0.3848 -0.5618 -0.7324
vn -0.3848 -0.5618 0.7324
vn -0.5215 -0.7776 -0.3513
vn 0.0823 -0.9297 -0.3590
vn -0.5215 -0.7776 0.3512
vn 0.0823 -0.9297 0.3590
vn 0.0765 -0.7455 0.6621
vn 0.0765 -0.7455 -0.6621
vn -0.1228 -0.9150 0.3843
vn -0.0962 -0.7163 0.6911
vn -0.1228 -0.9150 -0.3843
vn -0.0964 -0.7166 -0.6908
vn -0.3260 -0.8663 0.3784
vn -0.2548 -0.6781 0.6894
vn -0.3260 -0.8663 -0.3784
vn -0.2548 -0.6781 -0.6894
vn -0.5117 -0.7688 0.3835
vn -0.4022 -0.6026 0.6893
vn -0.5117 -0.7688 -0.3836
vn -0.4022 -0.6026 -0.6893
vn -0.7304 -0.5811 0.3590
vn -0.6006 -0.4639 0.6512
vn -0.7304 -0.5811 -0.3590
vn -0.6006 -0.4639 -0.6512
vn -0.1013 -0.6103 0.7857
vn -0.1013 -0.6103 -0.7857
vn -0.1513 -0.9110 0.3837
vn -0.1513 -0.9110 -0.3837
vn 0.6073 -0.7154 0.3456
vn 0.5075 -0.5022 0.7002
vn -0.4256 -0.8360 0.3463
vn 0.6733 -0.6573 0.3385
vn 0.8836 -0.2833 0.3728
vn -0.3105 -0.6223 0.7186
vn 0.7048 -0.2217 0.6738
vn 0.6733 -0.6573 -0.3385
vn -0.8194 -0.4444 0.3620
vn -0.6576 -0.3518 0.6662
vn -0.4256 -0.8360 -0.3463
vn 0.7328 -0.5575 0.3901
vn 0.5747 -0.4366 0.6922
vn 0.4097 -0.6096 0.6786
vn 0.5075 -0.5022 -0.7002
vn 0.5210 -0.7669 0.3747
vn 0.8836 -0.2833 -0.3728
vn -0.3105 -0.6223 -0.7186
vn 0.7048 -0.2217 -0.6738
vn -0.8194 -0.4444 -0.3620
vn -0.6576 -0.3518 -0.6662
vn 0.7327 -0.5576 -0.3902
vn 0.5747 -0.4366 -0.6922
vn 0.4097 -0.6096 -0.6786
vn 0.5931 -0.4081 0.6940
vn 0.5210 -0.7669 -0.3747
vn 0.5931 -0.4081 -0.6940
vn 0.7738 -0.5341 0.3404
vn 0.7738 -0.5341 -0.3404
vn 0.8327 0.4359 -0.3415
vn 0.8327 0.4359 0.3415
vn 0.6278 0.3275 0.7061
vn 0.6278 0.3275 -0.7061
vn 0.6995 0.5910 0.4018
vn 0.5513 0.4770 0.6845
vn 0.6995 0.5910 -0.4019
vn 0.5513 0.4770 -0.6845
vn 0.7476 0.0822 0.6590
vn 0.7476 0.0822 -0.6590
vn 0.9237 0.1193 -0.3640
vn 0.5094 0.4203 -0.7509
vn 0.9237 0.1193 0.3640
vn 0.5094 0.4203 0.7509
vn 0.7176 0.5943 0.3631
vn 0.7176 0.5943 -0.3631
vn -0.0769 0.9378 0.3385
vn -0.0662 0.7457 0.6630
vn -0.1863 0.7013 0.6881
vn -0.0769 0.9378 -0.3385
vn -0.0662 0.7457 -0.6630
vn -0.1863 0.7013 -0.6881
vn -0.2381 0.8969 0.3727
vn -0.1278 0.7127 0.6898
vn -0.2381 0.8969 -0.3727
vn -0.1278 0.7127 -0.6898
vn -0.1646 0.9121 -0.3755
vn 0.0139 0.7218 -0.6919
vn -0.1646 0.9121 0.3755
vn 0.0136 0.7221 0.6917
vn 0.0168 0.9226 0.3854
vn 0.0168 0.9226 -0.3854
vn 0.2376 0.8949 0.3776
vn 0.1868 0.7013 0.6880
vn 0.2376 0.8949 -0.3776
vn 0.1868 0.7013 -0.6880
vn 0.0970 0.7138 0.6936
vn 0.0970 0.7138 -0.6936
vn 0.1263 0.9255 0.3571
vn -0.1179 0.9227 0.3669
vn -0.0926 0.7203 0.6875
vn 0.1263 0.9255 -0.3571
vn -0.1423 0.7103 0.6893
vn -0.1180 0.9227 -0.3670
vn -0.0926 0.7203 -0.6875
vn -0.1424 0.7104 -0.6893
vn -0.1823 0.9111 0.3696
vn -0.1825 0.9110 -0.3699
vn 0.5006 -0.5735 0.6484
vn 0.6073 -0.7154 -0.3456
vn 0.5006 -0.5735 -0.6484
vn 0.3869 -0.8324 0.3968
vn 0.3041 -0.6525 0.6941
vn 0.3869 -0.8324 -0.3968
vn 0.3041 -0.6525 -0.6941
vn 0.0745 -0.7217 0.6882
vn 0.0744 -0.7215 -0.6884
vn 0.0921 -0.9210 0.3785
vn 0.0921 -0.9210 -0.3785
vn -0.1346 -0.9136 0.3836
vn -0.1061 -0.7167 0.6892
vn -0.1346 -0.9136 -0.3836
vn -0.1061 -0.7167 -0.6892
vn -0.0341 -0.9360 0.3503
vn -0.0281 -0.7258 0.6873
vn -0.0341 -0.9360 -0.3503
vn -0.0281 -0.7258 -0.6873
vn 0.3998 -0.5929 0.6990
vn 0.3998 -0.5929 -0.6990
vn 0.5243 -0.7761 0.3505
vn 0.5243 -0.7761 -0.3505
vn 0.6901 -0.6174 0.3777
vn 0.5463 -0.4844 0.6833
vn 0.6901 -0.6174 -0.3777
vn 0.5463 -0.4844 -0.6833
vn 0.4535 -0.8013 -0.3901
vn 0.3550 -0.6282 -0.6923
vn 0.4535 -0.8013 0.3901
vn 0.3550 -0.6282 0.6924
vn 0.0928 -0.7172 -0.6907
vn 0.0928 -0.7172 0.6907
vn 0.1174 -0.9141 0.3882
vn 0.1175 -0.9140 -0.3883
vn -0.2195 -0.8996 0.3776
vn -0.1795 -0.7132 0.6776
vn -0.2195 -0.8996 -0.3776
vn -0.1795 -0.7132 -0.6776
vn 0.0989 -0.9310 0.3512
vn 0.0765 -0.6954 0.7146
vn 0.0989 -0.9310 -0.3512
vn 0.0765 -0.6954 -0.7146
vn 0.6841 -0.6408 0.3484
vn 0.5396 -0.4982 0.6786
vn 0.6840 -0.6408 -0.3485
vn 0.5396 -0.4982 -0.6786
vn 0.6722 -0.6292 0.3902
vn 0.5269 -0.4932 0.6922
vn 0.6722 -0.6292 -0.3902
vn 0.5269 -0.4932 -0.6922
vn 0.3753 -0.6210 0.6881
vn 0.3753 -0.6211 -0.6880
vn 0.4800 -0.7923 -0.3767
vn 0.4800 -0.7923 0.3767
vn 0.2416 -0.8880 -0.3912
vn 0.1888 -0.6956 -0.6932
vn 0.2416 -0.8880 0.3912
vn 0.1888 -0.6955 0.6932
vn -0.0232 -0.7250 -0.6884
vn -0.0232 -0.7250 0.6884
vn -0.0291 -0.9251 0.3787
vn -0.0291 -0.9251 -0.3787
vn -0.2928 -0.8733 0.3894
vn -0.2312 -0.6847 0.6912
vn -0.2928 -0.8733 -0.3894
vn -0.2313 -0.6847 -0.6912
vn -0.6281 -0.6702 -0.3953
vn -0.4921 -0.5254 -0.6941
vn -0.6281 -0.6703 0.3952
vn -0.4921 -0.5254 0.6941
vn -0.0000 -0.0000 -1.0000
vn -0.0000 -0.0000 1.0000
vt 0.000000 0.000000
s 1
f 1/1/1 2/1/2 3/1/3
f 4/1/4 5/1/5 3/1/3
f 6/1/6 3/1/3 2/1/2
f 3/1/3 6/1/6 4/1/4
f 2/1/2 7/1/7 6/1/6
f 8/1/6 4/1/4 6/1/6
f 9/1/8 6/1/6 7/1/7
f 6/1/6 9/1/8 8/1/6
f 7/1/7 10/1/9 9/1/8
f 11/1/10 8/1/6 9/1/8
f 12/1/11 9/1/8 10/1/9
f 9/1/8 12/1/11 11/1/10
f 10/1/9 13/1/12 12/1/11
f 14/1/13 11/1/10 12/1/11
f 15/1/14 12/1/11 13/1/12
f 12/1/11 15/1/14 14/1/13
f 15/1/14 13/1/12 16/1/15
f 17/1/12 14/1/13 15/1/14
f 18/1/16 15/1/14 16/1/15
f 17/1/12 15/1/14 18/1/16
f 18/1/16 16/1/15 19/1/17
f 20/1/18 17/1/12 18/1/16
f 21/1/19 18/1/16 19/1/17
f 20/1/18 18/1/16 21/1/19
f 19/1/17 22/1/20 21/1/19
f 23/1/21 20/1/18 21/1/19
f 24/1/20 21/1/19 22/1/20
f 21/1/19 24/1/20 23/1/21
f 22/1/20 25/1/22 24/1/20
f 26/1/23 23/1/21 24/1/20
f 27/1/24 24/1/20 25/1/22
f 24/1/20 27/1/24 26/1/23
f 25/1/22 28/1/25 27/1/24
f 29/1/24 26/1/23 27/1/24
f 30/1/25 27/1/24 28/1/25
f 27/1/24 30/1/25 29/1/24
f 28/1/25 31/1/26 30/1/25
f 32/1/27 29/1/24 30/1/25
f 33/1/28 30/1/25 31/1/26
f 30/1/25 34/1/29 32/1/27
f 31/1/26 35/1/30 33/1/28
f 36/1/30 33/1/28 35/1/30
f 36/1/30 35/1/30 37/1/31
f 38/1/32 32/1/27 34/1/29
f 34/1/29 39/1/33 38/1/32
f 39/1/33 34/1/29 40/1/33
f 39/1/33 40/1/33 41/1/34
f 42/1/35 43/1/36 44/1/37
f 43/1/36 45/1/38 44/1/37
f 43/1/36 42/1/35 46/1/39
f 42/1/35 47/1/40 46/1/39
f 47/1/40 42/1/35 48/1/41
f 47/1/40 49/1/42 46/1/39
f 49/1/42 43/1/36 46/1/39
f 43/1/36 49/1/42 50/1/43
f 49/1/42 47/1/40 51/1/44
f 52/1/45 43/1/36 50/1/43
f 48/1/41 53/1/46 47/1/40
f 53/1/46 51/1/44 47/1/40
f 53/1/46 48/1/41 54/1/47
f 51/1/44 53/1/46 55/1/48
f 56/1/49 53/1/46 54/1/47
f 53/1/46 57/1/50 55/1/48
f 53/1/46 56/1/49 58/1/51
f 57/1/50 53/1/46 58/1/51
f 59/1/52 58/1/51 56/1/49
f 58/1/51 60/1/53 57/1/50
f 58/1/51 59/1/52 61/1/54
f 60/1/53 58/1/51 61/1/54
f 59/1/52 62/1/55 61/1/54
f 62/1/55 60/1/53 61/1/54
f 62/1/55 59/1/52 63/1/56
f 60/1/53 62/1/55 64/1/57
f 65/1/58 62/1/55 63/1/56
f 62/1/55 66/1/59 64/1/57
f 62/1/55 65/1/58 67/1/60
f 66/1/59 62/1/55 67/1/60
f 68/1/61 67/1/60 65/1/58
f 67/1/60 69/1/62 66/1/59
f 67/1/60 68/1/61 70/1/63
f 69/1/62 67/1/60 70/1/63
f 68/1/61 71/1/64 70/1/63
f 71/1/64 69/1/62 70/1/63
f 71/1/64 68/1/61 72/1/65
f 69/1/62 71/1/64 73/1/66
f 74/1/67 71/1/64 72/1/65
f 71/1/64 75/1/68 73/1/66
f 71/1/64 74/1/67 76/1/69
f 75/1/68 71/1/64 76/1/69
f 74/1/67 77/1/70 76/1/69
f 77/1/70 75/1/68 76/1/69
f 77/1/70 74/1/67 45/1/38
f 75/1/68 77/1/70 52/1/45
f 45/1/38 43/1/36 77/1/70
f 43/1/36 52/1/45 77/1/70
f 78/1/71 79/1/72 80/1/73
f 80/1/73 79/1/72 81/1/74
f 78/1/71 82/1/75 79/1/72
f 83/1/76 80/1/73 81/1/74
f 78/1/71 84/1/77 82/1/75
f 78/1/71 85/1/78 84/1/77
f 86/1/40 82/1/75 84/1/77
f 85/1/78 86/1/40 84/1/77
f 85/1/78 78/1/71 87/1/79
f 80/1/73 87/1/79 78/1/71
f 85/1/78 88/1/80 86/1/40
f 87/1/79 80/1/73 89/1/81
f 82/1/75 86/1/40 90/1/82
f 80/1/73 91/1/83 89/1/81
f 88/1/80 92/1/84 86/1/40
f 92/1/84 90/1/82 86/1/40
f 93/1/85 92/1/84 88/1/80
f 90/1/82 92/1/84 94/1/86
f 95/1/87 92/1/84 93/1/85
f 92/1/84 96/1/88 94/1/86
f 92/1/84 95/1/87 97/1/89
f 92/1/84 97/1/89 96/1/88
f 95/1/87 98/1/70 97/1/89
f 98/1/70 96/1/88 97/1/89
f 98/1/70 95/1/87 99/1/90
f 96/1/88 98/1/70 100/1/91
f 101/1/92 98/1/70 99/1/90
f 98/1/70 102/1/93 100/1/91
f 98/1/70 101/1/92 103/1/94
f 103/1/94 102/1/93 98/1/70
f 104/1/95 103/1/94 101/1/92
f 103/1/94 105/1/96 102/1/93
f 103/1/94 104/1/95 106/1/97
f 103/1/94 106/1/97 105/1/96
f 104/1/95 107/1/98 106/1/97
f 107/1/98 105/1/96 106/1/97
f 104/1/95 108/1/99 107/1/98
f 105/1/96 107/1/98 109/1/100
f 108/1/99 110/1/60 107/1/98
f 110/1/60 109/1/100 107/1/98
f 111/1/101 110/1/60 108/1/99
f 109/1/100 110/1/60 112/1/102
f 91/1/83 110/1/60 111/1/101
f 110/1/60 83/1/76 112/1/102
f 110/1/60 91/1/83 113/1/103
f 110/1/60 113/1/103 83/1/76
f 91/1/83 80/1/73 113/1/103
f 80/1/73 83/1/76 113/1/103
f 114/1/104 115/1/105 116/1/106
f 115/1/105 114/1/104 117/1/107
f 115/1/105 117/1/107 118/1/108
f 119/1/109 116/1/106 115/1/105
f 116/1/106 119/1/109 120/1/104
f 121/1/108 115/1/105 118/1/108
f 119/1/109 115/1/105 121/1/108
f 118/1/108 122/1/110 121/1/108
f 123/1/111 119/1/109 121/1/108
f 124/1/112 121/1/108 122/1/110
f 121/1/108 124/1/112 123/1/111
f 124/1/112 122/1/110 125/1/113
f 126/1/110 123/1/111 124/1/112
f 127/1/113 124/1/112 125/1/113
f 126/1/110 124/1/112 127/1/113
f 127/1/113 125/1/113 128/1/5
f 129/1/113 126/1/110 127/1/113
f 130/1/114 127/1/113 128/1/5
f 129/1/113 127/1/113 130/1/114
f 128/1/5 1/1/1 130/1/114
f 5/1/5 129/1/113 130/1/114
f 3/1/3 130/1/114 1/1/1
f 130/1/114 3/1/3 5/1/5
f 131/1/115 132/1/115 133/1/115
f 134/1/115 133/1/115 132/1/115
f 132/1/115 131/1/115 135/1/115
f 133/1/115 134/1/115 136/1/115
f 137/1/115 135/1/115 131/1/115
f 138/1/115 136/1/115 134/1/115
f 135/1/115 137/1/115 139/1/115
f 136/1/115 138/1/115 140/1/115
f 141/1/115 139/1/115 137/1/115
f 138/1/115 142/1/115 140/1/115
f 139/1/115 141/1/115 143/1/115
f 142/1/115 138/1/115 144/1/115
f 145/1/115 143/1/115 141/1/115
f 146/1/115 142/1/115 144/1/115
f 141/1/115 147/1/115 145/1/115
f 146/1/115 144/1/115 148/1/115
f 147/1/115 149/1/115 145/1/115
f 150/1/115 146/1/115 148/1/115
f 147/1/115 151/1/115 149/1/115
f 148/1/115 152/1/115 150/1/115
f 151/1/115 153/1/115 149/1/115
f 152/1/115 154/1/115 150/1/115
f 153/1/115 151/1/115 154/1/115
f 154/1/115 152/1/115 153/1/115
f 155/1/116 156/1/116 157/1/116
f 158/1/116 157/1/116 156/1/116
f 156/1/116 155/1/116 159/1/116
f 157/1/116 158/1/116 160/1/116
f 161/1/116 159/1/116 155/1/116
f 162/1/116 160/1/116 158/1/116
f 159/1/116 161/1/116 163/1/116
f 160/1/116 162/1/116 164/1/116
f 165/1/116 163/1/116 161/1/116
f 162/1/116 166/1/116 164/1/116
f 163/1/116 165/1/116 167/1/116
f 166/1/116 162/1/116 168/1/116
f 169/1/116 167/1/116 165/1/116
f 170/1/116 166/1/116 168/1/116
f 167/1/116 169/1/116 171/1/116
f 170/1/116 168/1/116 172/1/116
f 173/1/116 171/1/116 169/1/116
f 174/1/116 170/1/116 172/1/116
f 171/1/116 173/1/116 175/1/116
f 172/1/116 176/1/116 174/1/116
f 173/1/116 177/1/116 175/1/116
f 176/1/116 178/1/116 174/1/116
f 177/1/116 173/1/116 178/1/116
f 178/1/116 176/1/116 177/1/116
f 179/1/117 180/1/117 181/1/117
f 182/1/117 181/1/117 180/1/117
f 180/1/117 179/1/117 183/1/117
f 181/1/117 182/1/117 184/1/117
f 179/1/117 185/1/117 183/1/117
f 186/1/117 184/1/117 182/1/117
f 185/1/117 179/1/117 187/1/117
f 184/1/117 186/1/117 188/1/117
f 185/1/117 187/1/117 189/1/117
f 190/1/117 188/1/117 186/1/117
f 188/1/117 190/1/117 191/1/117
f 192/1/117 191/1/117 190/1/117
f 192/1/117 193/1/117 191/1/117
f 193/1/117 192/1/117 194/1/117
f 194/1/117 195/1/117 193/1/117
f 196/1/117 195/1/117 194/1/117
f 195/1/117 196/1/117 197/1/117
f 198/1/117 197/1/117 196/1/117
f 197/1/117 198/1/117 199/1/117
f 200/1/117 199/1/117 198/1/117
f 199/1/117 200/1/117 201/1/117
f 200/1/117 202/1/117 201/1/117
f 202/1/117 200/1/117 203/1/117
f 203/1/117 204/1/117 202/1/117
f 204/1/117 203/1/117 205/1/118
f 205/1/118 206/1/118 204/1/117
f 205/1/118 207/1/118 206/1/118
f 208/1/119 209/1/119 210/1/119
f 209/1/119 211/1/120 210/1/119
f 212/1/120 211/1/120 209/1/119
f 211/1/120 212/1/120 213/1/120
f 214/1/120 213/1/120 212/1/120
f 213/1/120 214/1/120 215/1/120
f 215/1/120 214/1/120 216/1/120
f 217/1/120 216/1/120 214/1/120
f 217/1/120 218/1/120 216/1/120
f 219/1/120 218/1/120 217/1/120
f 219/1/120 220/1/120 218/1/120
f 220/1/120 219/1/120 221/1/120
f 221/1/120 222/1/120 220/1/120
f 223/1/120 222/1/120 221/1/120
f 222/1/120 223/1/120 224/1/120
f 225/1/120 224/1/120 223/1/120
f 224/1/120 225/1/120 226/1/120
f 227/1/120 226/1/120 225/1/120
f 226/1/120 227/1/120 228/1/120
f 229/1/120 228/1/120 227/1/120
f 229/1/120 230/1/120 228/1/120
f 230/1/120 229/1/120 231/1/120
f 231/1/120 232/1/120 230/1/120
f 233/1/120 232/1/120 231/1/120
f 234/1/120 232/1/120 233/1/120
f 232/1/120 234/1/120 235/1/120
f 236/1/120 235/1/120 234/1/120
f 235/1/120 236/1/120 237/1/120
f 238/1/120 237/1/120 236/1/120
f 237/1/120 238/1/120 239/1/120
f 240/1/120 237/1/120 239/1/120
f 240/1/120 239/1/120 241/1/120
f 237/1/120 240/1/120 242/1/120
f 240/1/120 243/1/120 242/1/120
f 244/1/117 245/1/117 246/1/117
f 245/1/117 247/1/117 248/1/117
f 245/1/117 249/1/117 247/1/117
f 249/1/117 245/1/117 244/1/117
f 250/1/117 249/1/117 244/1/117
f 189/1/117 249/1/117 250/1/117
f 249/1/117 189/1/117 187/1/117
f 251/1/121 252/1/122 253/1/121
f 252/1/122 251/1/121 254/1/123
f 255/1/124 252/1/122 254/1/123
f 252/1/122 255/1/124 256/1/125
f 257/1/126 256/1/125 255/1/124
f 256/1/125 257/1/126 258/1/127
f 259/1/128 258/1/127 257/1/126
f 258/1/127 259/1/128 260/1/129
f 261/1/130 260/1/129 259/1/128
f 260/1/129 261/1/130 262/1/131
f 263/1/132 262/1/131 261/1/130
f 262/1/131 263/1/132 264/1/133
f 265/1/134 264/1/133 263/1/132
f 264/1/133 265/1/134 266/1/135
f 267/1/136 266/1/135 265/1/134
f 266/1/135 267/1/136 268/1/137
f 269/1/138 268/1/137 267/1/136
f 269/1/138 270/1/139 268/1/137
f 271/1/140 270/1/139 269/1/138
f 271/1/140 272/1/141 270/1/139
f 273/1/142 272/1/141 271/1/140
f 273/1/142 274/1/143 272/1/141
f 275/1/144 274/1/143 273/1/142
f 275/1/144 276/1/145 274/1/143
f 276/1/145 275/1/144 277/1/146
f 277/1/146 278/1/147 276/1/145
f 278/1/147 277/1/146 279/1/148
f 279/1/148 280/1/149 278/1/147
f 280/1/149 279/1/148 281/1/150
f 282/1/151 280/1/149 281/1/150
f 282/1/151 281/1/150 283/1/152
f 283/1/152 284/1/153 282/1/151
f 284/1/153 283/1/152 285/1/154
f 286/1/154 284/1/153 285/1/154
f 287/1/155 288/1/156 289/1/157
f 288/1/156 287/1/155 290/1/156
f 289/1/157 291/1/158 287/1/155
f 291/1/158 289/1/157 292/1/159
f 292/1/159 293/1/160 291/1/158
f 293/1/160 292/1/159 294/1/161
f 294/1/161 295/1/162 293/1/160
f 295/1/162 294/1/161 296/1/163
f 296/1/163 297/1/164 295/1/162
f 297/1/164 296/1/163 298/1/165
f 298/1/165 299/1/166 297/1/164
f 299/1/166 298/1/165 300/1/167
f 300/1/167 301/1/168 299/1/166
f 301/1/168 300/1/167 302/1/169
f 302/1/169 303/1/170 301/1/168
f 303/1/170 302/1/169 304/1/171
f 304/1/171 305/1/172 303/1/170
f 305/1/172 304/1/171 306/1/173
f 306/1/173 307/1/174 305/1/172
f 307/1/174 306/1/173 308/1/175
f 308/1/175 309/1/176 307/1/174
f 309/1/176 308/1/175 310/1/177
f 310/1/177 311/1/178 309/1/176
f 311/1/178 310/1/177 312/1/179
f 312/1/179 313/1/180 311/1/178
f 313/1/180 312/1/179 314/1/181
f 314/1/181 315/1/182 313/1/180
f 315/1/182 314/1/181 316/1/183
f 316/1/183 317/1/184 315/1/182
f 317/1/184 316/1/183 318/1/185
f 318/1/185 319/1/186 317/1/184
f 319/1/186 318/1/185 320/1/187
f 321/1/188 319/1/186 320/1/187
f 319/1/186 321/1/188 322/1/188
f 323/1/189 324/1/190 325/1/191
f 323/1/189 325/1/191 326/1/192
f 327/1/193 323/1/189 326/1/192
f 328/1/193 323/1/189 327/1/193
f 323/1/189 328/1/193 329/1/194
f 329/1/194 328/1/193 330/1/195
f 331/1/196 323/1/189 329/1/194
f 323/1/189 331/1/196 332/1/197
f 333/1/198 334/1/199 335/1/200
f 336/1/201 333/1/198 335/1/200
f 334/1/199 333/1/198 337/1/202
f 338/1/203 339/1/204 336/1/201
f 339/1/204 333/1/198 336/1/201
f 339/1/204 338/1/203 340/1/205
f 333/1/198 341/1/206 337/1/202
f 342/1/207 339/1/204 340/1/205
f 339/1/204 342/1/207 343/1/208
f 343/1/208 333/1/198 339/1/204
f 344/1/209 343/1/208 342/1/207
f 333/1/198 345/1/210 341/1/206
f 333/1/198 343/1/208 345/1/210
f 346/1/211 341/1/206 345/1/210
f 345/1/210 347/1/212 346/1/211
f 343/1/208 347/1/212 345/1/210
f 348/1/213 346/1/211 347/1/212
f 343/1/208 344/1/209 349/1/214
f 347/1/212 343/1/208 349/1/214
f 350/1/215 349/1/214 344/1/209
f 347/1/212 351/1/216 348/1/213
f 349/1/214 351/1/216 347/1/212
f 349/1/214 350/1/215 352/1/217
f 349/1/214 352/1/217 351/1/216
f 353/1/218 352/1/217 350/1/215
f 351/1/216 354/1/219 348/1/213
f 352/1/217 353/1/218 355/1/220
f 355/1/220 351/1/216 352/1/217
f 353/1/218 356/1/221 355/1/220
f 351/1/216 355/1/220 357/1/222
f 354/1/219 351/1/216 357/1/222
f 356/1/221 357/1/222 355/1/220
f 357/1/222 358/1/223 354/1/219
f 357/1/222 356/1/221 358/1/223
f 354/1/219 358/1/223 359/1/224
f 356/1/221 353/1/218 360/1/225
f 361/1/226 359/1/224 358/1/223
f 356/1/221 361/1/226 358/1/223
f 359/1/224 361/1/226 362/1/227
f 360/1/225 363/1/228 356/1/221
f 356/1/221 363/1/228 361/1/226
f 360/1/225 364/1/229 363/1/228
f 365/1/230 362/1/227 361/1/226
f 363/1/228 365/1/230 361/1/226
f 362/1/227 365/1/230 366/1/231
f 364/1/229 367/1/232 363/1/228
f 363/1/228 367/1/232 365/1/230
f 364/1/229 368/1/233 367/1/232
f 369/1/234 366/1/231 365/1/230
f 367/1/232 369/1/234 365/1/230
f 366/1/231 369/1/234 370/1/235
f 371/1/236 367/1/232 368/1/233
f 367/1/232 371/1/236 369/1/234
f 368/1/233 372/1/237 371/1/236
f 373/1/238 370/1/235 369/1/234
f 371/1/236 373/1/238 369/1/234
f 370/1/235 373/1/238 374/1/239
f 375/1/240 371/1/236 372/1/237
f 371/1/236 375/1/240 373/1/238
f 372/1/237 376/1/241 375/1/240
f 377/1/242 374/1/239 373/1/238
f 378/1/243 375/1/240 376/1/241
f 373/1/238 379/1/244 377/1/242
f 380/1/245 373/1/238 375/1/240
f 373/1/238 380/1/245 379/1/244
f 375/1/240 378/1/243 380/1/245
f 381/1/246 377/1/242 379/1/244
f 380/1/245 381/1/246 379/1/244
f 382/1/247 383/1/248 384/1/249
f 385/1/250 382/1/247 384/1/249
f 383/1/248 382/1/247 386/1/251
f 382/1/247 385/1/250 387/1/252
f 388/1/253 384/1/249 383/1/248
f 388/1/253 385/1/250 384/1/249
f 389/1/254 383/1/248 386/1/251
f 386/1/251 390/1/255 389/1/254
f 391/1/256 388/1/253 383/1/248
f 392/1/257 387/1/252 385/1/250
f 387/1/252 392/1/257 393/1/258
f 394/1/259 393/1/258 392/1/257
f 388/1/253 391/1/256 395/1/260
f 394/1/259 392/1/257 396/1/261
f 397/1/262 385/1/250 388/1/253
f 395/1/260 397/1/262 388/1/253
f 395/1/260 391/1/256 398/1/263
f 395/1/260 399/1/264 397/1/262
f 400/1/265 398/1/263 391/1/256
f 400/1/265 391/1/256 383/1/248
f 398/1/263 400/1/265 401/1/266
f 400/1/265 383/1/248 389/1/254
f 399/1/264 402/1/267 397/1/262
f 402/1/267 385/1/250 397/1/262
f 385/1/250 402/1/267 392/1/257
f 402/1/267 399/1/264 403/1/268
f 402/1/267 396/1/261 392/1/257
f 404/1/269 402/1/267 403/1/268
f 396/1/261 405/1/270 394/1/259
f 402/1/267 404/1/269 406/1/271
f 396/1/261 402/1/267 406/1/271
f 407/1/272 406/1/271 404/1/269
f 396/1/261 408/1/273 405/1/270
f 406/1/271 408/1/273 396/1/261
f 406/1/271 407/1/272 409/1/274
f 408/1/273 406/1/271 409/1/274
f 407/1/272 410/1/275 409/1/274
f 411/1/276 405/1/270 408/1/273
f 409/1/274 411/1/276 408/1/273
f 410/1/275 411/1/276 409/1/274
f 405/1/270 411/1/276 412/1/277
f 407/1/272 413/1/278 410/1/275
f 414/1/279 412/1/277 411/1/276
f 410/1/275 414/1/279 411/1/276
f 412/1/277 414/1/279 415/1/280
f 413/1/278 416/1/281 410/1/275
f 416/1/281 414/1/279 410/1/275
f 413/1/278 417/1/282 416/1/281
f 414/1/279 418/1/283 415/1/280
f 419/1/284 416/1/281 417/1/282
f 416/1/281 419/1/284 420/1/285
f 420/1/285 414/1/279 416/1/281
f 421/1/286 420/1/285 419/1/284
f 414/1/279 422/1/287 418/1/283
f 414/1/279 420/1/285 422/1/287
f 422/1/287 423/1/288 418/1/283
f 420/1/285 424/1/289 422/1/287
f 424/1/289 423/1/288 422/1/287
f 420/1/285 421/1/286 425/1/290
f 425/1/290 424/1/289 420/1/285
f 426/1/291 423/1/288 424/1/289
f 425/1/290 426/1/291 424/1/289
f 423/1/288 426/1/291 427/1/292
f 426/1/291 428/1/293 427/1/292
f 421/1/286 429/1/294 425/1/290
f 426/1/291 425/1/290 429/1/294
f 421/1/286 430/1/295 429/1/294
f 431/1/296 429/1/294 430/1/295
f 426/1/291 432/1/297 428/1/293
f 429/1/294 432/1/297 426/1/291
f 432/1/297 433/1/298 428/1/293
f 429/1/294 431/1/296 434/1/299
f 434/1/299 432/1/297 429/1/294
f 435/1/300 434/1/299 431/1/296
f 434/1/299 435/1/300 436/1/301
f 436/1/301 432/1/297 434/1/299
f 437/1/302 436/1/301 435/1/300
f 432/1/297 438/1/303 433/1/298
f 432/1/297 436/1/301 438/1/303
f 438/1/303 439/1/304 433/1/298
f 436/1/301 440/1/305 438/1/303
f 438/1/303 440/1/305 439/1/304
f 436/1/301 437/1/302 441/1/306
f 441/1/306 440/1/305 436/1/301
f 442/1/307 439/1/304 440/1/305
f 441/1/306 442/1/307 440/1/305
f 439/1/304 442/1/307 443/1/308
f 437/1/302 444/1/309 441/1/306
f 442/1/307 441/1/306 444/1/309
f 437/1/302 445/1/310 444/1/309
f 442/1/307 446/1/311 443/1/308
f 447/1/312 444/1/309 445/1/310
f 446/1/311 442/1/307 448/1/313
f 444/1/309 448/1/313 442/1/307
f 449/1/314 446/1/311 448/1/313
f 446/1/311 449/1/314 450/1/315
f 448/1/313 444/1/309 451/1/316
f 444/1/309 447/1/312 451/1/316
f 451/1/316 449/1/314 448/1/313
f 449/1/314 452/1/317 450/1/315
f 447/1/312 453/1/318 451/1/316
f 453/1/318 449/1/314 451/1/316
f 447/1/312 454/1/319 453/1/318
f 455/1/320 453/1/318 454/1/319
f 449/1/314 456/1/321 452/1/317
f 453/1/318 456/1/321 449/1/314
f 453/1/318 455/1/320 457/1/322
f 457/1/322 456/1/321 453/1/318
f 338/1/203 457/1/322 455/1/320
f 456/1/321 334/1/199 452/1/317
f 457/1/322 338/1/203 336/1/201
f 336/1/201 456/1/321 457/1/322
f 456/1/321 335/1/200 334/1/199
f 456/1/321 336/1/201 335/1/200
f 377/1/242 381/1/246 458/1/323
f 459/1/324 380/1/245 378/1/243
f 380/1/245 459/1/324 381/1/246
f 459/1/324 378/1/243 460/1/325
f 461/1/326 458/1/323 381/1/246
f 459/1/324 461/1/326 381/1/246
f 458/1/323 461/1/326 462/1/327
f 460/1/325 463/1/328 459/1/324
f 463/1/328 461/1/326 459/1/324
f 463/1/328 460/1/325 464/1/329
f 465/1/330 462/1/327 461/1/326
f 466/1/331 463/1/328 464/1/329
f 461/1/326 467/1/332 465/1/330
f 463/1/328 467/1/332 461/1/326
f 463/1/328 466/1/331 468/1/333
f 468/1/333 467/1/332 463/1/328
f 469/1/334 465/1/330 467/1/332
f 468/1/333 469/1/334 467/1/332
f 465/1/330 469/1/334 470/1/335
f 466/1/331 471/1/336 468/1/333
f 468/1/333 471/1/336 469/1/334
f 466/1/331 472/1/337 471/1/336
f 473/1/338 470/1/335 469/1/334
f 471/1/336 473/1/338 469/1/334
f 470/1/335 473/1/338 474/1/339
f 472/1/337 475/1/340 471/1/336
f 471/1/336 475/1/340 473/1/338
f 472/1/337 476/1/341 475/1/340
f 473/1/338 477/1/342 474/1/339
f 478/1/343 475/1/340 476/1/341
f 473/1/338 479/1/344 477/1/342
f 480/1/345 473/1/338 475/1/340
f 473/1/338 480/1/345 479/1/344
f 475/1/340 478/1/343 480/1/345
f 481/1/346 477/1/342 479/1/344
f 480/1/345 481/1/346 479/1/344
f 477/1/342 481/1/346 482/1/347
f 478/1/343 483/1/348 480/1/345
f 480/1/345 483/1/348 481/1/346
f 483/1/348 478/1/343 484/1/349
f 484/1/349 485/1/350 483/1/348
f 485/1/350 481/1/346 483/1/348
f 485/1/350 484/1/349 486/1/351
f 487/1/352 482/1/347 481/1/346
f 481/1/346 485/1/350 487/1/352
f 482/1/347 487/1/352 488/1/353
f 489/1/354 485/1/350 486/1/351
f 490/1/355 488/1/353 487/1/352
f 485/1/350 491/1/356 487/1/352
f 487/1/352 491/1/356 490/1/355
f 492/1/357 491/1/356 485/1/350
f 485/1/350 489/1/354 492/1/357
f 493/1/358 490/1/355 491/1/356
f 492/1/357 493/1/358 491/1/356
f 490/1/355 493/1/358 494/1/359
f 489/1/354 495/1/360 492/1/357
f 492/1/357 495/1/360 493/1/358
f 489/1/354 496/1/361 495/1/360
f 497/1/362 494/1/359 493/1/358
f 495/1/360 497/1/362 493/1/358
f 494/1/359 497/1/362 498/1/363
f 499/1/364 495/1/360 496/1/361
f 495/1/360 499/1/364 497/1/362
f 496/1/361 500/1/365 499/1/364
f 501/1/366 498/1/363 497/1/362
f 499/1/364 501/1/366 497/1/362
f 498/1/363 501/1/366 502/1/367
f 500/1/365 503/1/368 499/1/364
f 503/1/368 501/1/366 499/1/364
f 503/1/368 500/1/365 504/1/369
f 505/1/370 502/1/367 501/1/366
f 503/1/368 505/1/370 501/1/366
f 502/1/367 505/1/370 506/1/371
f 504/1/369 507/1/372 503/1/368
f 507/1/372 505/1/370 503/1/368
f 507/1/372 504/1/369 508/1/373
f 509/1/374 506/1/371 505/1/370
f 510/1/375 507/1/372 508/1/373
f 507/1/372 510/1/375 511/1/376
f 507/1/372 512/1/377 505/1/370
f 509/1/374 505/1/370 512/1/377
f 511/1/376 512/1/377 507/1/372
f 510/1/375 513/1/378 511/1/376
f 513/1/378 512/1/377 511/1/376
f 513/1/378 510/1/375 514/1/379
f 515/1/380 509/1/374 512/1/377
f 512/1/377 513/1/378 515/1/380
f 509/1/374 515/1/380 516/1/381
f 517/1/382 513/1/378 514/1/379
f 518/1/383 516/1/381 515/1/380
f 513/1/378 519/1/384 515/1/380
f 515/1/380 519/1/384 518/1/383
f 520/1/385 519/1/384 513/1/378
f 513/1/378 517/1/382 520/1/385
f 521/1/386 518/1/383 519/1/384
f 520/1/385 521/1/386 519/1/384
f 518/1/383 521/1/386 522/1/387
f 517/1/382 523/1/388 520/1/385
f 520/1/385 523/1/388 521/1/386
f 517/1/382 524/1/389 523/1/388
f 525/1/390 523/1/388 524/1/389
f 525/1/390 521/1/386 523/1/388
f 524/1/389 526/1/391 525/1/390
f 401/1/266 525/1/390 526/1/391
f 525/1/390 401/1/266 400/1/265
f 525/1/390 400/1/265 389/1/254
f 521/1/386 525/1/390 527/1/392
f 525/1/390 389/1/254 527/1/392
f 527/1/392 522/1/387 521/1/386
f 390/1/255 527/1/392 389/1/254
f 522/1/387 527/1/392 528/1/393
f 527/1/392 390/1/255 528/1/393
f 529/1/394 530/1/394 531/1/394
f 530/1/394 529/1/394 532/1/394
f 533/1/394 531/1/394 530/1/394
f 531/1/394 533/1/394 534/1/394
f 533/1/394 535/1/394 534/1/394
f 535/1/394 533/1/394 536/1/394
f 532/1/394 529/1/394 537/1/394
f 535/1/394 536/1/394 538/1/394
f 537/1/394 529/1/394 539/1/394
f 540/1/394 538/1/394 536/1/394
f 538/1/394 540/1/394 541/1/394
f 542/1/394 541/1/394 540/1/394
f 541/1/394 542/1/394 543/1/394
f 538/1/394 541/1/394 544/1/394
f 538/1/394 544/1/394 545/1/394
f 546/1/394 545/1/394 544/1/394
f 547/1/394 545/1/394 546/1/394
f 548/1/394 545/1/394 547/1/394
f 548/1/394 547/1/394 549/1/394
f 549/1/394 547/1/394 550/1/394
f 545/1/394 548/1/394 551/1/394
f 552/1/394 551/1/394 548/1/394
f 553/1/394 551/1/394 552/1/394
f 551/1/394 553/1/394 554/1/394
f 553/1/394 555/1/394 554/1/394
f 555/1/394 553/1/394 556/1/394
f 556/1/394 557/1/394 555/1/394
f 554/1/394 555/1/394 558/1/394
f 558/1/394 559/1/394 554/1/394
f 559/1/394 558/1/394 560/1/394
f 559/1/394 560/1/394 561/1/394
f 562/1/394 559/1/394 561/1/394
f 559/1/394 562/1/394 563/1/394
f 563/1/394 562/1/394 564/1/394
f 539/1/394 565/1/394 537/1/394
f 566/1/394 565/1/394 539/1/394
f 567/1/394 537/1/394 565/1/394
f 537/1/394 567/1/394 568/1/394
f 569/1/394 568/1/394 567/1/394
f 569/1/394 570/1/394 568/1/394
f 571/1/394 565/1/394 566/1/394
f 565/1/394 571/1/394 572/1/394
f 571/1/394 573/1/394 572/1/394
f 571/1/394 574/1/394 573/1/394
f 566/1/394 575/1/394 571/1/394
f 575/1/394 566/1/394 576/1/394
f 576/1/394 577/1/394 575/1/394
f 578/1/395 579/1/395 580/1/395
f 581/1/395 579/1/395 578/1/395
f 582/1/395 580/1/395 579/1/395
f 579/1/395 581/1/395 583/1/395
f 580/1/395 582/1/395 584/1/395
f 580/1/395 584/1/395 585/1/395
f 584/1/395 586/1/395 585/1/395
f 584/1/395 582/1/395 587/1/395
f 588/1/395 587/1/395 582/1/395
f 587/1/395 588/1/395 589/1/395
f 589/1/395 588/1/395 590/1/395
f 588/1/395 591/1/395 590/1/395
f 591/1/395 588/1/395 592/1/395
f 592/1/395 593/1/395 591/1/395
f 581/1/395 594/1/395 583/1/395
f 595/1/395 594/1/395 581/1/395
f 594/1/395 595/1/395 596/1/395
f 597/1/395 583/1/395 594/1/395
f 598/1/395 583/1/395 597/1/395
f 583/1/395 598/1/395 599/1/395
f 600/1/395 599/1/395 598/1/395
f 600/1/395 601/1/395 602/1/395
f 600/1/395 602/1/395 603/1/395
f 603/1/395 599/1/395 600/1/395
f 604/1/395 599/1/395 603/1/395
f 599/1/395 604/1/395 605/1/395
f 606/1/395 605/1/395 604/1/395
f 605/1/395 606/1/395 607/1/395
f 606/1/395 608/1/395 607/1/395
f 608/1/395 606/1/395 609/1/395
f 609/1/395 610/1/395 608/1/395
f 611/1/395 610/1/395 609/1/395
f 612/1/395 610/1/395 611/1/395
f 610/1/395 612/1/395 613/1/395
f 613/1/395 612/1/395 614/1/395
f 613/1/395 614/1/395 615/1/395
f 614/1/395 612/1/395 616/1/395
f 616/1/395 612/1/395 617/1/395
f 617/1/395 618/1/395 616/1/395
f 618/1/395 617/1/395 619/1/395
f 620/1/395 615/1/395 614/1/395
f 620/1/395 614/1/395 621/1/395
f 622/1/395 620/1/395 621/1/395
f 620/1/395 622/1/395 623/1/395
f 624/1/395 615/1/395 620/1/395
f 615/1/395 624/1/395 625/1/395
f 625/1/395 624/1/395 626/1/395
