# Blender 5.1.0
# www.blender.org
mtllib karambart.mtl
o another_boduy
v 0.777357 0.099134 0.027607
v 0.834636 0.067263 0.027607
v 0.777357 0.099134 -0.000000
v 0.777357 0.099134 -0.027607
v 0.729173 0.120940 -0.027607
v 0.834636 0.067263 -0.000000
v 0.892776 0.029582 0.027607
v 0.834636 0.067263 -0.027607
v 0.892776 0.029582 -0.000000
v 0.950701 -0.016285 0.027607
v 0.892776 0.029582 -0.027607
v 0.950701 -0.016285 0.000000
v 1.004965 -0.067536 0.027607
v 0.950701 -0.016285 -0.027607
v 1.004965 -0.067536 0.000000
v 1.045663 -0.111893 0.027607
v 1.004965 -0.067536 -0.027607
v 1.045663 -0.111893 0.000000
v 1.083131 -0.159483 0.027607
v 1.045663 -0.111893 -0.027607
v 1.083131 -0.159483 0.000000
v 1.120600 -0.216545 0.027607
v 1.083131 -0.159483 -0.027607
v 1.120600 -0.216545 0.000000
v 1.156130 -0.281792 0.027607
v 1.120600 -0.216545 -0.027606
v 1.156130 -0.281792 0.000000
v 1.179170 -0.334118 0.027607
v 1.156130 -0.281792 -0.027606
v 1.179170 -0.334118 0.000000
v 1.210394 -0.425205 0.027607
v 1.179170 -0.334118 -0.027606
v 1.210394 -0.425205 0.000000
v 1.210394 -0.425205 0.000000
v 1.228912 -0.517421 0.009178
v 1.228795 -0.517394 0.000000
v 1.237914 -0.563074 0.000000
v 1.210394 -0.425205 -0.027606
v 1.228912 -0.517421 -0.009178
v 1.228795 -0.517394 0.000000
v 1.237914 -0.563074 0.000000
v -0.558840 -0.082262 -0.033540
v -0.478129 -0.052794 0.000000
v -0.478129 -0.060635 -0.033540
v -0.397416 -0.082262 -0.033540
v -0.562761 -0.075472 0.000000
v -0.624715 -0.137426 0.000000
v -0.617925 -0.141346 -0.033540
v -0.558840 -0.082262 0.033540
v -0.478129 -0.060635 0.033540
v -0.617925 -0.141346 0.033540
v -0.397416 -0.082262 0.033540
v -0.647392 -0.222060 0.000000
v -0.639552 -0.222060 -0.033540
v -0.639552 -0.222060 0.033540
v -0.617925 -0.302772 -0.033540
v -0.617925 -0.302772 0.033540
v -0.624715 -0.306691 0.000000
v -0.558840 -0.361857 -0.033540
v -0.558840 -0.361857 0.033540
v -0.562761 -0.368648 0.000000
v -0.478129 -0.391324 0.000000
v -0.478129 -0.383483 -0.033540
v -0.478129 -0.383483 0.033540
v -0.397416 -0.361857 -0.033540
v -0.397416 -0.361857 0.033540
v -0.393496 -0.368648 0.000000
v -0.338331 -0.302772 -0.033540
v -0.338331 -0.302772 0.033540
v -0.331540 -0.306691 0.000000
v -0.308863 -0.222060 0.000000
v -0.316704 -0.222060 -0.033540
v -0.316704 -0.222060 0.033540
v -0.338331 -0.141346 -0.033540
v -0.338331 -0.141346 0.033540
v -0.331540 -0.137426 0.000000
v -0.393496 -0.075472 0.000000
v -0.372219 -0.160912 0.000000
v -0.367409 -0.158136 0.033540
v -0.416981 -0.116151 0.000000
v -0.414204 -0.111339 0.033540
v -0.350280 -0.222060 0.033540
v -0.478129 -0.094211 0.033540
v -0.355835 -0.222060 0.000000
v -0.350280 -0.222060 -0.033540
v -0.372219 -0.283205 0.000000
v -0.367409 -0.158136 -0.033540
v -0.367409 -0.285984 -0.033540
v -0.414204 -0.111339 -0.033540
v -0.367409 -0.285984 0.033540
v -0.478129 -0.094211 -0.033540
v -0.416981 -0.327969 0.000000
v -0.414204 -0.332780 -0.033540
v -0.414204 -0.332780 0.033540
v -0.478129 -0.349906 -0.033540
v -0.478129 -0.349906 0.033540
v -0.478129 -0.344352 0.000000
v -0.539275 -0.327969 0.000000
v -0.542052 -0.332780 -0.033540
v -0.542052 -0.332780 0.033540
v -0.588847 -0.285984 -0.033540
v -0.588847 -0.285984 0.033540
v -0.584037 -0.283205 0.000000
v -0.605976 -0.222060 -0.033540
v -0.605976 -0.222060 0.033540
v -0.600421 -0.222060 0.000000
v -0.584037 -0.160912 0.000000
v -0.588847 -0.158136 -0.033540
v -0.588847 -0.158136 0.033540
v -0.539275 -0.116151 0.000000
v -0.542052 -0.111339 -0.033540
v -0.542052 -0.111339 0.033540
v -0.478129 -0.099766 0.000000
v 0.443925 0.185809 0.027606
v 0.544017 0.174733 -0.000000
v 0.443925 0.185809 -0.000000
v 0.544017 0.174733 0.027606
v 0.588981 0.165802 0.027606
v 0.544017 0.174733 -0.027607
v 0.443925 0.185809 -0.027607
v 0.588981 0.165802 -0.000000
v 0.644123 0.151678 0.027607
v 0.588981 0.165802 -0.027607
v 0.644123 0.151678 -0.000000
v 0.683585 0.138595 0.027607
v 0.644123 0.151678 -0.027607
v 0.683585 0.138595 -0.000000
v 0.729173 0.120940 0.027607
v 0.683585 0.138595 -0.027607
v 0.729173 0.120940 -0.000000
v -0.338331 -0.302772 -0.033540
v -0.350280 -0.222060 -0.033540
v -0.316704 -0.222060 -0.033540
v -0.367409 -0.158136 -0.033540
v -0.367409 -0.285984 -0.033540
v -0.338331 -0.141346 -0.033540
v -0.397416 -0.361857 -0.033540
v -0.414204 -0.111339 -0.033540
v -0.414204 -0.332780 -0.033540
v -0.397416 -0.082262 -0.033540
v -0.478129 -0.383483 -0.033540
v -0.478129 -0.060635 -0.033540
v -0.478129 -0.349906 -0.033540
v -0.478129 -0.094211 -0.033540
v -0.542052 -0.332780 -0.033540
v -0.558840 -0.082262 -0.033540
v -0.558840 -0.361857 -0.033540
v -0.542052 -0.111339 -0.033540
v -0.588847 -0.285984 -0.033540
v -0.617925 -0.141346 -0.033540
v -0.617925 -0.302772 -0.033540
v -0.588847 -0.158136 -0.033540
v -0.605976 -0.222060 -0.033540
v -0.639552 -0.222060 -0.033540
v -0.617925 -0.141346 0.033540
v -0.542052 -0.111339 0.033540
v -0.558840 -0.082262 0.033540
v -0.478129 -0.094211 0.033540
v -0.588847 -0.158136 0.033540
v -0.478129 -0.060635 0.033540
v -0.639552 -0.222060 0.033540
v -0.414204 -0.111339 0.033540
v -0.605976 -0.222060 0.033540
v -0.397416 -0.082262 0.033540
v -0.617925 -0.302772 0.033540
v -0.338331 -0.141346 0.033540
v -0.588847 -0.285984 0.033540
v -0.367409 -0.158136 0.033540
v -0.558840 -0.361857 0.033540
v -0.316704 -0.222060 0.033540
v -0.542052 -0.332780 0.033540
v -0.350280 -0.222060 0.033540
v -0.478129 -0.383483 0.033540
v -0.338331 -0.302772 0.033540
v -0.478129 -0.349906 0.033540
v -0.367409 -0.285984 0.033540
v -0.414204 -0.332780 0.033540
v -0.397416 -0.361857 0.033540
v 0.652127 -0.142467 -0.027607
v 0.777357 0.099134 -0.027607
v 0.712852 -0.154739 -0.027607
v 0.834636 0.067263 -0.027607
v 0.729173 0.120940 -0.027607
v 0.759579 -0.168091 -0.027606
v 0.683585 0.138595 -0.027607
v 0.892776 0.029582 -0.027607
v 0.604970 -0.135145 -0.027607
v 0.813628 -0.187039 -0.027606
v 0.644123 0.151678 -0.027607
v 0.950701 -0.016285 -0.027607
v 0.876075 -0.213096 -0.027606
v 1.004965 -0.067536 -0.027607
v 0.914620 -0.232475 -0.027606
v 1.045663 -0.111893 -0.027607
v 0.956179 -0.255947 -0.027606
v 1.083131 -0.159483 -0.027607
v 0.995154 -0.282002 -0.027606
v 1.120600 -0.216545 -0.027606
v 1.033484 -0.309996 -0.027606
v 1.156130 -0.281792 -0.027606
v 1.070952 -0.339496 -0.027606
v 1.109497 -0.375888 -0.027606
v 1.179170 -0.334118 -0.027606
v 1.161391 -0.431443 -0.027606
v 1.210394 -0.425205 -0.027606
v 1.194122 -0.472142 -0.027606
v 1.228912 -0.517421 -0.009178
v 1.228912 -0.517421 0.009178
v 1.210394 -0.425205 0.027607
v 1.194122 -0.472142 0.027607
v 1.161391 -0.431443 0.027607
v 1.179170 -0.334118 0.027607
v 1.109497 -0.375888 0.027607
v 1.156130 -0.281792 0.027607
v 1.070952 -0.339496 0.027607
v 1.033484 -0.309996 0.027607
v 1.120600 -0.216545 0.027607
v 0.995154 -0.282002 0.027607
v 1.083131 -0.159483 0.027607
v 0.956179 -0.255947 0.027607
v 1.045663 -0.111893 0.027607
v 0.914620 -0.232475 0.027607
v 1.004965 -0.067536 0.027607
v 0.876075 -0.213096 0.027607
v 0.950701 -0.016285 0.027607
v 0.813628 -0.187039 0.027607
v 0.892776 0.029582 0.027607
v 0.759579 -0.168091 0.027607
v 0.834636 0.067263 0.027607
v 0.712852 -0.154739 0.027607
v 0.777357 0.099134 0.027607
v 0.652127 -0.142467 0.027607
v 0.729173 0.120940 0.027607
v 0.683585 0.138595 0.027607
v 0.604970 -0.135145 0.027607
v 0.644123 0.151678 0.027607
v 0.544891 -0.130192 0.027607
v 0.588981 0.165802 0.027606
v 0.544017 0.174733 0.027606
v 0.404176 -0.075135 0.027607
v 0.443925 0.185809 0.027606
v 0.482015 -0.129760 0.027607
v 0.403483 -0.132561 0.027607
v 0.544017 0.174733 -0.027607
v 0.404176 -0.075135 -0.027607
v 0.443925 0.185809 -0.027607
v 0.482015 -0.129760 -0.027607
v 0.403483 -0.132561 -0.027607
v 0.544891 -0.130192 -0.027607
v 0.588981 0.165802 -0.027607
v 0.403483 -0.132561 -0.027607
v 0.482015 -0.175413 0.000000
v 0.403483 -0.178212 0.000000
v 0.482015 -0.129760 -0.027607
v 0.544891 -0.130192 -0.027607
v 0.544891 -0.175843 0.000000
v 0.604970 -0.135145 -0.027607
v 0.604970 -0.180796 0.000000
v 0.652127 -0.142467 -0.027607
v 0.652127 -0.188118 0.000000
v 0.712852 -0.154739 -0.027607
v 0.712852 -0.200391 0.000000
v 0.759579 -0.168091 -0.027606
v 0.759579 -0.213742 0.000000
v 0.813628 -0.187039 -0.027606
v 0.813628 -0.232692 0.000000
v 0.876075 -0.213096 -0.027606
v 0.876075 -0.258748 0.000000
v 0.914620 -0.232475 -0.027606
v 0.914620 -0.278128 0.000000
v 0.956179 -0.255947 -0.027606
v 0.956179 -0.301600 0.000000
v 0.995154 -0.282002 -0.027606
v 0.995154 -0.327653 0.000000
v 1.033484 -0.309996 -0.027606
v 1.033484 -0.355647 0.000000
v 1.070952 -0.339496 -0.027606
v 1.070952 -0.385149 0.000000
v 1.109497 -0.375888 -0.027606
v 1.109497 -0.421540 0.000000
v 1.161391 -0.431443 -0.027606
v 1.161391 -0.477096 0.000000
v 1.194122 -0.472142 -0.027606
v 1.194122 -0.517793 0.000000
v 1.228912 -0.517421 -0.009178
v 1.237914 -0.563074 0.000000
v 1.194122 -0.517793 0.000000
v 1.228912 -0.517421 0.009178
v 1.194122 -0.472142 0.027607
v 1.237914 -0.563074 0.000000
v 1.161391 -0.477096 0.000000
v 1.161391 -0.431443 0.027607
v 1.109497 -0.421540 0.000000
v 1.109497 -0.375888 0.027607
v 1.070952 -0.385149 0.000000
v 1.070952 -0.339496 0.027607
v 1.033484 -0.355647 0.000000
v 1.033484 -0.309996 0.027607
v 0.995154 -0.327653 0.000000
v 0.995154 -0.282002 0.027607
v 0.956179 -0.301600 0.000000
v 0.956179 -0.255947 0.027607
v 0.914620 -0.278128 0.000000
v 0.914620 -0.232475 0.027607
v 0.876075 -0.258748 0.000000
v 0.876075 -0.213096 0.027607
v 0.813628 -0.232692 0.000000
v 0.813628 -0.187039 0.027607
v 0.759579 -0.213742 0.000000
v 0.759579 -0.168091 0.027607
v 0.712852 -0.200391 0.000000
v 0.712852 -0.154739 0.027607
v 0.652127 -0.188118 0.000000
v 0.652127 -0.142467 0.027607
v 0.604970 -0.180796 0.000000
v 0.604970 -0.135145 0.027607
v 0.544891 -0.175843 0.000000
v 0.544891 -0.130192 0.027607
v 0.482015 -0.175413 0.000000
v 0.482015 -0.129760 0.027607
v 0.403483 -0.132561 0.027607
v 0.403483 -0.178212 0.000000
v 0.404176 -0.075135 0.000000
v 0.403483 -0.178212 0.000000
v 0.403483 -0.132561 0.027607
v 0.404176 -0.075135 0.027607
v 0.443925 0.185809 0.027606
v 0.443925 0.185809 -0.000000
v 0.404176 -0.075135 -0.027607
v 0.443925 0.185809 -0.027607
v 0.403483 -0.132561 -0.027607
v 0.403483 -0.178212 0.000000
v -0.270862 0.114625 0.028514
v -0.203665 0.122954 0.045660
v -0.208409 0.138604 0.028496
v -0.208409 0.138604 -0.028496
v -0.265487 0.099177 0.045660
v -0.203665 0.122954 -0.045660
v -0.270862 0.114625 -0.028514
v -0.265487 0.099177 -0.045660
v -0.329686 0.079136 0.045660
v -0.329686 0.079136 -0.045660
v -0.335106 0.094565 -0.028502
v -0.445177 0.033957 -0.045660
v -0.335106 0.094565 0.028502
v -0.445177 0.033957 0.045660
v -0.452463 0.048610 0.028424
v -0.551904 -0.031193 0.045660
v -0.452463 0.048610 -0.028424
v -0.551904 -0.031193 -0.045660
v -0.566887 -0.024668 0.028426
v -0.566887 -0.024668 -0.028426
v -0.546130 -0.060745 -0.045660
v -0.546130 -0.060745 0.045660
v -0.554918 -0.074473 -0.028616
v -0.499325 -0.065826 -0.028398
v -0.554918 -0.074473 0.028616
v -0.499325 -0.065826 0.028398
v -0.501271 -0.049560 0.045660
v -0.501271 -0.049560 -0.045660
v -0.465127 -0.065693 0.028533
v -0.462955 -0.049474 0.045660
v -0.465127 -0.065693 -0.028533
v -0.462955 -0.049474 -0.045660
v -0.431623 -0.074980 0.028521
v -0.425862 -0.059664 0.045660
v -0.431623 -0.074980 -0.028521
v -0.425862 -0.059664 -0.045660
v -0.394604 -0.092834 0.028531
v -0.385508 -0.079231 0.045660
v -0.394604 -0.092834 -0.028531
v -0.385508 -0.079231 -0.045660
v -0.357393 -0.125841 0.028342
v -0.344339 -0.115918 0.045660
v -0.357393 -0.125841 -0.028342
v -0.344339 -0.115918 -0.045660
v -0.304392 -0.198254 0.045660
v -0.304392 -0.198254 -0.045660
v -0.306863 -0.214289 0.028942
v -0.306863 -0.214289 -0.028941
v -0.254668 -0.169236 0.028318
v 0.399946 -0.166792 0.045660
v 0.332466 -0.194132 0.028542
v 0.411852 -0.177979 0.028456
v 0.427812 -0.087751 0.028463
v 0.340081 -0.179700 0.045660
v 0.412175 -0.082891 0.045660
v 0.411852 -0.177979 -0.028456
v 0.295070 -0.111618 0.028415
v 0.309558 -0.103982 0.045660
v 0.332466 -0.194132 -0.028542
v 0.458151 -0.025538 0.028552
v 0.445124 -0.015636 0.045660
v 0.502869 0.035657 0.045660
v 0.399946 -0.166792 -0.045660
v 0.511920 0.022016 0.028483
v 0.427812 -0.087751 -0.028463
v 0.340081 -0.179700 -0.045660
v 0.412175 -0.082891 -0.045660
v 0.295070 -0.111618 -0.028414
v 0.309558 -0.103982 -0.045660
v 0.458151 -0.025538 -0.028552
v 0.445124 -0.015636 -0.045660
v 0.502869 0.035657 -0.045660
v 0.548046 0.057056 0.045660
v 0.511920 0.022016 -0.028483
v 0.548046 0.057056 -0.045660
v 0.561290 0.047482 0.028446
v 0.561290 0.047482 -0.028446
v 0.566887 0.098681 -0.028488
v 0.566887 0.098681 0.028488
v 0.552463 0.091025 0.045660
v 0.552463 0.091025 -0.045660
v 0.517265 0.125565 0.028542
v 0.504907 0.114803 0.045660
v 0.517265 0.125565 -0.028542
v 0.504907 0.114803 -0.045660
v 0.486904 0.167452 0.045660
v 0.486904 0.167452 -0.045660
v 0.503234 0.168876 -0.028389
v 0.491659 0.195307 -0.045660
v 0.503234 0.168876 0.028389
v 0.491659 0.195307 0.045660
v 0.504372 0.205468 0.028727
v 0.504372 0.205468 -0.028727
v 0.442235 0.214289 0.028338
v 0.444105 0.198024 0.045660
v 0.378206 0.177983 0.045660
v 0.442235 0.214289 -0.028338
v 0.444105 0.198024 -0.045660
v 0.378206 0.177983 -0.045660
v 0.373981 0.193784 0.028511
v 0.307892 0.161677 0.045660
v 0.373981 0.193784 -0.028511
v 0.307892 0.161677 -0.045660
v 0.305009 0.177781 -0.028515
v 0.267810 0.156583 -0.045660
v 0.305009 0.177781 0.028515
v 0.267810 0.156583 0.045660
v 0.268126 0.172942 0.028542
v 0.268126 0.172942 -0.028542
v 0.206808 0.183263 0.028515
v 0.202592 0.167452 0.045660
v 0.206808 0.183263 -0.028515
v 0.202592 0.167452 -0.045660
v 0.147903 0.187833 0.045660
v 0.147903 0.187833 -0.045660
v 0.150110 0.204029 0.028487
v 0.066649 0.197260 0.028491
v 0.068759 0.181038 0.045660
v 0.150110 0.204029 -0.028487
v 0.002860 0.169491 0.045660
v 0.066649 0.197260 -0.028491
v 0.068759 0.181038 -0.045660
v 0.002860 0.169491 -0.045660
v -0.000350 0.185528 0.028503
v -0.000350 0.185528 -0.028503
v -0.265669 -0.157086 0.045660
v -0.254668 -0.169236 -0.028318
v -0.265669 -0.157086 -0.045660
v -0.228577 -0.148273 0.028564
v -0.235505 -0.133445 0.045660
v -0.228577 -0.148273 -0.028564
v -0.235505 -0.133445 -0.045660
v -0.210641 -0.128144 0.045660
v -0.210641 -0.128144 -0.045660
v -0.208931 -0.144417 0.028519
v -0.208931 -0.144417 -0.028519
v -0.175576 -0.144326 0.028529
v -0.173141 -0.128144 0.045660
v -0.175576 -0.144326 -0.028529
v -0.173141 -0.128144 -0.045660
v -0.134407 -0.156704 0.028454
v -0.133601 -0.140374 0.045660
v -0.134407 -0.156704 -0.028454
v -0.133601 -0.140374 -0.045660
v -0.115992 -0.136851 0.045660
v -0.115992 -0.136851 -0.045660
v -0.106843 -0.150387 0.028490
v -0.106843 -0.150387 -0.028490
v -0.083738 -0.117134 0.028497
v -0.096035 -0.106330 0.045660
v -0.083738 -0.117134 -0.028497
v -0.096035 -0.106330 -0.045660
v -0.049835 -0.087708 -0.028549
v -0.057883 -0.073458 -0.045660
v -0.049835 -0.087708 0.028549
v -0.057883 -0.073458 0.045660
v -0.020317 -0.061132 -0.045660
v -0.020317 -0.061132 0.045660
v -0.018220 -0.077363 0.028540
v -0.018220 -0.077363 -0.028540
v 0.024308 -0.079926 0.028474
v 0.028402 -0.064067 0.045660
v 0.024308 -0.079926 -0.028474
v 0.028402 -0.064067 -0.045660
v 0.079159 -0.103741 0.028544
v 0.077119 -0.087547 0.045660
v 0.079159 -0.103741 -0.028544
v 0.077119 -0.087547 -0.045660
v 0.101162 -0.088351 0.028424
v 0.088859 -0.077567 0.045660
v 0.101162 -0.088351 -0.028424
v 0.088859 -0.077567 -0.045660
v 0.117848 -0.061730 0.028549
v 0.105881 -0.050567 0.045660
v 0.117848 -0.061730 -0.028549
v 0.105881 -0.050567 -0.045660
v 0.132294 -0.031198 0.045660
v 0.132294 -0.031198 -0.045660
v 0.140763 -0.045195 -0.028515
v 0.140763 -0.045195 0.028515
v 0.165348 -0.032902 -0.028552
v 0.161056 -0.017110 -0.045660
v 0.165348 -0.032902 0.028552
v 0.161056 -0.017110 0.045660
v 0.192165 -0.014763 -0.045660
v 0.192165 -0.014763 0.045660
v 0.191655 -0.031117 0.028518
v 0.191655 -0.031117 -0.028518
v 0.225056 -0.035542 0.028544
v 0.230318 -0.020044 0.045660
v 0.225056 -0.035542 -0.028544
v 0.230318 -0.020044 -0.045660
v 0.257288 -0.053714 -0.028567
v 0.268470 -0.041763 -0.045660
v 0.257288 -0.053714 0.028567
v 0.268470 -0.041763 0.045660
v 0.267810 0.156583 -0.045660
v 0.192165 -0.014763 -0.045660
v 0.202592 0.167452 -0.045660
v 0.230318 -0.020044 -0.045660
v 0.161056 -0.017110 -0.045660
v 0.147903 0.187833 -0.045660
v 0.068759 0.181038 -0.045660
v 0.132294 -0.031198 -0.045660
v 0.268470 -0.041763 -0.045660
v 0.002860 0.169491 -0.045660
v 0.307892 0.161677 -0.045660
v 0.105881 -0.050567 -0.045660
v 0.028402 -0.064067 -0.045660
v 0.088859 -0.077567 -0.045660
v 0.077119 -0.087547 -0.045660
v -0.020317 -0.061132 -0.045660
v -0.203665 0.122954 -0.045660
v -0.057883 -0.073458 -0.045660
v -0.096035 -0.106330 -0.045660
v -0.173141 -0.128144 -0.045660
v -0.133601 -0.140374 -0.045660
v -0.115992 -0.136851 -0.045660
v -0.265487 0.099177 -0.045660
v -0.210641 -0.128144 -0.045660
v -0.235505 -0.133445 -0.045660
v -0.329686 0.079136 -0.045660
v -0.344339 -0.115918 -0.045660
v -0.265669 -0.157086 -0.045660
v -0.304392 -0.198254 -0.045660
v -0.385508 -0.079231 -0.045660
v -0.445177 0.033957 -0.045660
v -0.425862 -0.059664 -0.045660
v -0.462955 -0.049474 -0.045660
v -0.501271 -0.049560 -0.045660
v -0.551904 -0.031193 -0.045660
v -0.546130 -0.060745 -0.045660
v 0.445124 -0.015636 -0.045660
v 0.378206 0.177983 -0.045660
v 0.412175 -0.082891 -0.045660
v 0.309558 -0.103982 -0.045660
v 0.399946 -0.166792 -0.045660
v 0.340081 -0.179700 -0.045660
v 0.504907 0.114803 -0.045660
v 0.502869 0.035657 -0.045660
v 0.548046 0.057056 -0.045660
v 0.552463 0.091025 -0.045660
v 0.486904 0.167452 -0.045660
v 0.444105 0.198024 -0.045660
v 0.491659 0.195307 -0.045660
v -0.210641 -0.128144 0.045660
v -0.265487 0.099177 0.045660
v -0.235505 -0.133445 0.045660
v -0.173141 -0.128144 0.045660
v -0.329686 0.079136 0.045660
v -0.203665 0.122954 0.045660
v -0.344339 -0.115918 0.045660
v -0.265669 -0.157086 0.045660
v -0.304392 -0.198254 0.045660
v -0.385508 -0.079231 0.045660
v -0.445177 0.033957 0.045660
v -0.425862 -0.059664 0.045660
v -0.462955 -0.049474 0.045660
v -0.501271 -0.049560 0.045660
v -0.551904 -0.031193 0.045660
v -0.546130 -0.060745 0.045660
v -0.096035 -0.106330 0.045660
v -0.133601 -0.140374 0.045660
v -0.115992 -0.136851 0.045660
v -0.057883 -0.073458 0.045660
v -0.020317 -0.061132 0.045660
v 0.002860 0.169491 0.045660
v 0.028402 -0.064067 0.045660
v 0.077119 -0.087547 0.045660
v 0.088859 -0.077567 0.045660
v 0.105881 -0.050567 0.045660
v 0.132294 -0.031198 0.045660
v 0.068759 0.181038 0.045660
v 0.161056 -0.017110 0.045660
v 0.147903 0.187833 0.045660
v 0.202592 0.167452 0.045660
v 0.192165 -0.014763 0.045660
v 0.267810 0.156583 0.045660
v 0.230318 -0.020044 0.045660
v 0.268470 -0.041763 0.045660
v 0.307892 0.161677 0.045660
v 0.445124 -0.015636 0.045660
v 0.378206 0.177983 0.045660
v 0.412175 -0.082891 0.045660
v 0.309558 -0.103982 0.045660
v 0.399946 -0.166792 0.045660
v 0.340081 -0.179700 0.045660
v 0.504907 0.114803 0.045660
v 0.502869 0.035657 0.045660
v 0.548046 0.057056 0.045660
v 0.552463 0.091025 0.045660
v 0.486904 0.167452 0.045660
v 0.444105 0.198024 0.045660
v 0.491659 0.195307 0.045660
vn 0.4496 0.8932 -0.0000
vn 0.5153 0.8570 -0.0000
vn 0.4497 0.8932 0.0005
vn 0.3873 0.9219 0.0004
vn 0.5830 0.8125 -0.0000
vn 0.6543 0.7562 -0.0000
vn 0.5829 0.8125 0.0006
vn 0.7121 0.7021 0.0003
vn 0.7120 0.7022 0.0004
vn 0.7616 0.6481 0.0003
vn 0.8116 0.5843 -0.0000
vn 0.8112 0.5847 0.0006
vn 0.8576 0.5143 0.0003
vn 0.8576 0.5144 0.0004
vn 0.8975 0.4411 0.0003
vn 0.8974 0.4412 0.0005
vn 0.9314 0.3639 0.0003
vn 0.9642 0.2653 -0.0015
vn 0.9653 0.2612 -0.0014
vn 0.9653 0.2612 0.0015
vn 0.9806 0.1959 -0.0073
vn 0.9806 0.1957 -0.0119
vn 0.9642 0.2653 0.0015
vn 0.9806 0.1959 0.0073
vn 0.9806 0.1957 0.0119
vn -0.4869 0.8433 -0.2276
vn 0.0002 1.0000 0.0002
vn 0.0004 0.9738 -0.2273
vn 0.4869 0.8433 -0.2276
vn -0.4999 0.8661 0.0003
vn -0.8660 0.5000 -0.0000
vn -0.8433 0.4869 -0.2276
vn -0.4869 0.8434 0.2272
vn 0.0004 0.9738 0.2273
vn -0.8433 0.4869 0.2276
vn 0.4869 0.8434 0.2272
vn -1.0000 0.0002 0.0002
vn -0.9738 0.0004 -0.2273
vn -0.9738 0.0004 0.2273
vn -0.8433 -0.4869 -0.2276
vn -0.8433 -0.4869 0.2276
vn -0.8661 -0.4999 0.0003
vn -0.4869 -0.8434 -0.2271
vn -0.4869 -0.8434 0.2272
vn -0.4998 -0.8661 0.0004
vn 0.0002 -1.0000 0.0002
vn 0.0004 -0.9738 -0.2273
vn 0.0004 -0.9738 0.2273
vn 0.4869 -0.8434 -0.2272
vn 0.4869 -0.8434 0.2272
vn 0.5000 -0.8660 -0.0000
vn 0.8434 -0.4869 -0.2272
vn 0.8434 -0.4869 0.2272
vn 0.8660 -0.5000 -0.0000
vn 1.0000 0.0002 0.0002
vn 0.9738 0.0004 -0.2273
vn 0.9738 0.0004 0.2273
vn 0.8434 0.4869 -0.2272
vn 0.8434 0.4869 0.2272
vn 0.8661 0.4998 0.0003
vn 0.5000 0.8660 -0.0000
vn -0.8660 -0.5000 -0.0000
vn -0.8544 -0.4933 0.1634
vn -0.4999 -0.8661 0.0003
vn -0.4933 -0.8544 0.1634
vn -0.9865 0.0005 0.1637
vn 0.0003 -0.9865 0.1636
vn -1.0000 0.0005 0.0005
vn -0.9865 0.0006 -0.1637
vn -0.8544 -0.4933 -0.1634
vn -0.8544 0.4933 -0.1634
vn -0.4929 -0.8545 -0.1637
vn -0.8545 0.4930 0.1636
vn 0.0003 -0.9865 -0.1636
vn -0.5000 0.8660 -0.0000
vn -0.4929 0.8545 -0.1637
vn -0.4930 0.8545 0.1636
vn 0.0003 0.9865 -0.1635
vn 0.0003 0.9865 0.1635
vn 0.0005 1.0000 0.0005
vn 0.4933 0.8544 -0.1634
vn 0.4930 0.8545 0.1636
vn 0.8546 0.4929 -0.1637
vn 0.8546 0.4929 0.1637
vn 0.8660 0.5000 -0.0000
vn 0.9865 0.0004 -0.1637
vn 0.9865 0.0004 0.1637
vn 1.0000 0.0005 0.0005
vn 0.8544 -0.4933 -0.1634
vn 0.8544 -0.4933 0.1634
vn 0.4930 -0.8545 -0.1636
vn 0.4929 -0.8545 0.1637
vn 0.0005 -1.0000 0.0005
vn 0.1099 0.9939 0.0003
vn 0.1528 0.9883 0.0004
vn 0.1100 0.9939 -0.0000
vn 0.1529 0.9882 0.0006
vn 0.2214 0.9752 0.0003
vn 0.1530 0.9882 0.0006
vn 0.2212 0.9752 0.0005
vn 0.2816 0.9595 -0.0000
vn 0.2216 0.9751 -0.0000
vn 0.3377 0.9412 0.0004
vn 0.2817 0.9595 0.0003
vn 0.3873 0.9220 0.0004
vn 0.3872 0.9220 0.0003
vn 0.0005 0.0005 -1.0000
vn 0.0005 0.0005 1.0000
vn 0.0024 -0.0005 -1.0000
vn 0.0025 -0.0005 -1.0000
vn 0.0025 -0.0005 1.0000
vn 0.0024 -0.0005 1.0000
vn 0.0023 -0.0005 1.0000
vn 0.0023 -0.0005 -1.0000
vn 0.0184 -0.5174 -0.8556
vn 0.0075 -0.5174 -0.8557
vn 0.0074 -0.5174 -0.8557
vn -0.0226 -0.5173 -0.8555
vn -0.0235 -0.5173 -0.8555
vn -0.0601 -0.5165 -0.8542
vn -0.0621 -0.5163 -0.8542
vn -0.0912 -0.5152 -0.8522
vn -0.0932 -0.5152 -0.8520
vn -0.1224 -0.5136 -0.8493
vn -0.1275 -0.5135 -0.8486
vn -0.1597 -0.5108 -0.8447
vn -0.1647 -0.5106 -0.8439
vn -0.1915 -0.5079 -0.8399
vn -0.1980 -0.5072 -0.8388
vn -0.2261 -0.5036 -0.8338
vn -0.2361 -0.5028 -0.8315
vn -0.2623 -0.4993 -0.8257
vn -0.2699 -0.4982 -0.8239
vn -0.2968 -0.4941 -0.8172
vn -0.3105 -0.4919 -0.8134
vn -0.3359 -0.4874 -0.8060
vn -0.3445 -0.4858 -0.8033
vn -0.3613 -0.4825 -0.7979
vn -0.3697 -0.4810 -0.7949
vn -0.3964 -0.4751 -0.7856
vn -0.4197 -0.4697 -0.7767
vn -0.4523 -0.4615 -0.7632
vn -0.4712 -0.4564 -0.7547
vn -0.4999 -0.4481 -0.7411
vn -0.5255 -0.4403 -0.7280
vn -0.4794 -0.4286 -0.7658
vn -0.3210 -0.4021 -0.8575
vn -0.2319 -0.3833 -0.8940
vn -0.2319 -0.3833 -0.8941
vn -0.3210 -0.4021 0.8575
vn -0.2319 -0.3833 0.8940
vn -0.4794 -0.4286 0.7658
vn -0.2319 -0.3833 0.8941
vn -0.5255 -0.4403 0.7280
vn -0.5002 -0.4481 0.7410
vn -0.4712 -0.4564 0.7547
vn -0.4523 -0.4615 0.7632
vn -0.4197 -0.4697 0.7767
vn -0.3964 -0.4751 0.7856
vn -0.3697 -0.4810 0.7949
vn -0.3613 -0.4825 0.7979
vn -0.3445 -0.4858 0.8033
vn -0.3359 -0.4874 0.8060
vn -0.3105 -0.4919 0.8134
vn -0.2968 -0.4941 0.8172
vn -0.2700 -0.4985 0.8238
vn -0.2623 -0.4993 0.8257
vn -0.2358 -0.5025 0.8318
vn -0.2263 -0.5038 0.8337
vn -0.1980 -0.5072 0.8388
vn -0.1915 -0.5079 0.8399
vn -0.1651 -0.5104 0.8440
vn -0.1597 -0.5108 0.8447
vn -0.1276 -0.5134 0.8486
vn -0.1224 -0.5136 0.8493
vn -0.0932 -0.5152 0.8520
vn -0.0914 -0.5152 0.8522
vn -0.0621 -0.5163 0.8542
vn -0.0601 -0.5165 0.8542
vn -0.0235 -0.5173 0.8555
vn -0.0226 -0.5173 0.8555
vn 0.0075 -0.5174 0.8557
vn 0.0074 -0.5174 0.8557
vn 0.0184 -0.5174 0.8556
vn -0.9968 0.0797 0.0005
vn -0.9999 0.0083 -0.0074
vn -0.9999 0.0083 -0.0073
vn -0.9968 0.0796 -0.0034
vn -0.9885 0.1510 0.0004
vn -0.9968 0.0796 0.0034
vn -0.9885 0.1509 0.0005
vn -0.9999 0.0083 0.0073
vn -0.9999 0.0083 0.0074
vn -0.3046 0.8758 0.3743
vn -0.2099 0.6927 0.6900
vn -0.2704 0.8905 0.3660
vn -0.2704 0.8905 -0.3660
vn -0.2379 0.6837 0.6899
vn -0.2099 0.6927 -0.6900
vn -0.3047 0.8760 -0.3738
vn -0.2382 0.6838 -0.6897
vn -0.2402 0.6833 0.6896
vn -0.2399 0.6829 -0.6900
vn -0.3082 0.8770 -0.3687
vn -0.3338 0.6605 -0.6726
vn -0.3082 0.8770 0.3687
vn -0.3338 0.6605 0.6726
vn -0.4236 0.8342 0.3531
vn -0.6692 0.2621 0.6953
vn -0.4236 0.8342 -0.3531
vn -0.6692 0.2621 -0.6953
vn -0.8742 0.3519 0.3346
vn -0.8742 0.3519 -0.3346
vn -0.3848 -0.5618 -0.7324
vn -0.3848 -0.5618 0.7324
vn -0.5215 -0.7776 -0.3513
vn 0.0823 -0.9297 -0.3590
vn -0.5215 -0.7776 0.3512
vn 0.0823 -0.9297 0.3590
vn 0.0765 -0.7455 0.6621
vn 0.0765 -0.7455 -0.6621
vn -0.1228 -0.9150 0.3843
vn -0.0962 -0.7163 0.6911
vn -0.1227 -0.9150 -0.3844
vn -0.0962 -0.7163 -0.6911
vn -0.3260 -0.8663 0.3784
vn -0.2548 -0.6781 0.6894
vn -0.3260 -0.8663 -0.3784
vn -0.2548 -0.6781 -0.6894
vn -0.5117 -0.7688 0.3836
vn -0.4022 -0.6026 0.6893
vn -0.5117 -0.7688 -0.3837
vn -0.4022 -0.6026 -0.6893
vn -0.7304 -0.5811 0.3590
vn -0.6006 -0.4639 0.6512
vn -0.7304 -0.5811 -0.3590
vn -0.6006 -0.4639 -0.6512
vn -0.1013 -0.6103 0.7857
vn -0.1013 -0.6103 -0.7857
vn -0.1513 -0.9110 0.3837
vn -0.1513 -0.9110 -0.3837
vn 0.6073 -0.7154 0.3456
vn 0.5075 -0.5022 0.7002
vn -0.4256 -0.8360 0.3463
vn 0.6733 -0.6573 0.3385
vn 0.8836 -0.2833 0.3728
vn -0.3105 -0.6223 0.7186
vn 0.7048 -0.2217 0.6738
vn 0.6733 -0.6573 -0.3385
vn -0.8194 -0.4444 0.3620
vn -0.6576 -0.3518 0.6662
vn -0.4256 -0.8360 -0.3463
vn 0.7330 -0.5574 0.3899
vn 0.5747 -0.4366 0.6922
vn 0.4097 -0.6096 0.6786
vn 0.5075 -0.5022 -0.7002
vn 0.5210 -0.7669 0.3747
vn 0.8836 -0.2833 -0.3728
vn -0.3105 -0.6223 -0.7186
vn 0.7048 -0.2217 -0.6738
vn -0.8194 -0.4444 -0.3620
vn -0.6576 -0.3518 -0.6662
vn 0.7326 -0.5576 -0.3903
vn 0.5747 -0.4366 -0.6922
vn 0.4097 -0.6096 -0.6786
vn 0.5931 -0.4081 0.6940
vn 0.5210 -0.7669 -0.3747
vn 0.5931 -0.4081 -0.6940
vn 0.7738 -0.5341 0.3404
vn 0.7739 -0.5341 -0.3404
vn 0.8327 0.4359 -0.3415
vn 0.8327 0.4359 0.3415
vn 0.6278 0.3275 0.7061
vn 0.6278 0.3275 -0.7061
vn 0.6995 0.5910 0.4018
vn 0.5513 0.4770 0.6845
vn 0.6994 0.5910 -0.4019
vn 0.5513 0.4770 -0.6845
vn 0.7476 0.0822 0.6590
vn 0.7476 0.0822 -0.6590
vn 0.9237 0.1193 -0.3640
vn 0.5094 0.4203 -0.7509
vn 0.9237 0.1193 0.3640
vn 0.5094 0.4203 0.7509
vn 0.7176 0.5943 0.3631
vn 0.7176 0.5943 -0.3631
vn -0.0769 0.9378 0.3385
vn -0.0662 0.7457 0.6630
vn -0.1863 0.7013 0.6881
vn -0.0769 0.9378 -0.3385
vn -0.0662 0.7457 -0.6630
vn -0.1863 0.7013 -0.6881
vn -0.2381 0.8969 0.3728
vn -0.1278 0.7126 0.6898
vn -0.2381 0.8969 -0.3728
vn -0.1278 0.7127 -0.6898
vn -0.1646 0.9121 -0.3755
vn 0.0139 0.7218 -0.6919
vn -0.1646 0.9121 0.3755
vn 0.0136 0.7221 0.6917
vn 0.0168 0.9227 0.3850
vn 0.0168 0.9227 -0.3850
vn 0.2376 0.8949 0.3777
vn 0.1868 0.7013 0.6880
vn 0.2376 0.8949 -0.3777
vn 0.1868 0.7013 -0.6880
vn 0.0970 0.7138 0.6936
vn 0.0970 0.7138 -0.6936
vn 0.1263 0.9255 0.3571
vn -0.1179 0.9228 0.3669
vn -0.0926 0.7203 0.6875
vn 0.1263 0.9255 -0.3571
vn -0.1423 0.7103 0.6893
vn -0.1182 0.9226 -0.3671
vn -0.0926 0.7203 -0.6875
vn -0.1424 0.7104 -0.6893
vn -0.1823 0.9111 0.3696
vn -0.1823 0.9111 -0.3696
vn 0.5006 -0.5735 0.6484
vn 0.6073 -0.7154 -0.3456
vn 0.5006 -0.5735 -0.6484
vn 0.3869 -0.8324 0.3968
vn 0.3041 -0.6525 0.6941
vn 0.3869 -0.8324 -0.3968
vn 0.3041 -0.6525 -0.6941
vn 0.0744 -0.7215 0.6884
vn 0.0744 -0.7215 -0.6884
vn 0.0921 -0.9210 0.3785
vn 0.0921 -0.9210 -0.3785
vn -0.1346 -0.9136 0.3836
vn -0.1061 -0.7167 0.6892
vn -0.1345 -0.9136 -0.3837
vn -0.1061 -0.7167 -0.6892
vn -0.0345 -0.9360 0.3503
vn -0.0281 -0.7258 0.6873
vn -0.0345 -0.9360 -0.3503
vn -0.0281 -0.7258 -0.6873
vn 0.3998 -0.5929 0.6990
vn 0.3998 -0.5929 -0.6990
vn 0.5243 -0.7760 0.3505
vn 0.5243 -0.7761 -0.3505
vn 0.6901 -0.6173 0.3777
vn 0.5463 -0.4844 0.6833
vn 0.6901 -0.6173 -0.3777
vn 0.5463 -0.4844 -0.6833
vn 0.4535 -0.8013 -0.3901
vn 0.3550 -0.6282 -0.6923
vn 0.4535 -0.8013 0.3901
vn 0.3550 -0.6281 0.6924
vn 0.0928 -0.7172 -0.6907
vn 0.0928 -0.7172 0.6907
vn 0.1174 -0.9141 0.3882
vn 0.1176 -0.9139 -0.3884
vn -0.2195 -0.8996 0.3776
vn -0.1795 -0.7132 0.6776
vn -0.2195 -0.8996 -0.3776
vn -0.1795 -0.7132 -0.6776
vn 0.0989 -0.9310 0.3512
vn 0.0765 -0.6954 0.7146
vn 0.0989 -0.9310 -0.3512
vn 0.0765 -0.6954 -0.7146
vn 0.6838 -0.6409 0.3487
vn 0.5396 -0.4982 0.6786
vn 0.6838 -0.6409 -0.3487
vn 0.5396 -0.4982 -0.6786
vn 0.6722 -0.6292 0.3902
vn 0.5269 -0.4932 0.6922
vn 0.6722 -0.6292 -0.3902
vn 0.5269 -0.4932 -0.6922
vn 0.3754 -0.6209 0.6882
vn 0.3753 -0.6211 -0.6880
vn 0.4800 -0.7923 -0.3767
vn 0.4800 -0.7923 0.3768
vn 0.2416 -0.8880 -0.3912
vn 0.1888 -0.6956 -0.6932
vn 0.2416 -0.8880 0.3912
vn 0.1888 -0.6956 0.6932
vn -0.0231 -0.7249 -0.6885
vn -0.0232 -0.7250 0.6884
vn -0.0291 -0.9251 0.3787
vn -0.0291 -0.9250 -0.3788
vn -0.2928 -0.8733 0.3894
vn -0.2312 -0.6847 0.6912
vn -0.2928 -0.8733 -0.3894
vn -0.2312 -0.6846 -0.6912
vn -0.6281 -0.6702 -0.3953
vn -0.4921 -0.5254 -0.6941
vn -0.6280 -0.6706 0.3948
vn -0.4921 -0.5254 0.6941
vn -0.0000 -0.0000 -1.0000
vn -0.0000 -0.0000 1.0000
vt 0.000000 0.000000
s 1
f 1/1/1 2/1/2 3/1/3
f 4/1/1 5/1/4 3/1/3
f 6/1/2 3/1/3 2/1/2
f 3/1/3 6/1/2 4/1/1
f 2/1/2 7/1/5 6/1/2
f 8/1/2 4/1/1 6/1/2
f 9/1/5 6/1/2 7/1/5
f 6/1/2 9/1/5 8/1/2
f 7/1/5 10/1/6 9/1/5
f 11/1/7 8/1/2 9/1/5
f 12/1/6 9/1/5 10/1/6
f 9/1/5 12/1/6 11/1/7
f 10/1/6 13/1/8 12/1/6
f 14/1/6 11/1/7 12/1/6
f 15/1/9 12/1/6 13/1/8
f 12/1/6 15/1/9 14/1/6
f 15/1/9 13/1/8 16/1/10
f 17/1/9 14/1/6 15/1/9
f 18/1/10 15/1/9 16/1/10
f 17/1/9 15/1/9 18/1/10
f 18/1/10 16/1/10 19/1/11
f 20/1/10 17/1/9 18/1/10
f 21/1/12 18/1/10 19/1/11
f 20/1/10 18/1/10 21/1/12
f 19/1/11 22/1/13 21/1/12
f 23/1/11 20/1/10 21/1/12
f 24/1/14 21/1/12 22/1/13
f 21/1/12 24/1/14 23/1/11
f 22/1/13 25/1/15 24/1/14
f 26/1/13 23/1/11 24/1/14
f 27/1/16 24/1/14 25/1/15
f 24/1/14 27/1/16 26/1/13
f 25/1/15 28/1/17 27/1/16
f 29/1/16 26/1/13 27/1/16
f 30/1/17 27/1/16 28/1/17
f 27/1/16 30/1/17 29/1/16
f 28/1/17 31/1/18 30/1/17
f 32/1/17 29/1/16 30/1/17
f 33/1/19 30/1/17 31/1/18
f 30/1/17 34/1/20 32/1/17
f 31/1/18 35/1/21 33/1/19
f 36/1/21 33/1/19 35/1/21
f 36/1/21 35/1/21 37/1/22
f 38/1/23 32/1/17 34/1/20
f 34/1/20 39/1/24 38/1/23
f 39/1/24 34/1/20 40/1/24
f 39/1/24 40/1/24 41/1/25
f 42/1/26 43/1/27 44/1/28
f 43/1/27 45/1/29 44/1/28
f 43/1/27 42/1/26 46/1/30
f 42/1/26 47/1/31 46/1/30
f 47/1/31 42/1/26 48/1/32
f 47/1/31 49/1/33 46/1/30
f 49/1/33 43/1/27 46/1/30
f 43/1/27 49/1/33 50/1/34
f 49/1/33 47/1/31 51/1/35
f 52/1/36 43/1/27 50/1/34
f 48/1/32 53/1/37 47/1/31
f 53/1/37 51/1/35 47/1/31
f 53/1/37 48/1/32 54/1/38
f 51/1/35 53/1/37 55/1/39
f 56/1/40 53/1/37 54/1/38
f 53/1/37 57/1/41 55/1/39
f 53/1/37 56/1/40 58/1/42
f 57/1/41 53/1/37 58/1/42
f 59/1/43 58/1/42 56/1/40
f 58/1/42 60/1/44 57/1/41
f 58/1/42 59/1/43 61/1/45
f 60/1/44 58/1/42 61/1/45
f 59/1/43 62/1/46 61/1/45
f 62/1/46 60/1/44 61/1/45
f 62/1/46 59/1/43 63/1/47
f 60/1/44 62/1/46 64/1/48
f 65/1/49 62/1/46 63/1/47
f 62/1/46 66/1/50 64/1/48
f 62/1/46 65/1/49 67/1/51
f 66/1/50 62/1/46 67/1/51
f 68/1/52 67/1/51 65/1/49
f 67/1/51 69/1/53 66/1/50
f 67/1/51 68/1/52 70/1/54
f 69/1/53 67/1/51 70/1/54
f 68/1/52 71/1/55 70/1/54
f 71/1/55 69/1/53 70/1/54
f 71/1/55 68/1/52 72/1/56
f 69/1/53 71/1/55 73/1/57
f 74/1/58 71/1/55 72/1/56
f 71/1/55 75/1/59 73/1/57
f 71/1/55 74/1/58 76/1/60
f 75/1/59 71/1/55 76/1/60
f 74/1/58 77/1/61 76/1/60
f 77/1/61 75/1/59 76/1/60
f 77/1/61 74/1/58 45/1/29
f 75/1/59 77/1/61 52/1/36
f 45/1/29 43/1/27 77/1/61
f 43/1/27 52/1/36 77/1/61
f 78/1/62 79/1/63 80/1/64
f 80/1/64 79/1/63 81/1/65
f 78/1/62 82/1/66 79/1/63
f 83/1/67 80/1/64 81/1/65
f 78/1/62 84/1/68 82/1/66
f 78/1/62 85/1/69 84/1/68
f 86/1/31 82/1/66 84/1/68
f 85/1/69 86/1/31 84/1/68
f 85/1/69 78/1/62 87/1/70
f 80/1/64 87/1/70 78/1/62
f 85/1/69 88/1/71 86/1/31
f 87/1/70 80/1/64 89/1/72
f 82/1/66 86/1/31 90/1/73
f 80/1/64 91/1/74 89/1/72
f 88/1/71 92/1/75 86/1/31
f 92/1/75 90/1/73 86/1/31
f 93/1/76 92/1/75 88/1/71
f 90/1/73 92/1/75 94/1/77
f 95/1/78 92/1/75 93/1/76
f 92/1/75 96/1/79 94/1/77
f 92/1/75 95/1/78 97/1/80
f 92/1/75 97/1/80 96/1/79
f 95/1/78 98/1/61 97/1/80
f 98/1/61 96/1/79 97/1/80
f 98/1/61 95/1/78 99/1/81
f 96/1/79 98/1/61 100/1/82
f 101/1/83 98/1/61 99/1/81
f 98/1/61 102/1/84 100/1/82
f 98/1/61 101/1/83 103/1/85
f 103/1/85 102/1/84 98/1/61
f 104/1/86 103/1/85 101/1/83
f 103/1/85 105/1/87 102/1/84
f 103/1/85 104/1/86 106/1/88
f 103/1/85 106/1/88 105/1/87
f 104/1/86 107/1/54 106/1/88
f 107/1/54 105/1/87 106/1/88
f 104/1/86 108/1/89 107/1/54
f 105/1/87 107/1/54 109/1/90
f 108/1/89 110/1/51 107/1/54
f 110/1/51 109/1/90 107/1/54
f 111/1/91 110/1/51 108/1/89
f 109/1/90 110/1/51 112/1/92
f 91/1/74 110/1/51 111/1/91
f 110/1/51 83/1/67 112/1/92
f 110/1/51 91/1/74 113/1/93
f 110/1/51 113/1/93 83/1/67
f 91/1/74 80/1/64 113/1/93
f 80/1/64 83/1/67 113/1/93
f 114/1/94 115/1/95 116/1/96
f 115/1/95 114/1/94 117/1/97
f 115/1/95 117/1/97 118/1/98
f 119/1/99 116/1/96 115/1/95
f 116/1/96 119/1/99 120/1/94
f 121/1/100 115/1/95 118/1/98
f 119/1/99 115/1/95 121/1/100
f 118/1/98 122/1/101 121/1/100
f 123/1/102 119/1/99 121/1/100
f 124/1/101 121/1/100 122/1/101
f 121/1/100 124/1/101 123/1/102
f 124/1/101 122/1/101 125/1/103
f 126/1/104 123/1/102 124/1/101
f 127/1/103 124/1/101 125/1/103
f 126/1/104 124/1/101 127/1/103
f 127/1/103 125/1/103 128/1/105
f 129/1/103 126/1/104 127/1/103
f 130/1/106 127/1/103 128/1/105
f 129/1/103 127/1/103 130/1/106
f 128/1/105 1/1/1 130/1/106
f 5/1/4 129/1/103 130/1/106
f 3/1/3 130/1/106 1/1/1
f 130/1/106 3/1/3 5/1/4
f 131/1/107 132/1/107 133/1/107
f 134/1/107 133/1/107 132/1/107
f 132/1/107 131/1/107 135/1/107
f 133/1/107 134/1/107 136/1/107
f 137/1/107 135/1/107 131/1/107
f 138/1/107 136/1/107 134/1/107
f 135/1/107 137/1/107 139/1/107
f 136/1/107 138/1/107 140/1/107
f 141/1/107 139/1/107 137/1/107
f 138/1/107 142/1/107 140/1/107
f 139/1/107 141/1/107 143/1/107
f 142/1/107 138/1/107 144/1/107
f 145/1/107 143/1/107 141/1/107
f 146/1/107 142/1/107 144/1/107
f 141/1/107 147/1/107 145/1/107
f 146/1/107 144/1/107 148/1/107
f 147/1/107 149/1/107 145/1/107
f 150/1/107 146/1/107 148/1/107
f 147/1/107 151/1/107 149/1/107
f 148/1/107 152/1/107 150/1/107
f 151/1/107 153/1/107 149/1/107
f 152/1/107 154/1/107 150/1/107
f 153/1/107 151/1/107 154/1/107
f 154/1/107 152/1/107 153/1/107
f 155/1/108 156/1/108 157/1/108
f 158/1/108 157/1/108 156/1/108
f 156/1/108 155/1/108 159/1/108
f 157/1/108 158/1/108 160/1/108
f 161/1/108 159/1/108 155/1/108
f 162/1/108 160/1/108 158/1/108
f 159/1/108 161/1/108 163/1/108
f 160/1/108 162/1/108 164/1/108
f 165/1/108 163/1/108 161/1/108
f 162/1/108 166/1/108 164/1/108
f 163/1/108 165/1/108 167/1/108
f 166/1/108 162/1/108 168/1/108
f 169/1/108 167/1/108 165/1/108
f 170/1/108 166/1/108 168/1/108
f 167/1/108 169/1/108 171/1/108
f 170/1/108 168/1/108 172/1/108
f 173/1/108 171/1/108 169/1/108
f 174/1/108 170/1/108 172/1/108
f 171/1/108 173/1/108 175/1/108
f 172/1/108 176/1/108 174/1/108
f 173/1/108 177/1/108 175/1/108
f 176/1/108 178/1/108 174/1/108
f 177/1/108 173/1/108 178/1/108
f 178/1/108 176/1/108 177/1/108
f 179/1/109 180/1/109 181/1/109
f 182/1/109 181/1/109 180/1/109
f 180/1/109 179/1/109 183/1/109
f 181/1/109 182/1/109 184/1/109
f 179/1/109 185/1/109 183/1/109
f 186/1/109 184/1/109 182/1/109
f 185/1/109 179/1/109 187/1/109
f 184/1/109 186/1/109 188/1/109
f 185/1/109 187/1/109 189/1/109
f 190/1/109 188/1/109 186/1/109
f 188/1/109 190/1/109 191/1/109
f 192/1/109 191/1/109 190/1/109
f 192/1/109 193/1/109 191/1/109
f 193/1/109 192/1/109 194/1/109
f 194/1/109 195/1/109 193/1/109
f 196/1/109 195/1/109 194/1/109
f 195/1/109 196/1/109 197/1/109
f 198/1/109 197/1/109 196/1/109
f 197/1/109 198/1/109 199/1/109
f 200/1/109 199/1/109 198/1/109
f 199/1/109 200/1/109 201/1/109
f 200/1/109 202/1/109 201/1/109
f 202/1/109 200/1/109 203/1/109
f 203/1/109 204/1/109 202/1/109
f 204/1/109 203/1/109 205/1/110
f 205/1/110 206/1/110 204/1/109
f 205/1/110 207/1/110 206/1/110
f 208/1/111 209/1/111 210/1/111
f 209/1/111 211/1/112 210/1/111
f 212/1/112 211/1/112 209/1/111
f 211/1/112 212/1/112 213/1/112
f 214/1/112 213/1/112 212/1/112
f 213/1/112 214/1/112 215/1/112
f 215/1/112 214/1/112 216/1/112
f 217/1/112 216/1/112 214/1/112
f 217/1/112 218/1/112 216/1/112
f 219/1/112 218/1/112 217/1/112
f 219/1/112 220/1/112 218/1/112
f 220/1/112 219/1/112 221/1/112
f 221/1/112 222/1/112 220/1/112
f 223/1/112 222/1/112 221/1/112
f 222/1/112 223/1/112 224/1/112
f 225/1/112 224/1/112 223/1/112
f 224/1/112 225/1/112 226/1/112
f 227/1/112 226/1/112 225/1/112
f 226/1/112 227/1/112 228/1/112
f 229/1/112 228/1/112 227/1/112
f 229/1/112 230/1/112 228/1/112
f 230/1/112 229/1/112 231/1/112
f 231/1/112 232/1/112 230/1/112
f 233/1/112 232/1/112 231/1/112
f 234/1/112 232/1/112 233/1/112
f 232/1/112 234/1/112 235/1/112
f 236/1/112 235/1/112 234/1/112
f 235/1/112 236/1/112 237/1/113
f 238/1/112 237/1/113 236/1/112
f 237/1/113 238/1/112 239/1/112
f 240/1/112 237/1/113 239/1/112
f 240/1/112 239/1/112 241/1/112
f 237/1/113 240/1/112 242/1/112
f 240/1/112 243/1/112 242/1/112
f 244/1/109 245/1/109 246/1/109
f 245/1/109 247/1/109 248/1/109
f 245/1/109 249/1/114 247/1/109
f 249/1/114 245/1/109 244/1/109
f 250/1/109 249/1/114 244/1/109
f 189/1/109 249/1/114 250/1/109
f 249/1/114 189/1/109 187/1/109
f 251/1/115 252/1/116 253/1/115
f 252/1/116 251/1/115 254/1/117
f 255/1/118 252/1/116 254/1/117
f 252/1/116 255/1/118 256/1/119
f 257/1/120 256/1/119 255/1/118
f 256/1/119 257/1/120 258/1/121
f 259/1/122 258/1/121 257/1/120
f 258/1/121 259/1/122 260/1/123
f 261/1/124 260/1/123 259/1/122
f 260/1/123 261/1/124 262/1/125
f 263/1/126 262/1/125 261/1/124
f 262/1/125 263/1/126 264/1/127
f 265/1/128 264/1/127 263/1/126
f 264/1/127 265/1/128 266/1/129
f 267/1/130 266/1/129 265/1/128
f 266/1/129 267/1/130 268/1/131
f 269/1/132 268/1/131 267/1/130
f 269/1/132 270/1/133 268/1/131
f 271/1/134 270/1/133 269/1/132
f 271/1/134 272/1/135 270/1/133
f 273/1/136 272/1/135 271/1/134
f 273/1/136 274/1/137 272/1/135
f 275/1/138 274/1/137 273/1/136
f 275/1/138 276/1/139 274/1/137
f 276/1/139 275/1/138 277/1/140
f 277/1/140 278/1/141 276/1/139
f 278/1/141 277/1/140 279/1/142
f 279/1/142 280/1/143 278/1/141
f 280/1/143 279/1/142 281/1/144
f 282/1/145 280/1/143 281/1/144
f 282/1/145 281/1/144 283/1/146
f 283/1/146 284/1/147 282/1/145
f 284/1/147 283/1/146 285/1/148
f 286/1/149 284/1/147 285/1/148
f 287/1/150 288/1/151 289/1/152
f 288/1/151 287/1/150 290/1/153
f 289/1/152 291/1/154 287/1/150
f 291/1/154 289/1/152 292/1/155
f 292/1/155 293/1/156 291/1/154
f 293/1/156 292/1/155 294/1/157
f 294/1/157 295/1/158 293/1/156
f 295/1/158 294/1/157 296/1/159
f 296/1/159 297/1/160 295/1/158
f 297/1/160 296/1/159 298/1/161
f 298/1/161 299/1/162 297/1/160
f 299/1/162 298/1/161 300/1/163
f 300/1/163 301/1/164 299/1/162
f 301/1/164 300/1/163 302/1/165
f 302/1/165 303/1/166 301/1/164
f 303/1/166 302/1/165 304/1/167
f 304/1/167 305/1/168 303/1/166
f 305/1/168 304/1/167 306/1/169
f 306/1/169 307/1/170 305/1/168
f 307/1/170 306/1/169 308/1/171
f 308/1/171 309/1/172 307/1/170
f 309/1/172 308/1/171 310/1/173
f 310/1/173 311/1/174 309/1/172
f 311/1/174 310/1/173 312/1/175
f 312/1/175 313/1/176 311/1/174
f 313/1/176 312/1/175 314/1/177
f 314/1/177 315/1/178 313/1/176
f 315/1/178 314/1/177 316/1/179
f 316/1/179 317/1/180 315/1/178
f 317/1/180 316/1/179 318/1/181
f 318/1/181 319/1/182 317/1/180
f 319/1/182 318/1/181 320/1/183
f 321/1/184 319/1/182 320/1/183
f 319/1/182 321/1/184 322/1/184
f 323/1/185 324/1/186 325/1/187
f 323/1/185 325/1/187 326/1/188
f 327/1/189 323/1/185 326/1/188
f 328/1/189 323/1/185 327/1/189
f 323/1/185 328/1/189 329/1/190
f 329/1/190 328/1/189 330/1/191
f 331/1/192 323/1/185 329/1/190
f 323/1/185 331/1/192 332/1/193
f 333/1/194 334/1/195 335/1/196
f 336/1/197 333/1/194 335/1/196
f 334/1/195 333/1/194 337/1/198
f 338/1/199 339/1/200 336/1/197
f 339/1/200 333/1/194 336/1/197
f 339/1/200 338/1/199 340/1/201
f 333/1/194 341/1/202 337/1/198
f 342/1/203 339/1/200 340/1/201
f 339/1/200 342/1/203 343/1/204
f 343/1/204 333/1/194 339/1/200
f 344/1/205 343/1/204 342/1/203
f 333/1/194 345/1/206 341/1/202
f 333/1/194 343/1/204 345/1/206
f 346/1/207 341/1/202 345/1/206
f 345/1/206 347/1/208 346/1/207
f 343/1/204 347/1/208 345/1/206
f 348/1/209 346/1/207 347/1/208
f 343/1/204 344/1/205 349/1/210
f 347/1/208 343/1/204 349/1/210
f 350/1/211 349/1/210 344/1/205
f 347/1/208 351/1/212 348/1/209
f 349/1/210 351/1/212 347/1/208
f 349/1/210 350/1/211 352/1/213
f 349/1/210 352/1/213 351/1/212
f 353/1/214 352/1/213 350/1/211
f 351/1/212 354/1/215 348/1/209
f 352/1/213 353/1/214 355/1/216
f 355/1/216 351/1/212 352/1/213
f 353/1/214 356/1/217 355/1/216
f 351/1/212 355/1/216 357/1/218
f 354/1/215 351/1/212 357/1/218
f 356/1/217 357/1/218 355/1/216
f 357/1/218 358/1/219 354/1/215
f 357/1/218 356/1/217 358/1/219
f 354/1/215 358/1/219 359/1/220
f 356/1/217 353/1/214 360/1/221
f 361/1/222 359/1/220 358/1/219
f 356/1/217 361/1/222 358/1/219
f 359/1/220 361/1/222 362/1/223
f 360/1/221 363/1/224 356/1/217
f 356/1/217 363/1/224 361/1/222
f 360/1/221 364/1/225 363/1/224
f 365/1/226 362/1/223 361/1/222
f 363/1/224 365/1/226 361/1/222
f 362/1/223 365/1/226 366/1/227
f 364/1/225 367/1/228 363/1/224
f 363/1/224 367/1/228 365/1/226
f 364/1/225 368/1/229 367/1/228
f 369/1/230 366/1/227 365/1/226
f 367/1/228 369/1/230 365/1/226
f 366/1/227 369/1/230 370/1/231
f 371/1/232 367/1/228 368/1/229
f 367/1/228 371/1/232 369/1/230
f 368/1/229 372/1/233 371/1/232
f 373/1/234 370/1/231 369/1/230
f 371/1/232 373/1/234 369/1/230
f 370/1/231 373/1/234 374/1/235
f 375/1/236 371/1/232 372/1/233
f 371/1/232 375/1/236 373/1/234
f 372/1/233 376/1/237 375/1/236
f 377/1/238 374/1/235 373/1/234
f 378/1/239 375/1/236 376/1/237
f 373/1/234 379/1/240 377/1/238
f 380/1/241 373/1/234 375/1/236
f 373/1/234 380/1/241 379/1/240
f 375/1/236 378/1/239 380/1/241
f 381/1/242 377/1/238 379/1/240
f 380/1/241 381/1/242 379/1/240
f 382/1/243 383/1/244 384/1/245
f 385/1/246 382/1/243 384/1/245
f 383/1/244 382/1/243 386/1/247
f 382/1/243 385/1/246 387/1/248
f 388/1/249 384/1/245 383/1/244
f 388/1/249 385/1/246 384/1/245
f 389/1/250 383/1/244 386/1/247
f 386/1/247 390/1/251 389/1/250
f 391/1/252 388/1/249 383/1/244
f 392/1/253 387/1/248 385/1/246
f 387/1/248 392/1/253 393/1/254
f 394/1/255 393/1/254 392/1/253
f 388/1/249 391/1/252 395/1/256
f 394/1/255 392/1/253 396/1/257
f 397/1/258 385/1/246 388/1/249
f 395/1/256 397/1/258 388/1/249
f 395/1/256 391/1/252 398/1/259
f 395/1/256 399/1/260 397/1/258
f 400/1/261 398/1/259 391/1/252
f 400/1/261 391/1/252 383/1/244
f 398/1/259 400/1/261 401/1/262
f 400/1/261 383/1/244 389/1/250
f 399/1/260 402/1/263 397/1/258
f 402/1/263 385/1/246 397/1/258
f 385/1/246 402/1/263 392/1/253
f 402/1/263 399/1/260 403/1/264
f 402/1/263 396/1/257 392/1/253
f 404/1/265 402/1/263 403/1/264
f 396/1/257 405/1/266 394/1/255
f 402/1/263 404/1/265 406/1/267
f 396/1/257 402/1/263 406/1/267
f 407/1/268 406/1/267 404/1/265
f 396/1/257 408/1/269 405/1/266
f 406/1/267 408/1/269 396/1/257
f 406/1/267 407/1/268 409/1/270
f 408/1/269 406/1/267 409/1/270
f 407/1/268 410/1/271 409/1/270
f 411/1/272 405/1/266 408/1/269
f 409/1/270 411/1/272 408/1/269
f 410/1/271 411/1/272 409/1/270
f 405/1/266 411/1/272 412/1/273
f 407/1/268 413/1/274 410/1/271
f 414/1/275 412/1/273 411/1/272
f 410/1/271 414/1/275 411/1/272
f 412/1/273 414/1/275 415/1/276
f 413/1/274 416/1/277 410/1/271
f 416/1/277 414/1/275 410/1/271
f 413/1/274 417/1/278 416/1/277
f 414/1/275 418/1/279 415/1/276
f 419/1/280 416/1/277 417/1/278
f 416/1/277 419/1/280 420/1/281
f 420/1/281 414/1/275 416/1/277
f 421/1/282 420/1/281 419/1/280
f 414/1/275 422/1/283 418/1/279
f 414/1/275 420/1/281 422/1/283
f 422/1/283 423/1/284 418/1/279
f 420/1/281 424/1/285 422/1/283
f 424/1/285 423/1/284 422/1/283
f 420/1/281 421/1/282 425/1/286
f 425/1/286 424/1/285 420/1/281
f 426/1/287 423/1/284 424/1/285
f 425/1/286 426/1/287 424/1/285
f 423/1/284 426/1/287 427/1/288
f 426/1/287 428/1/289 427/1/288
f 421/1/282 429/1/290 425/1/286
f 426/1/287 425/1/286 429/1/290
f 421/1/282 430/1/291 429/1/290
f 431/1/292 429/1/290 430/1/291
f 426/1/287 432/1/293 428/1/289
f 429/1/290 432/1/293 426/1/287
f 432/1/293 433/1/294 428/1/289
f 429/1/290 431/1/292 434/1/295
f 434/1/295 432/1/293 429/1/290
f 435/1/296 434/1/295 431/1/292
f 434/1/295 435/1/296 436/1/297
f 436/1/297 432/1/293 434/1/295
f 437/1/298 436/1/297 435/1/296
f 432/1/293 438/1/299 433/1/294
f 432/1/293 436/1/297 438/1/299
f 438/1/299 439/1/300 433/1/294
f 436/1/297 440/1/301 438/1/299
f 438/1/299 440/1/301 439/1/300
f 436/1/297 437/1/298 441/1/302
f 441/1/302 440/1/301 436/1/297
f 442/1/303 439/1/300 440/1/301
f 441/1/302 442/1/303 440/1/301
f 439/1/300 442/1/303 443/1/304
f 437/1/298 444/1/305 441/1/302
f 442/1/303 441/1/302 444/1/305
f 437/1/298 445/1/306 444/1/305
f 442/1/303 446/1/307 443/1/304
f 447/1/308 444/1/305 445/1/306
f 446/1/307 442/1/303 448/1/309
f 444/1/305 448/1/309 442/1/303
f 449/1/310 446/1/307 448/1/309
f 446/1/307 449/1/310 450/1/311
f 448/1/309 444/1/305 451/1/312
f 444/1/305 447/1/308 451/1/312
f 451/1/312 449/1/310 448/1/309
f 449/1/310 452/1/313 450/1/311
f 447/1/308 453/1/314 451/1/312
f 453/1/314 449/1/310 451/1/312
f 447/1/308 454/1/315 453/1/314
f 455/1/316 453/1/314 454/1/315
f 449/1/310 456/1/317 452/1/313
f 453/1/314 456/1/317 449/1/310
f 453/1/314 455/1/316 457/1/318
f 457/1/318 456/1/317 453/1/314
f 338/1/199 457/1/318 455/1/316
f 456/1/317 334/1/195 452/1/313
f 457/1/318 338/1/199 336/1/197
f 336/1/197 456/1/317 457/1/318
f 456/1/317 335/1/196 334/1/195
f 456/1/317 336/1/197 335/1/196
f 377/1/238 381/1/242 458/1/319
f 459/1/320 380/1/241 378/1/239
f 380/1/241 459/1/320 381/1/242
f 459/1/320 378/1/239 460/1/321
f 461/1/322 458/1/319 381/1/242
f 459/1/320 461/1/322 381/1/242
f 458/1/319 461/1/322 462/1/323
f 460/1/321 463/1/324 459/1/320
f 463/1/324 461/1/322 459/1/320
f 463/1/324 460/1/321 464/1/325
f 465/1/326 462/1/323 461/1/322
f 466/1/327 463/1/324 464/1/325
f 461/1/322 467/1/328 465/1/326
f 463/1/324 467/1/328 461/1/322
f 463/1/324 466/1/327 468/1/329
f 468/1/329 467/1/328 463/1/324
f 469/1/330 465/1/326 467/1/328
f 468/1/329 469/1/330 467/1/328
f 465/1/326 469/1/330 470/1/331
f 466/1/327 471/1/332 468/1/329
f 468/1/329 471/1/332 469/1/330
f 466/1/327 472/1/333 471/1/332
f 473/1/334 470/1/331 469/1/330
f 471/1/332 473/1/334 469/1/330
f 470/1/331 473/1/334 474/1/335
f 472/1/333 475/1/336 471/1/332
f 471/1/332 475/1/336 473/1/334
f 472/1/333 476/1/337 475/1/336
f 473/1/334 477/1/338 474/1/335
f 478/1/339 475/1/336 476/1/337
f 473/1/334 479/1/340 477/1/338
f 480/1/341 473/1/334 475/1/336
f 473/1/334 480/1/341 479/1/340
f 475/1/336 478/1/339 480/1/341
f 481/1/342 477/1/338 479/1/340
f 480/1/341 481/1/342 479/1/340
f 477/1/338 481/1/342 482/1/343
f 478/1/339 483/1/344 480/1/341
f 480/1/341 483/1/344 481/1/342
f 483/1/344 478/1/339 484/1/345
f 484/1/345 485/1/346 483/1/344
f 485/1/346 481/1/342 483/1/344
f 485/1/346 484/1/345 486/1/347
f 487/1/348 482/1/343 481/1/342
f 481/1/342 485/1/346 487/1/348
f 482/1/343 487/1/348 488/1/349
f 489/1/350 485/1/346 486/1/347
f 490/1/351 488/1/349 487/1/348
f 485/1/346 491/1/352 487/1/348
f 487/1/348 491/1/352 490/1/351
f 492/1/353 491/1/352 485/1/346
f 485/1/346 489/1/350 492/1/353
f 493/1/354 490/1/351 491/1/352
f 492/1/353 493/1/354 491/1/352
f 490/1/351 493/1/354 494/1/355
f 489/1/350 495/1/356 492/1/353
f 492/1/353 495/1/356 493/1/354
f 489/1/350 496/1/357 495/1/356
f 497/1/358 494/1/355 493/1/354
f 495/1/356 497/1/358 493/1/354
f 494/1/355 497/1/358 498/1/359
f 499/1/360 495/1/356 496/1/357
f 495/1/356 499/1/360 497/1/358
f 496/1/357 500/1/361 499/1/360
f 501/1/362 498/1/359 497/1/358
f 499/1/360 501/1/362 497/1/358
f 498/1/359 501/1/362 502/1/363
f 500/1/361 503/1/364 499/1/360
f 503/1/364 501/1/362 499/1/360
f 503/1/364 500/1/361 504/1/365
f 505/1/366 502/1/363 501/1/362
f 503/1/364 505/1/366 501/1/362
f 502/1/363 505/1/366 506/1/367
f 504/1/365 507/1/368 503/1/364
f 507/1/368 505/1/366 503/1/364
f 507/1/368 504/1/365 508/1/369
f 509/1/370 506/1/367 505/1/366
f 510/1/371 507/1/368 508/1/369
f 507/1/368 510/1/371 511/1/372
f 507/1/368 512/1/373 505/1/366
f 509/1/370 505/1/366 512/1/373
f 511/1/372 512/1/373 507/1/368
f 510/1/371 513/1/374 511/1/372
f 513/1/374 512/1/373 511/1/372
f 513/1/374 510/1/371 514/1/375
f 515/1/376 509/1/370 512/1/373
f 512/1/373 513/1/374 515/1/376
f 509/1/370 515/1/376 516/1/377
f 517/1/378 513/1/374 514/1/375
f 518/1/379 516/1/377 515/1/376
f 513/1/374 519/1/380 515/1/376
f 515/1/376 519/1/380 518/1/379
f 520/1/381 519/1/380 513/1/374
f 513/1/374 517/1/378 520/1/381
f 521/1/382 518/1/379 519/1/380
f 520/1/381 521/1/382 519/1/380
f 518/1/379 521/1/382 522/1/383
f 517/1/378 523/1/384 520/1/381
f 520/1/381 523/1/384 521/1/382
f 517/1/378 524/1/385 523/1/384
f 525/1/386 523/1/384 524/1/385
f 525/1/386 521/1/382 523/1/384
f 524/1/385 526/1/387 525/1/386
f 401/1/262 525/1/386 526/1/387
f 525/1/386 401/1/262 400/1/261
f 525/1/386 400/1/261 389/1/250
f 521/1/382 525/1/386 527/1/388
f 525/1/386 389/1/250 527/1/388
f 527/1/388 522/1/383 521/1/382
f 390/1/251 527/1/388 389/1/250
f 522/1/383 527/1/388 528/1/389
f 527/1/388 390/1/251 528/1/389
f 529/1/390 530/1/390 531/1/390
f 530/1/390 529/1/390 532/1/390
f 533/1/390 531/1/390 530/1/390
f 531/1/390 533/1/390 534/1/390
f 533/1/390 535/1/390 534/1/390
f 535/1/390 533/1/390 536/1/390
f 532/1/390 529/1/390 537/1/390
f 535/1/390 536/1/390 538/1/390
f 537/1/390 529/1/390 539/1/390
f 540/1/390 538/1/390 536/1/390
f 538/1/390 540/1/390 541/1/390
f 542/1/390 541/1/390 540/1/390
f 541/1/390 542/1/390 543/1/390
f 538/1/390 541/1/390 544/1/390
f 538/1/390 544/1/390 545/1/390
f 546/1/390 545/1/390 544/1/390
f 547/1/390 545/1/390 546/1/390
f 548/1/390 545/1/390 547/1/390
f 548/1/390 547/1/390 549/1/390
f 549/1/390 547/1/390 550/1/390
f 545/1/390 548/1/390 551/1/390
f 552/1/390 551/1/390 548/1/390
f 553/1/390 551/1/390 552/1/390
f 551/1/390 553/1/390 554/1/390
f 553/1/390 555/1/390 554/1/390
f 555/1/390 553/1/390 556/1/390
f 556/1/390 557/1/390 555/1/390
f 554/1/390 555/1/390 558/1/390
f 558/1/390 559/1/390 554/1/390
f 559/1/390 558/1/390 560/1/390
f 559/1/390 560/1/390 561/1/390
f 562/1/390 559/1/390 561/1/390
f 559/1/390 562/1/390 563/1/390
f 563/1/390 562/1/390 564/1/390
f 539/1/390 565/1/390 537/1/390
f 566/1/390 565/1/390 539/1/390
f 567/1/390 537/1/390 565/1/390
f 537/1/390 567/1/390 568/1/390
f 569/1/390 568/1/390 567/1/390
f 569/1/390 570/1/390 568/1/390
f 571/1/390 565/1/390 566/1/390
f 565/1/390 571/1/390 572/1/390
f 571/1/390 573/1/390 572/1/390
f 571/1/390 574/1/390 573/1/390
f 566/1/390 575/1/390 571/1/390
f 575/1/390 566/1/390 576/1/390
f 576/1/390 577/1/390 575/1/390
f 578/1/391 579/1/391 580/1/391
f 581/1/391 579/1/391 578/1/391
f 582/1/391 580/1/391 579/1/391
f 579/1/391 581/1/391 583/1/391
f 580/1/391 582/1/391 584/1/391
f 580/1/391 584/1/391 585/1/391
f 584/1/391 586/1/391 585/1/391
f 584/1/391 582/1/391 587/1/391
f 588/1/391 587/1/391 582/1/391
f 587/1/391 588/1/391 589/1/391
f 589/1/391 588/1/391 590/1/391
f 588/1/391 591/1/391 590/1/391
f 591/1/391 588/1/391 592/1/391
f 592/1/391 593/1/391 591/1/391
f 581/1/391 594/1/391 583/1/391
f 595/1/391 594/1/391 581/1/391
f 594/1/391 595/1/391 596/1/391
f 597/1/391 583/1/391 594/1/391
f 598/1/391 583/1/391 597/1/391
f 583/1/391 598/1/391 599/1/391
f 600/1/391 599/1/391 598/1/391
f 600/1/391 601/1/391 602/1/391
f 600/1/391 602/1/391 603/1/391
f 603/1/391 599/1/391 600/1/391
f 604/1/391 599/1/391 603/1/391
f 599/1/391 604/1/391 605/1/391
f 606/1/391 605/1/391 604/1/391
f 605/1/391 606/1/391 607/1/391
f 606/1/391 608/1/391 607/1/391
f 608/1/391 606/1/391 609/1/391
f 609/1/391 610/1/391 608/1/391
f 611/1/391 610/1/391 609/1/391
f 612/1/391 610/1/391 611/1/391
f 610/1/391 612/1/391 613/1/391
f 613/1/391 612/1/391 614/1/391
f 613/1/391 614/1/391 615/1/391
f 614/1/391 612/1/391 616/1/391
f 616/1/391 612/1/391 617/1/391
f 617/1/391 618/1/391 616/1/391
f 618/1/391 617/1/391 619/1/391
f 620/1/391 615/1/391 614/1/391
f 620/1/391 614/1/391 621/1/391
f 622/1/391 620/1/391 621/1/391
f 620/1/391 622/1/391 623/1/391
f 624/1/391 615/1/391 620/1/391
f 615/1/391 624/1/391 625/1/391
f 625/1/391 624/1/391 626/1/391
