# Blender 5.1.0
# www.blender.org
mtllib Untitled.mtl
o another_boduy
v 1.171050 0.149340 0.041589
v 1.257338 0.101328 0.041589
v 1.171050 0.149340 -0.000000
v 1.171050 0.149340 -0.041589
v 1.098463 0.182190 -0.041589
v 1.257338 0.101328 -0.000000
v 1.344923 0.044564 0.041589
v 1.257338 0.101328 -0.041589
v 1.344923 0.044564 -0.000000
v 1.432184 -0.024533 0.041589
v 1.344923 0.044564 -0.041589
v 1.432184 -0.024533 0.000000
v 1.513930 -0.101740 0.041589
v 1.432184 -0.024533 -0.041589
v 1.513930 -0.101740 0.000000
v 1.575240 -0.168561 0.041589
v 1.513930 -0.101740 -0.041589
v 1.575240 -0.168561 0.000000
v 1.631683 -0.240253 0.041589
v 1.575240 -0.168561 -0.041589
v 1.631683 -0.240253 0.000000
v 1.688128 -0.326214 0.041589
v 1.631683 -0.240253 -0.041589
v 1.688128 -0.326214 0.000000
v 1.741653 -0.424506 0.041589
v 1.688128 -0.326214 -0.041587
v 1.741653 -0.424506 0.000000
v 1.776361 -0.503332 0.041589
v 1.741653 -0.424506 -0.041587
v 1.776361 -0.503332 0.000000
v 1.823399 -0.640550 0.041589
v 1.776361 -0.503332 -0.041587
v 1.823399 -0.640550 0.000000
v 1.823399 -0.640550 0.000000
v 1.851295 -0.779469 0.013826
v 1.851119 -0.779428 0.000000
v 1.864856 -0.848243 0.000000
v 1.823399 -0.640550 -0.041587
v 1.851295 -0.779469 -0.013826
v 1.851119 -0.779428 0.000000
v 1.864856 -0.848243 0.000000
v -0.841865 -0.123924 -0.050526
v -0.720278 -0.079532 0.000000
v -0.720278 -0.091344 -0.050526
v -0.598688 -0.123924 -0.050526
v -0.847772 -0.113695 0.000000
v -0.941102 -0.207025 0.000000
v -0.930873 -0.212931 -0.050526
v -0.841865 -0.123924 0.050526
v -0.720278 -0.091344 0.050526
v -0.930873 -0.212931 0.050526
v -0.598688 -0.123924 0.050526
v -0.975264 -0.334522 0.000000
v -0.963453 -0.334522 -0.050526
v -0.963453 -0.334522 0.050526
v -0.930873 -0.456111 -0.050526
v -0.930873 -0.456111 0.050526
v -0.941102 -0.462015 0.000000
v -0.841865 -0.545120 -0.050526
v -0.841865 -0.545120 0.050526
v -0.847772 -0.555350 0.000000
v -0.720278 -0.589510 0.000000
v -0.720278 -0.577698 -0.050526
v -0.720278 -0.577698 0.050526
v -0.598688 -0.545120 -0.050526
v -0.598688 -0.545120 0.050526
v -0.592782 -0.555350 0.000000
v -0.509679 -0.456111 -0.050526
v -0.509679 -0.456111 0.050526
v -0.499449 -0.462015 0.000000
v -0.465287 -0.334522 0.000000
v -0.477099 -0.334522 -0.050526
v -0.477099 -0.334522 0.050526
v -0.509679 -0.212931 -0.050526
v -0.509679 -0.212931 0.050526
v -0.499449 -0.207025 0.000000
v -0.592782 -0.113695 0.000000
v -0.560730 -0.242406 0.000000
v -0.553483 -0.238224 0.050526
v -0.628161 -0.174976 0.000000
v -0.623978 -0.167727 0.050526
v -0.527680 -0.334522 0.050526
v -0.720278 -0.141924 0.050526
v -0.536048 -0.334522 0.000000
v -0.527680 -0.334522 -0.050526
v -0.560730 -0.426634 0.000000
v -0.553483 -0.238224 -0.050526
v -0.553483 -0.430821 -0.050526
v -0.623978 -0.167727 -0.050526
v -0.553483 -0.430821 0.050526
v -0.720278 -0.141924 -0.050526
v -0.628161 -0.494069 0.000000
v -0.623978 -0.501317 -0.050526
v -0.623978 -0.501317 0.050526
v -0.720278 -0.527116 -0.050526
v -0.720278 -0.527116 0.050526
v -0.720278 -0.518749 0.000000
v -0.812391 -0.494069 0.000000
v -0.816574 -0.501317 -0.050526
v -0.816574 -0.501317 0.050526
v -0.887069 -0.430821 -0.050526
v -0.887069 -0.430821 0.050526
v -0.879823 -0.426634 0.000000
v -0.912873 -0.334522 -0.050526
v -0.912873 -0.334522 0.050526
v -0.904505 -0.334522 0.000000
v -0.879823 -0.242406 0.000000
v -0.887069 -0.238224 -0.050526
v -0.887069 -0.238224 0.050526
v -0.812391 -0.174976 0.000000
v -0.816574 -0.167727 -0.050526
v -0.816574 -0.167727 0.050526
v -0.720278 -0.150293 0.000000
v 0.668751 0.279912 0.041587
v 0.819535 0.263227 -0.000000
v 0.668751 0.279912 -0.000000
v 0.819535 0.263227 0.041587
v 0.887271 0.249773 0.041587
v 0.819535 0.263227 -0.041589
v 0.668751 0.279912 -0.041589
v 0.887271 0.249773 -0.000000
v 0.970339 0.228495 0.041589
v 0.887271 0.249773 -0.041589
v 0.970339 0.228495 -0.000000
v 1.029787 0.208787 0.041589
v 0.970339 0.228495 -0.041589
v 1.029787 0.208787 -0.000000
v 1.098463 0.182190 0.041589
v 1.029787 0.208787 -0.041589
v 1.098463 0.182190 -0.000000
v -0.509679 -0.456111 -0.050526
v -0.527680 -0.334522 -0.050526
v -0.477099 -0.334522 -0.050526
v -0.553483 -0.238224 -0.050526
v -0.553483 -0.430821 -0.050526
v -0.509679 -0.212931 -0.050526
v -0.598688 -0.545120 -0.050526
v -0.623978 -0.167727 -0.050526
v -0.623978 -0.501317 -0.050526
v -0.598688 -0.123924 -0.050526
v -0.720278 -0.577698 -0.050526
v -0.720278 -0.091344 -0.050526
v -0.720278 -0.527116 -0.050526
v -0.720278 -0.141924 -0.050526
v -0.816574 -0.501317 -0.050526
v -0.841865 -0.123924 -0.050526
v -0.841865 -0.545120 -0.050526
v -0.816574 -0.167727 -0.050526
v -0.887069 -0.430821 -0.050526
v -0.930873 -0.212931 -0.050526
v -0.930873 -0.456111 -0.050526
v -0.887069 -0.238224 -0.050526
v -0.912873 -0.334522 -0.050526
v -0.963453 -0.334522 -0.050526
v -0.930873 -0.212931 0.050526
v -0.816574 -0.167727 0.050526
v -0.841865 -0.123924 0.050526
v -0.720278 -0.141924 0.050526
v -0.887069 -0.238224 0.050526
v -0.720278 -0.091344 0.050526
v -0.963453 -0.334522 0.050526
v -0.623978 -0.167727 0.050526
v -0.912873 -0.334522 0.050526
v -0.598688 -0.123924 0.050526
v -0.930873 -0.456111 0.050526
v -0.509679 -0.212931 0.050526
v -0.887069 -0.430821 0.050526
v -0.553483 -0.238224 0.050526
v -0.841865 -0.545120 0.050526
v -0.477099 -0.334522 0.050526
v -0.816574 -0.501317 0.050526
v -0.527680 -0.334522 0.050526
v -0.720278 -0.577698 0.050526
v -0.509679 -0.456111 0.050526
v -0.720278 -0.527116 0.050526
v -0.553483 -0.430821 0.050526
v -0.623978 -0.501317 0.050526
v -0.598688 -0.545120 0.050526
v 0.982397 -0.214620 -0.041589
v 1.171050 0.149340 -0.041589
v 1.073876 -0.233107 -0.041589
v 1.257338 0.101328 -0.041589
v 1.098463 0.182190 -0.041589
v 1.144268 -0.253221 -0.041587
v 1.029787 0.208787 -0.041589
v 1.344923 0.044564 -0.041589
v 0.911357 -0.203589 -0.041589
v 1.225690 -0.281765 -0.041587
v 0.970339 0.228495 -0.041589
v 1.432184 -0.024533 -0.041589
v 1.319764 -0.321019 -0.041587
v 1.513930 -0.101740 -0.041589
v 1.377830 -0.350212 -0.041587
v 1.575240 -0.168561 -0.041589
v 1.440436 -0.385571 -0.041587
v 1.631683 -0.240253 -0.041589
v 1.499150 -0.424822 -0.041587
v 1.688128 -0.326214 -0.041587
v 1.556893 -0.466994 -0.041587
v 1.741653 -0.424506 -0.041587
v 1.613336 -0.511434 -0.041587
v 1.671402 -0.566257 -0.041587
v 1.776361 -0.503332 -0.041587
v 1.749578 -0.649948 -0.041587
v 1.823399 -0.640550 -0.041587
v 1.798886 -0.711259 -0.041587
v 1.851295 -0.779469 -0.013826
v 1.851295 -0.779469 0.013826
v 1.823399 -0.640550 0.041589
v 1.798886 -0.711259 0.041589
v 1.749578 -0.649948 0.041589
v 1.776361 -0.503332 0.041589
v 1.671402 -0.566257 0.041589
v 1.741653 -0.424506 0.041589
v 1.613336 -0.511434 0.041589
v 1.556893 -0.466994 0.041589
v 1.688128 -0.326214 0.041589
v 1.499150 -0.424822 0.041589
v 1.631683 -0.240253 0.041589
v 1.440436 -0.385571 0.041589
v 1.575240 -0.168561 0.041589
v 1.377830 -0.350212 0.041589
v 1.513930 -0.101740 0.041589
v 1.319764 -0.321019 0.041589
v 1.432184 -0.024533 0.041589
v 1.225690 -0.281765 0.041589
v 1.344923 0.044564 0.041589
v 1.144268 -0.253221 0.041589
v 1.257338 0.101328 0.041589
v 1.073876 -0.233107 0.041589
v 1.171050 0.149340 0.041589
v 0.982397 -0.214620 0.041589
v 1.098463 0.182190 0.041589
v 1.029787 0.208787 0.041589
v 0.911357 -0.203589 0.041589
v 0.970339 0.228495 0.041589
v 0.820851 -0.196128 0.041589
v 0.887271 0.249773 0.041587
v 0.819535 0.263227 0.041587
v 0.608871 -0.113187 0.041589
v 0.668751 0.279912 0.041587
v 0.726132 -0.195477 0.041589
v 0.607827 -0.199697 0.041589
v 0.819535 0.263227 -0.041589
v 0.608871 -0.113187 -0.041589
v 0.668751 0.279912 -0.041589
v 0.726132 -0.195477 -0.041589
v 0.607827 -0.199697 -0.041589
v 0.820851 -0.196128 -0.041589
v 0.887271 0.249773 -0.041589
v 0.607827 -0.199697 -0.041589
v 0.726132 -0.264251 0.000000
v 0.607827 -0.268468 0.000000
v 0.726132 -0.195477 -0.041589
v 0.820851 -0.196128 -0.041589
v 0.820851 -0.264899 0.000000
v 0.911357 -0.203589 -0.041589
v 0.911357 -0.272360 0.000000
v 0.982397 -0.214620 -0.041589
v 0.982397 -0.283390 0.000000
v 1.073876 -0.233107 -0.041589
v 1.073876 -0.301879 0.000000
v 1.144268 -0.253221 -0.041587
v 1.144268 -0.321992 0.000000
v 1.225690 -0.281765 -0.041587
v 1.225690 -0.350539 0.000000
v 1.319764 -0.321019 -0.041587
v 1.319764 -0.389791 0.000000
v 1.377830 -0.350212 -0.041587
v 1.377830 -0.418986 0.000000
v 1.440436 -0.385571 -0.041587
v 1.440436 -0.454345 0.000000
v 1.499150 -0.424822 -0.041587
v 1.499150 -0.493593 0.000000
v 1.556893 -0.466994 -0.041587
v 1.556893 -0.535765 0.000000
v 1.613336 -0.511434 -0.041587
v 1.613336 -0.580208 0.000000
v 1.671402 -0.566257 -0.041587
v 1.671402 -0.635029 0.000000
v 1.749578 -0.649948 -0.041587
v 1.749578 -0.718722 0.000000
v 1.798886 -0.711259 -0.041587
v 1.798886 -0.780030 0.000000
v 1.851295 -0.779469 -0.013826
v 1.864856 -0.848243 0.000000
v 1.798886 -0.780030 0.000000
v 1.851295 -0.779469 0.013826
v 1.798886 -0.711259 0.041589
v 1.864856 -0.848243 0.000000
v 1.749578 -0.718722 0.000000
v 1.749578 -0.649948 0.041589
v 1.671402 -0.635029 0.000000
v 1.671402 -0.566257 0.041589
v 1.613336 -0.580208 0.000000
v 1.613336 -0.511434 0.041589
v 1.556893 -0.535765 0.000000
v 1.556893 -0.466994 0.041589
v 1.499150 -0.493593 0.000000
v 1.499150 -0.424822 0.041589
v 1.440436 -0.454345 0.000000
v 1.440436 -0.385571 0.041589
v 1.377830 -0.418986 0.000000
v 1.377830 -0.350212 0.041589
v 1.319764 -0.389791 0.000000
v 1.319764 -0.321019 0.041589
v 1.225690 -0.350539 0.000000
v 1.225690 -0.281765 0.041589
v 1.144268 -0.321992 0.000000
v 1.144268 -0.253221 0.041589
v 1.073876 -0.301879 0.000000
v 1.073876 -0.233107 0.041589
v 0.982397 -0.283390 0.000000
v 0.982397 -0.214620 0.041589
v 0.911357 -0.272360 0.000000
v 0.911357 -0.203589 0.041589
v 0.820851 -0.264899 0.000000
v 0.820851 -0.196128 0.041589
v 0.726132 -0.264251 0.000000
v 0.726132 -0.195477 0.041589
v 0.607827 -0.199697 0.041589
v 0.607827 -0.268468 0.000000
v 0.608871 -0.113187 0.000000
v 0.607827 -0.268468 0.000000
v 0.607827 -0.199697 0.041589
v 0.608871 -0.113187 0.041589
v 0.668751 0.279912 0.041587
v 0.668751 0.279912 -0.000000
v 0.608871 -0.113187 -0.041589
v 0.668751 0.279912 -0.041589
v 0.607827 -0.199697 -0.041589
v 0.607827 -0.268468 0.000000
v -0.408040 0.172677 0.042955
v -0.306811 0.185224 0.068785
v -0.313958 0.208800 0.042928
v -0.313958 0.208800 -0.042928
v -0.399943 0.149405 0.068785
v -0.306811 0.185224 -0.068785
v -0.408040 0.172677 -0.042955
v -0.399943 0.149405 -0.068785
v -0.496656 0.119214 0.068785
v -0.496656 0.119214 -0.068785
v -0.504821 0.142457 -0.042937
v -0.670637 0.051155 -0.068785
v -0.504821 0.142457 0.042937
v -0.670637 0.051155 0.068785
v -0.681613 0.073229 0.042819
v -0.831416 -0.046991 0.068785
v -0.681613 0.073229 -0.042819
v -0.831416 -0.046991 -0.068785
v -0.853987 -0.037161 0.042822
v -0.853987 -0.037161 -0.042822
v -0.822718 -0.091509 -0.068785
v -0.822718 -0.091509 0.068785
v -0.835957 -0.112190 -0.043109
v -0.752208 -0.099164 -0.042780
v -0.835957 -0.112190 0.043109
v -0.752208 -0.099164 0.042780
v -0.755140 -0.074660 0.068785
v -0.755140 -0.074660 -0.068785
v -0.700691 -0.098963 0.042984
v -0.697419 -0.074530 0.068785
v -0.700691 -0.098963 -0.042984
v -0.697419 -0.074530 -0.068785
v -0.650219 -0.112954 0.042965
v -0.641540 -0.089881 0.068785
v -0.650219 -0.112954 -0.042965
v -0.641540 -0.089881 -0.068785
v -0.594451 -0.139850 0.042981
v -0.580749 -0.119358 0.068785
v -0.594451 -0.139850 -0.042981
v -0.580749 -0.119358 -0.068785
v -0.538395 -0.189573 0.042696
v -0.518730 -0.174625 0.068785
v -0.538395 -0.189573 -0.042696
v -0.518730 -0.174625 -0.068785
v -0.458551 -0.298660 0.068785
v -0.458551 -0.298660 -0.068785
v -0.462274 -0.322816 0.043600
v -0.462274 -0.322816 -0.043598
v -0.383645 -0.254946 0.042660
v 0.602499 -0.251264 0.068785
v 0.500844 -0.292450 0.042997
v 0.620435 -0.268117 0.042868
v 0.644478 -0.132193 0.042878
v 0.512315 -0.270709 0.068785
v 0.620921 -0.124871 0.068785
v 0.620435 -0.268117 -0.042868
v 0.444508 -0.168147 0.042806
v 0.466334 -0.156644 0.068785
v 0.500844 -0.292450 -0.042997
v 0.690182 -0.038472 0.043012
v 0.670557 -0.023555 0.068785
v 0.757547 0.053716 0.068785
v 0.602499 -0.251264 -0.068785
v 0.771182 0.033166 0.042908
v 0.644478 -0.132193 -0.042878
v 0.512315 -0.270709 -0.068785
v 0.620921 -0.124871 -0.068785
v 0.444508 -0.168147 -0.042804
v 0.466334 -0.156644 -0.068785
v 0.690182 -0.038472 -0.043012
v 0.670557 -0.023555 -0.068785
v 0.757547 0.053716 -0.068785
v 0.825604 0.085952 0.068785
v 0.771182 0.033166 -0.042908
v 0.825604 0.085952 -0.068785
v 0.845556 0.071529 0.042852
v 0.845556 0.071529 -0.042852
v 0.853987 0.148658 -0.042916
v 0.853987 0.148658 0.042916
v 0.832258 0.137125 0.068785
v 0.832258 0.137125 -0.068785
v 0.779234 0.189157 0.042997
v 0.760617 0.172945 0.068785
v 0.779234 0.189157 -0.042997
v 0.760617 0.172945 -0.068785
v 0.733497 0.252258 0.068785
v 0.733497 0.252258 -0.068785
v 0.758097 0.254403 -0.042767
v 0.740660 0.294220 -0.068785
v 0.758097 0.254403 0.042767
v 0.740660 0.294220 0.068785
v 0.759811 0.309527 0.043276
v 0.759811 0.309527 -0.043276
v 0.666205 0.322816 0.042690
v 0.669022 0.298313 0.068785
v 0.569749 0.268123 0.068785
v 0.666205 0.322816 -0.042690
v 0.669022 0.298313 -0.068785
v 0.569749 0.268123 -0.068785
v 0.563384 0.291926 0.042950
v 0.463824 0.243558 0.068785
v 0.563384 0.291926 -0.042950
v 0.463824 0.243558 -0.068785
v 0.459481 0.267818 -0.042956
v 0.403443 0.235885 -0.068785
v 0.459481 0.267818 0.042956
v 0.403443 0.235885 0.068785
v 0.403919 0.260529 0.042997
v 0.403919 0.260529 -0.042997
v 0.311546 0.276077 0.042956
v 0.305195 0.252258 0.068785
v 0.311546 0.276077 -0.042956
v 0.305195 0.252258 -0.068785
v 0.222809 0.282961 0.068785
v 0.222809 0.282961 -0.068785
v 0.226133 0.307360 0.042914
v 0.100403 0.297162 0.042920
v 0.103582 0.272725 0.068785
v 0.226133 0.307360 -0.042914
v 0.004308 0.255330 0.068785
v 0.100403 0.297162 -0.042920
v 0.103582 0.272725 -0.068785
v 0.004308 0.255330 -0.068785
v -0.000527 0.279489 0.042938
v -0.000527 0.279489 -0.042938
v -0.400217 -0.236642 0.068785
v -0.383645 -0.254946 -0.042660
v -0.400217 -0.236642 -0.068785
v -0.344340 -0.223366 0.043030
v -0.354777 -0.201028 0.068785
v -0.344340 -0.223366 -0.043030
v -0.354777 -0.201028 -0.068785
v -0.317320 -0.193043 0.068785
v -0.317320 -0.193043 -0.068785
v -0.314744 -0.217557 0.042962
v -0.314744 -0.217557 -0.042962
v -0.264497 -0.217420 0.042978
v -0.260828 -0.193043 0.068785
v -0.264497 -0.217420 -0.042978
v -0.260828 -0.193043 -0.068785
v -0.202477 -0.236067 0.042865
v -0.201263 -0.211466 0.068785
v -0.202477 -0.236067 -0.042865
v -0.201263 -0.211466 -0.068785
v -0.174736 -0.206159 0.068785
v -0.174736 -0.206159 -0.068785
v -0.160954 -0.226551 0.042919
v -0.160954 -0.226551 -0.042919
v -0.126147 -0.176457 0.042929
v -0.144672 -0.160181 0.068785
v -0.126147 -0.176457 -0.042929
v -0.144672 -0.160181 -0.068785
v -0.075074 -0.132128 -0.043008
v -0.087198 -0.110661 -0.068785
v -0.075074 -0.132128 0.043008
v -0.087198 -0.110661 0.068785
v -0.030607 -0.092092 -0.068785
v -0.030607 -0.092092 0.068785
v -0.027448 -0.116544 0.042994
v -0.027448 -0.116544 -0.042994
v 0.036619 -0.120405 0.042895
v 0.042786 -0.096514 0.068785
v 0.036619 -0.120405 -0.042895
v 0.042786 -0.096514 -0.068785
v 0.119249 -0.156281 0.043000
v 0.116176 -0.131885 0.068785
v 0.119249 -0.156281 -0.043000
v 0.116176 -0.131885 -0.068785
v 0.152396 -0.133096 0.042819
v 0.133862 -0.116851 0.068785
v 0.152396 -0.133096 -0.042819
v 0.133862 -0.116851 -0.068785
v 0.177532 -0.092993 0.043008
v 0.159504 -0.076177 0.068785
v 0.177532 -0.092993 -0.043008
v 0.159504 -0.076177 -0.068785
v 0.199294 -0.046998 0.068785
v 0.199294 -0.046998 -0.068785
v 0.212052 -0.068084 -0.042956
v 0.212052 -0.068084 0.042956
v 0.249089 -0.049565 -0.043012
v 0.242623 -0.025775 -0.068785
v 0.249089 -0.049565 0.043012
v 0.242623 -0.025775 0.068785
v 0.289487 -0.022240 -0.068785
v 0.289487 -0.022240 0.068785
v 0.288719 -0.046876 0.042961
v 0.288719 -0.046876 -0.042961
v 0.339036 -0.053542 0.043000
v 0.346963 -0.030195 0.068785
v 0.339036 -0.053542 -0.043000
v 0.346963 -0.030195 -0.068785
v 0.387592 -0.080917 -0.043035
v 0.404437 -0.062914 -0.068785
v 0.387592 -0.080917 0.043035
v 0.404437 -0.062914 0.068785
v 0.403443 0.235885 -0.068785
v 0.289487 -0.022240 -0.068785
v 0.305195 0.252258 -0.068785
v 0.346963 -0.030195 -0.068785
v 0.242623 -0.025775 -0.068785
v 0.222809 0.282961 -0.068785
v 0.103582 0.272725 -0.068785
v 0.199294 -0.046998 -0.068785
v 0.404437 -0.062914 -0.068785
v 0.004308 0.255330 -0.068785
v 0.463824 0.243558 -0.068785
v 0.159504 -0.076177 -0.068785
v 0.042786 -0.096514 -0.068785
v 0.133862 -0.116851 -0.068785
v 0.116176 -0.131885 -0.068785
v -0.030607 -0.092092 -0.068785
v -0.306811 0.185224 -0.068785
v -0.087198 -0.110661 -0.068785
v -0.144672 -0.160181 -0.068785
v -0.260828 -0.193043 -0.068785
v -0.201263 -0.211466 -0.068785
v -0.174736 -0.206159 -0.068785
v -0.399943 0.149405 -0.068785
v -0.317320 -0.193043 -0.068785
v -0.354777 -0.201028 -0.068785
v -0.496656 0.119214 -0.068785
v -0.518730 -0.174625 -0.068785
v -0.400217 -0.236642 -0.068785
v -0.458551 -0.298660 -0.068785
v -0.580749 -0.119358 -0.068785
v -0.670637 0.051155 -0.068785
v -0.641540 -0.089881 -0.068785
v -0.697419 -0.074530 -0.068785
v -0.755140 -0.074660 -0.068785
v -0.831416 -0.046991 -0.068785
v -0.822718 -0.091509 -0.068785
v 0.670557 -0.023555 -0.068785
v 0.569749 0.268123 -0.068785
v 0.620921 -0.124871 -0.068785
v 0.466334 -0.156644 -0.068785
v 0.602499 -0.251264 -0.068785
v 0.512315 -0.270709 -0.068785
v 0.760617 0.172945 -0.068785
v 0.757547 0.053716 -0.068785
v 0.825604 0.085952 -0.068785
v 0.832258 0.137125 -0.068785
v 0.733497 0.252258 -0.068785
v 0.669022 0.298313 -0.068785
v 0.740660 0.294220 -0.068785
v -0.317320 -0.193043 0.068785
v -0.399943 0.149405 0.068785
v -0.354777 -0.201028 0.068785
v -0.260828 -0.193043 0.068785
v -0.496656 0.119214 0.068785
v -0.306811 0.185224 0.068785
v -0.518730 -0.174625 0.068785
v -0.400217 -0.236642 0.068785
v -0.458551 -0.298660 0.068785
v -0.580749 -0.119358 0.068785
v -0.670637 0.051155 0.068785
v -0.641540 -0.089881 0.068785
v -0.697419 -0.074530 0.068785
v -0.755140 -0.074660 0.068785
v -0.831416 -0.046991 0.068785
v -0.822718 -0.091509 0.068785
v -0.144672 -0.160181 0.068785
v -0.201263 -0.211466 0.068785
v -0.174736 -0.206159 0.068785
v -0.087198 -0.110661 0.068785
v -0.030607 -0.092092 0.068785
v 0.004308 0.255330 0.068785
v 0.042786 -0.096514 0.068785
v 0.116176 -0.131885 0.068785
v 0.133862 -0.116851 0.068785
v 0.159504 -0.076177 0.068785
v 0.199294 -0.046998 0.068785
v 0.103582 0.272725 0.068785
v 0.242623 -0.025775 0.068785
v 0.222809 0.282961 0.068785
v 0.305195 0.252258 0.068785
v 0.289487 -0.022240 0.068785
v 0.403443 0.235885 0.068785
v 0.346963 -0.030195 0.068785
v 0.404437 -0.062914 0.068785
v 0.463824 0.243558 0.068785
v 0.670557 -0.023555 0.068785
v 0.569749 0.268123 0.068785
v 0.620921 -0.124871 0.068785
v 0.466334 -0.156644 0.068785
v 0.602499 -0.251264 0.068785
v 0.512315 -0.270709 0.068785
v 0.760617 0.172945 0.068785
v 0.757547 0.053716 0.068785
v 0.825604 0.085952 0.068785
v 0.832258 0.137125 0.068785
v 0.733497 0.252258 0.068785
v 0.669022 0.298313 0.068785
v 0.740660 0.294220 0.068785
vn 0.4496 0.8932 -0.0000
vn 0.5153 0.8570 -0.0000
vn 0.3872 0.9220 0.0003
vn 0.5830 0.8125 -0.0000
vn 0.6543 0.7562 -0.0000
vn 0.5829 0.8125 0.0007
vn 0.7122 0.7020 -0.0000
vn 0.7616 0.6481 0.0003
vn 0.7616 0.6480 0.0002
vn 0.8116 0.5843 -0.0000
vn 0.7618 0.6478 -0.0000
vn 0.8113 0.5847 0.0005
vn 0.8575 0.5144 0.0004
vn 0.8576 0.5143 0.0003
vn 0.8975 0.4410 -0.0000
vn 0.8974 0.4412 0.0004
vn 0.9314 0.3640 -0.0000
vn 0.8974 0.4412 0.0005
vn 0.9314 0.3639 0.0005
vn 0.9642 0.2653 -0.0015
vn 0.9653 0.2612 -0.0013
vn 0.9653 0.2612 0.0015
vn 0.9806 0.1959 -0.0073
vn 0.9806 0.1958 -0.0119
vn 0.9642 0.2653 0.0015
vn 0.9806 0.1959 0.0073
vn 0.9806 0.1958 0.0119
vn -0.4869 0.8433 -0.2276
vn -0.0000 1.0000 -0.0000
vn 0.0004 0.9738 -0.2273
vn 0.4869 0.8433 -0.2276
vn -0.5000 0.8660 -0.0000
vn -0.8660 0.5000 -0.0000
vn -0.8433 0.4869 -0.2276
vn -0.4869 0.8434 0.2273
vn 0.0004 0.9738 0.2273
vn -0.8433 0.4869 0.2276
vn 0.4869 0.8434 0.2273
vn -1.0000 -0.0000 -0.0000
vn -0.9738 0.0002 -0.2274
vn -0.9738 0.0002 0.2274
vn -0.8433 -0.4869 -0.2276
vn -0.8433 -0.4869 0.2276
vn -0.8661 -0.4999 0.0003
vn -0.4869 -0.8434 -0.2272
vn -0.4869 -0.8434 0.2271
vn -0.4998 -0.8661 0.0004
vn -0.0000 -1.0000 -0.0000
vn 0.0004 -0.9738 -0.2273
vn 0.0004 -0.9738 0.2273
vn 0.4869 -0.8434 -0.2272
vn 0.4869 -0.8434 0.2271
vn 0.5000 -0.8660 -0.0000
vn 0.8434 -0.4869 -0.2273
vn 0.8434 -0.4869 0.2272
vn 0.8660 -0.5000 -0.0000
vn 1.0000 -0.0000 -0.0000
vn 0.9738 0.0004 -0.2273
vn 0.9738 0.0004 0.2273
vn 0.8434 0.4869 -0.2272
vn 0.8434 0.4869 0.2272
vn 0.8660 0.5000 -0.0000
vn 0.5000 0.8660 -0.0000
vn -0.8660 -0.5000 -0.0000
vn -0.8544 -0.4933 0.1634
vn -0.4999 -0.8661 0.0003
vn -0.4933 -0.8544 0.1634
vn -0.9865 0.0005 0.1637
vn -0.0000 -0.9866 0.1634
vn -1.0000 0.0005 0.0005
vn -0.9865 0.0003 -0.1635
vn -0.8544 -0.4933 -0.1634
vn -0.8544 0.4933 -0.1634
vn -0.4930 -0.8545 -0.1636
vn -0.8546 0.4929 0.1637
vn -0.0000 -0.9866 -0.1634
vn -0.4930 0.8545 -0.1636
vn -0.4930 0.8545 0.1636
vn 0.0003 0.9865 -0.1635
vn -0.0000 0.9866 0.1634
vn 0.0005 1.0000 0.0005
vn 0.4933 0.8544 -0.1634
vn 0.4929 0.8545 0.1637
vn 0.8544 0.4933 -0.1634
vn 0.8545 0.4930 0.1636
vn 0.9865 0.0005 -0.1638
vn 0.9865 0.0005 0.1638
vn 1.0000 0.0005 0.0005
vn 0.8544 -0.4933 -0.1634
vn 0.8544 -0.4933 0.1634
vn 0.4930 -0.8545 -0.1636
vn 0.4929 -0.8545 0.1637
vn 0.0005 -1.0000 0.0005
vn 0.1100 0.9939 -0.0000
vn 0.1527 0.9883 0.0003
vn 0.1529 0.9882 0.0006
vn 0.2213 0.9752 0.0004
vn 0.1530 0.9882 0.0005
vn 0.1099 0.9939 0.0005
vn 0.2212 0.9752 0.0005
vn 0.2816 0.9595 -0.0000
vn 0.2216 0.9751 -0.0000
vn 0.3377 0.9412 0.0004
vn 0.2818 0.9595 0.0004
vn 0.0005 0.0005 -1.0000
vn 0.0005 0.0005 1.0000
vn 0.0024 -0.0005 -1.0000
vn 0.0025 -0.0005 -1.0000
vn 0.0025 -0.0005 1.0000
vn 0.0024 -0.0005 1.0000
vn 0.0023 -0.0005 1.0000
vn 0.0023 -0.0005 -1.0000
vn 0.0184 -0.5174 -0.8556
vn 0.0075 -0.5175 -0.8557
vn 0.0074 -0.5174 -0.8557
vn -0.0226 -0.5173 -0.8555
vn -0.0236 -0.5173 -0.8555
vn -0.0601 -0.5165 -0.8541
vn -0.0623 -0.5163 -0.8541
vn -0.0913 -0.5151 -0.8522
vn -0.0932 -0.5152 -0.8520
vn -0.1224 -0.5136 -0.8493
vn -0.1278 -0.5132 -0.8487
vn -0.1597 -0.5108 -0.8447
vn -0.1648 -0.5105 -0.8439
vn -0.1915 -0.5079 -0.8399
vn -0.1980 -0.5072 -0.8388
vn -0.2261 -0.5036 -0.8338
vn -0.2361 -0.5028 -0.8315
vn -0.2623 -0.4993 -0.8257
vn -0.2699 -0.4982 -0.8240
vn -0.2968 -0.4941 -0.8172
vn -0.3105 -0.4919 -0.8134
vn -0.3359 -0.4874 -0.8060
vn -0.3445 -0.4858 -0.8033
vn -0.3613 -0.4825 -0.7979
vn -0.3695 -0.4808 -0.7951
vn -0.3964 -0.4751 -0.7856
vn -0.4197 -0.4697 -0.7767
vn -0.4523 -0.4615 -0.7632
vn -0.4712 -0.4564 -0.7548
vn -0.5002 -0.4481 -0.7410
vn -0.5255 -0.4402 -0.7280
vn -0.4794 -0.4286 -0.7658
vn -0.3210 -0.4021 -0.8575
vn -0.2319 -0.3833 -0.8940
vn -0.2319 -0.3833 -0.8941
vn -0.3210 -0.4021 0.8575
vn -0.2319 -0.3833 0.8940
vn -0.4794 -0.4286 0.7658
vn -0.2319 -0.3833 0.8941
vn -0.5255 -0.4403 0.7280
vn -0.5002 -0.4481 0.7410
vn -0.4712 -0.4564 0.7547
vn -0.4523 -0.4615 0.7632
vn -0.4197 -0.4697 0.7767
vn -0.3964 -0.4751 0.7856
vn -0.3695 -0.4808 0.7951
vn -0.3613 -0.4825 0.7979
vn -0.3445 -0.4858 0.8033
vn -0.3359 -0.4874 0.8060
vn -0.3105 -0.4919 0.8134
vn -0.2968 -0.4941 0.8172
vn -0.2699 -0.4983 0.8239
vn -0.2623 -0.4993 0.8257
vn -0.2358 -0.5025 0.8318
vn -0.2263 -0.5038 0.8337
vn -0.1980 -0.5072 0.8388
vn -0.1915 -0.5079 0.8399
vn -0.1651 -0.5104 0.8440
vn -0.1597 -0.5108 0.8447
vn -0.1279 -0.5132 0.8487
vn -0.1224 -0.5136 0.8493
vn -0.0932 -0.5152 0.8520
vn -0.0914 -0.5152 0.8522
vn -0.0623 -0.5163 0.8541
vn -0.0601 -0.5165 0.8541
vn -0.0236 -0.5173 0.8555
vn -0.0226 -0.5173 0.8555
vn 0.0075 -0.5175 0.8557
vn 0.0074 -0.5174 0.8557
vn 0.0184 -0.5174 0.8556
vn -0.9968 0.0796 0.0005
vn -0.9999 0.0083 -0.0074
vn -0.9999 0.0083 -0.0073
vn -0.9968 0.0796 -0.0034
vn -0.9886 0.1508 0.0002
vn -0.9968 0.0796 0.0034
vn -0.9886 0.1508 0.0003
vn -0.9999 0.0083 0.0073
vn -0.9999 0.0083 0.0074
vn -0.3046 0.8758 0.3743
vn -0.2099 0.6927 0.6900
vn -0.2705 0.8904 0.3660
vn -0.2703 0.8905 -0.3660
vn -0.2379 0.6836 0.6900
vn -0.2099 0.6927 -0.6900
vn -0.3046 0.8758 -0.3743
vn -0.2382 0.6838 -0.6898
vn -0.2402 0.6832 0.6896
vn -0.2399 0.6829 -0.6900
vn -0.3082 0.8770 -0.3687
vn -0.3338 0.6605 -0.6726
vn -0.3082 0.8770 0.3687
vn -0.3338 0.6605 0.6726
vn -0.4236 0.8342 0.3531
vn -0.6692 0.2621 0.6953
vn -0.4236 0.8342 -0.3531
vn -0.6692 0.2621 -0.6953
vn -0.8742 0.3519 0.3346
vn -0.8742 0.3519 -0.3346
vn -0.3848 -0.5618 -0.7324
vn -0.3848 -0.5618 0.7324
vn -0.5215 -0.7776 -0.3513
vn 0.0823 -0.9297 -0.3590
vn -0.5215 -0.7776 0.3512
vn 0.0823 -0.9297 0.3590
vn 0.0765 -0.7455 0.6621
vn 0.0765 -0.7455 -0.6621
vn -0.1227 -0.9150 0.3844
vn -0.0962 -0.7163 0.6911
vn -0.1228 -0.9150 -0.3843
vn -0.0962 -0.7163 -0.6911
vn -0.3260 -0.8663 0.3785
vn -0.2548 -0.6781 0.6894
vn -0.3260 -0.8663 -0.3785
vn -0.2548 -0.6781 -0.6894
vn -0.5117 -0.7688 0.3836
vn -0.4022 -0.6026 0.6893
vn -0.5117 -0.7688 -0.3836
vn -0.4022 -0.6026 -0.6893
vn -0.7304 -0.5811 0.3590
vn -0.6006 -0.4639 0.6512
vn -0.7304 -0.5811 -0.3590
vn -0.6006 -0.4639 -0.6512
vn -0.1013 -0.6103 0.7857
vn -0.1013 -0.6103 -0.7857
vn -0.1513 -0.9110 0.3837
vn -0.1513 -0.9110 -0.3837
vn 0.6073 -0.7154 0.3456
vn 0.5075 -0.5022 0.7002
vn -0.4256 -0.8360 0.3463
vn 0.6733 -0.6573 0.3385
vn 0.8836 -0.2833 0.3728
vn -0.3105 -0.6223 0.7186
vn 0.7048 -0.2217 0.6738
vn 0.6733 -0.6573 -0.3385
vn -0.8194 -0.4444 0.3620
vn -0.6576 -0.3518 0.6662
vn -0.4256 -0.8360 -0.3463
vn 0.7330 -0.5574 0.3899
vn 0.5747 -0.4366 0.6922
vn 0.4097 -0.6096 0.6786
vn 0.5075 -0.5022 -0.7002
vn 0.5210 -0.7669 0.3747
vn 0.8836 -0.2833 -0.3728
vn -0.3105 -0.6223 -0.7186
vn 0.7048 -0.2217 -0.6738
vn -0.8194 -0.4444 -0.3620
vn -0.6576 -0.3518 -0.6662
vn 0.7327 -0.5576 -0.3902
vn 0.5747 -0.4366 -0.6922
vn 0.4097 -0.6096 -0.6786
vn 0.5931 -0.4081 0.6940
vn 0.5210 -0.7669 -0.3747
vn 0.5931 -0.4081 -0.6940
vn 0.7739 -0.5341 0.3404
vn 0.7739 -0.5341 -0.3404
vn 0.8327 0.4359 -0.3415
vn 0.8327 0.4359 0.3415
vn 0.6278 0.3275 0.7061
vn 0.6278 0.3275 -0.7061
vn 0.6995 0.5910 0.4018
vn 0.5513 0.4770 0.6845
vn 0.6994 0.5910 -0.4019
vn 0.5513 0.4770 -0.6845
vn 0.7476 0.0822 0.6590
vn 0.7476 0.0822 -0.6590
vn 0.9237 0.1193 -0.3640
vn 0.5094 0.4203 -0.7509
vn 0.9237 0.1193 0.3640
vn 0.5094 0.4203 0.7509
vn 0.7176 0.5943 0.3631
vn 0.7176 0.5943 -0.3631
vn -0.0769 0.9378 0.3385
vn -0.0662 0.7457 0.6630
vn -0.1863 0.7013 0.6881
vn -0.0769 0.9378 -0.3385
vn -0.0662 0.7457 -0.6630
vn -0.1863 0.7013 -0.6881
vn -0.2381 0.8969 0.3728
vn -0.1278 0.7126 0.6899
vn -0.2381 0.8969 -0.3727
vn -0.1278 0.7127 -0.6898
vn -0.1646 0.9121 -0.3755
vn 0.0138 0.7219 -0.6919
vn -0.1646 0.9121 0.3755
vn 0.0136 0.7221 0.6917
vn 0.0168 0.9227 0.3850
vn 0.0168 0.9227 -0.3850
vn 0.2376 0.8949 0.3778
vn 0.1868 0.7013 0.6880
vn 0.2376 0.8949 -0.3778
vn 0.1868 0.7013 -0.6880
vn 0.0970 0.7138 0.6936
vn 0.0970 0.7138 -0.6936
vn 0.1263 0.9255 0.3570
vn -0.1178 0.9228 0.3669
vn -0.0926 0.7203 0.6875
vn 0.1263 0.9255 -0.3570
vn -0.1423 0.7103 0.6894
vn -0.1182 0.9226 -0.3671
vn -0.0926 0.7203 -0.6875
vn -0.1424 0.7103 -0.6893
vn -0.1823 0.9111 0.3696
vn -0.1823 0.9111 -0.3696
vn 0.5006 -0.5735 0.6484
vn 0.6073 -0.7154 -0.3456
vn 0.5006 -0.5735 -0.6484
vn 0.3869 -0.8324 0.3968
vn 0.3041 -0.6525 0.6941
vn 0.3869 -0.8324 -0.3968
vn 0.3041 -0.6525 -0.6941
vn 0.0744 -0.7215 0.6884
vn 0.0744 -0.7215 -0.6884
vn 0.0921 -0.9210 0.3785
vn 0.0921 -0.9210 -0.3785
vn -0.1346 -0.9136 0.3836
vn -0.1061 -0.7167 0.6892
vn -0.1345 -0.9136 -0.3837
vn -0.1061 -0.7167 -0.6892
vn -0.0345 -0.9360 0.3503
vn -0.0281 -0.7258 0.6873
vn -0.0345 -0.9360 -0.3503
vn -0.0281 -0.7258 -0.6873
vn 0.3998 -0.5929 0.6990
vn 0.3998 -0.5929 -0.6990
vn 0.5243 -0.7760 0.3505
vn 0.5243 -0.7761 -0.3505
vn 0.6901 -0.6173 0.3777
vn 0.5463 -0.4844 0.6833
vn 0.6901 -0.6173 -0.3777
vn 0.5463 -0.4844 -0.6833
vn 0.4535 -0.8013 -0.3901
vn 0.3550 -0.6282 -0.6923
vn 0.4535 -0.8013 0.3901
vn 0.3550 -0.6281 0.6924
vn 0.0928 -0.7172 -0.6907
vn 0.0928 -0.7172 0.6907
vn 0.1174 -0.9141 0.3882
vn 0.1177 -0.9139 -0.3885
vn -0.2195 -0.8996 0.3776
vn -0.1795 -0.7132 0.6776
vn -0.2195 -0.8996 -0.3776
vn -0.1795 -0.7132 -0.6776
vn 0.0989 -0.9311 0.3512
vn 0.0765 -0.6954 0.7146
vn 0.0989 -0.9311 -0.3512
vn 0.0765 -0.6954 -0.7146
vn 0.6839 -0.6409 0.3487
vn 0.5396 -0.4982 0.6786
vn 0.6839 -0.6409 -0.3487
vn 0.5396 -0.4982 -0.6786
vn 0.6722 -0.6292 0.3902
vn 0.5269 -0.4932 0.6922
vn 0.6722 -0.6292 -0.3902
vn 0.5269 -0.4932 -0.6922
vn 0.3755 -0.6205 0.6885
vn 0.3753 -0.6211 -0.6880
vn 0.4800 -0.7923 -0.3767
vn 0.4800 -0.7923 0.3767
vn 0.2416 -0.8880 -0.3912
vn 0.1888 -0.6956 -0.6932
vn 0.2416 -0.8880 0.3912
vn 0.1888 -0.6956 0.6932
vn -0.0229 -0.7247 -0.6887
vn -0.0232 -0.7250 0.6884
vn -0.0291 -0.9250 0.3787
vn -0.0291 -0.9250 -0.3789
vn -0.2928 -0.8733 0.3894
vn -0.2312 -0.6847 0.6912
vn -0.2928 -0.8733 -0.3894
vn -0.2312 -0.6846 -0.6912
vn -0.6281 -0.6703 -0.3952
vn -0.4921 -0.5254 -0.6941
vn -0.6280 -0.6706 0.3948
vn -0.4921 -0.5254 0.6941
vn -0.0000 -0.0000 -1.0000
vn -0.0000 -0.0000 1.0000
vt 0.000000 0.000000
s 1
f 1/1/1 2/1/2 3/1/1
f 4/1/1 5/1/3 3/1/1
f 6/1/2 3/1/1 2/1/2
f 3/1/1 6/1/2 4/1/1
f 2/1/2 7/1/4 6/1/2
f 8/1/2 4/1/1 6/1/2
f 9/1/4 6/1/2 7/1/4
f 6/1/2 9/1/4 8/1/2
f 7/1/4 10/1/5 9/1/4
f 11/1/6 8/1/2 9/1/4
f 12/1/5 9/1/4 10/1/5
f 9/1/4 12/1/5 11/1/6
f 10/1/5 13/1/7 12/1/5
f 14/1/5 11/1/6 12/1/5
f 15/1/7 12/1/5 13/1/7
f 12/1/5 15/1/7 14/1/5
f 15/1/7 13/1/7 16/1/8
f 17/1/7 14/1/5 15/1/7
f 18/1/9 15/1/7 16/1/8
f 17/1/7 15/1/7 18/1/9
f 18/1/9 16/1/8 19/1/10
f 20/1/11 17/1/7 18/1/9
f 21/1/12 18/1/9 19/1/10
f 20/1/11 18/1/9 21/1/12
f 19/1/10 22/1/13 21/1/12
f 23/1/10 20/1/11 21/1/12
f 24/1/14 21/1/12 22/1/13
f 21/1/12 24/1/14 23/1/10
f 22/1/13 25/1/15 24/1/14
f 26/1/13 23/1/10 24/1/14
f 27/1/16 24/1/14 25/1/15
f 24/1/14 27/1/16 26/1/13
f 25/1/15 28/1/17 27/1/16
f 29/1/18 26/1/13 27/1/16
f 30/1/19 27/1/16 28/1/17
f 27/1/16 30/1/19 29/1/18
f 28/1/17 31/1/20 30/1/19
f 32/1/19 29/1/18 30/1/19
f 33/1/21 30/1/19 31/1/20
f 30/1/19 34/1/22 32/1/19
f 31/1/20 35/1/23 33/1/21
f 36/1/23 33/1/21 35/1/23
f 36/1/23 35/1/23 37/1/24
f 38/1/25 32/1/19 34/1/22
f 34/1/22 39/1/26 38/1/25
f 39/1/26 34/1/22 40/1/26
f 39/1/26 40/1/26 41/1/27
f 42/1/28 43/1/29 44/1/30
f 43/1/29 45/1/31 44/1/30
f 43/1/29 42/1/28 46/1/32
f 42/1/28 47/1/33 46/1/32
f 47/1/33 42/1/28 48/1/34
f 47/1/33 49/1/35 46/1/32
f 49/1/35 43/1/29 46/1/32
f 43/1/29 49/1/35 50/1/36
f 49/1/35 47/1/33 51/1/37
f 52/1/38 43/1/29 50/1/36
f 48/1/34 53/1/39 47/1/33
f 53/1/39 51/1/37 47/1/33
f 53/1/39 48/1/34 54/1/40
f 51/1/37 53/1/39 55/1/41
f 56/1/42 53/1/39 54/1/40
f 53/1/39 57/1/43 55/1/41
f 53/1/39 56/1/42 58/1/44
f 57/1/43 53/1/39 58/1/44
f 59/1/45 58/1/44 56/1/42
f 58/1/44 60/1/46 57/1/43
f 58/1/44 59/1/45 61/1/47
f 60/1/46 58/1/44 61/1/47
f 59/1/45 62/1/48 61/1/47
f 62/1/48 60/1/46 61/1/47
f 62/1/48 59/1/45 63/1/49
f 60/1/46 62/1/48 64/1/50
f 65/1/51 62/1/48 63/1/49
f 62/1/48 66/1/52 64/1/50
f 62/1/48 65/1/51 67/1/53
f 66/1/52 62/1/48 67/1/53
f 68/1/54 67/1/53 65/1/51
f 67/1/53 69/1/55 66/1/52
f 67/1/53 68/1/54 70/1/56
f 69/1/55 67/1/53 70/1/56
f 68/1/54 71/1/57 70/1/56
f 71/1/57 69/1/55 70/1/56
f 71/1/57 68/1/54 72/1/58
f 69/1/55 71/1/57 73/1/59
f 74/1/60 71/1/57 72/1/58
f 71/1/57 75/1/61 73/1/59
f 71/1/57 74/1/60 76/1/62
f 75/1/61 71/1/57 76/1/62
f 74/1/60 77/1/63 76/1/62
f 77/1/63 75/1/61 76/1/62
f 77/1/63 74/1/60 45/1/31
f 75/1/61 77/1/63 52/1/38
f 45/1/31 43/1/29 77/1/63
f 43/1/29 52/1/38 77/1/63
f 78/1/64 79/1/65 80/1/66
f 80/1/66 79/1/65 81/1/67
f 78/1/64 82/1/68 79/1/65
f 83/1/69 80/1/66 81/1/67
f 78/1/64 84/1/70 82/1/68
f 78/1/64 85/1/71 84/1/70
f 86/1/33 82/1/68 84/1/70
f 85/1/71 86/1/33 84/1/70
f 85/1/71 78/1/64 87/1/72
f 80/1/66 87/1/72 78/1/64
f 85/1/71 88/1/73 86/1/33
f 87/1/72 80/1/66 89/1/74
f 82/1/68 86/1/33 90/1/75
f 80/1/66 91/1/76 89/1/74
f 88/1/73 92/1/32 86/1/33
f 92/1/32 90/1/75 86/1/33
f 93/1/77 92/1/32 88/1/73
f 90/1/75 92/1/32 94/1/78
f 95/1/79 92/1/32 93/1/77
f 92/1/32 96/1/80 94/1/78
f 92/1/32 95/1/79 97/1/81
f 92/1/32 97/1/81 96/1/80
f 95/1/79 98/1/63 97/1/81
f 98/1/63 96/1/80 97/1/81
f 98/1/63 95/1/79 99/1/82
f 96/1/80 98/1/63 100/1/83
f 101/1/84 98/1/63 99/1/82
f 98/1/63 102/1/85 100/1/83
f 98/1/63 101/1/84 103/1/62
f 103/1/62 102/1/85 98/1/63
f 104/1/86 103/1/62 101/1/84
f 103/1/62 105/1/87 102/1/85
f 103/1/62 104/1/86 106/1/88
f 103/1/62 106/1/88 105/1/87
f 104/1/86 107/1/56 106/1/88
f 107/1/56 105/1/87 106/1/88
f 104/1/86 108/1/89 107/1/56
f 105/1/87 107/1/56 109/1/90
f 108/1/89 110/1/53 107/1/56
f 110/1/53 109/1/90 107/1/56
f 111/1/91 110/1/53 108/1/89
f 109/1/90 110/1/53 112/1/92
f 91/1/76 110/1/53 111/1/91
f 110/1/53 83/1/69 112/1/92
f 110/1/53 91/1/76 113/1/93
f 110/1/53 113/1/93 83/1/69
f 91/1/76 80/1/66 113/1/93
f 80/1/66 83/1/69 113/1/93
f 114/1/94 115/1/95 116/1/94
f 115/1/95 114/1/94 117/1/96
f 115/1/95 117/1/96 118/1/97
f 119/1/98 116/1/94 115/1/95
f 116/1/94 119/1/98 120/1/99
f 121/1/100 115/1/95 118/1/97
f 119/1/98 115/1/95 121/1/100
f 118/1/97 122/1/101 121/1/100
f 123/1/102 119/1/98 121/1/100
f 124/1/101 121/1/100 122/1/101
f 121/1/100 124/1/101 123/1/102
f 124/1/101 122/1/101 125/1/103
f 126/1/104 123/1/102 124/1/101
f 127/1/103 124/1/101 125/1/103
f 126/1/104 124/1/101 127/1/103
f 127/1/103 125/1/103 128/1/3
f 129/1/103 126/1/104 127/1/103
f 130/1/3 127/1/103 128/1/3
f 129/1/103 127/1/103 130/1/3
f 128/1/3 1/1/1 130/1/3
f 5/1/3 129/1/103 130/1/3
f 3/1/1 130/1/3 1/1/1
f 130/1/3 3/1/1 5/1/3
f 131/1/105 132/1/105 133/1/105
f 134/1/105 133/1/105 132/1/105
f 132/1/105 131/1/105 135/1/105
f 133/1/105 134/1/105 136/1/105
f 137/1/105 135/1/105 131/1/105
f 138/1/105 136/1/105 134/1/105
f 135/1/105 137/1/105 139/1/105
f 136/1/105 138/1/105 140/1/105
f 141/1/105 139/1/105 137/1/105
f 138/1/105 142/1/105 140/1/105
f 139/1/105 141/1/105 143/1/105
f 142/1/105 138/1/105 144/1/105
f 145/1/105 143/1/105 141/1/105
f 146/1/105 142/1/105 144/1/105
f 141/1/105 147/1/105 145/1/105
f 146/1/105 144/1/105 148/1/105
f 147/1/105 149/1/105 145/1/105
f 150/1/105 146/1/105 148/1/105
f 147/1/105 151/1/105 149/1/105
f 148/1/105 152/1/105 150/1/105
f 151/1/105 153/1/105 149/1/105
f 152/1/105 154/1/105 150/1/105
f 153/1/105 151/1/105 154/1/105
f 154/1/105 152/1/105 153/1/105
f 155/1/106 156/1/106 157/1/106
f 158/1/106 157/1/106 156/1/106
f 156/1/106 155/1/106 159/1/106
f 157/1/106 158/1/106 160/1/106
f 161/1/106 159/1/106 155/1/106
f 162/1/106 160/1/106 158/1/106
f 159/1/106 161/1/106 163/1/106
f 160/1/106 162/1/106 164/1/106
f 165/1/106 163/1/106 161/1/106
f 162/1/106 166/1/106 164/1/106
f 163/1/106 165/1/106 167/1/106
f 166/1/106 162/1/106 168/1/106
f 169/1/106 167/1/106 165/1/106
f 170/1/106 166/1/106 168/1/106
f 167/1/106 169/1/106 171/1/106
f 170/1/106 168/1/106 172/1/106
f 173/1/106 171/1/106 169/1/106
f 174/1/106 170/1/106 172/1/106
f 171/1/106 173/1/106 175/1/106
f 172/1/106 176/1/106 174/1/106
f 173/1/106 177/1/106 175/1/106
f 176/1/106 178/1/106 174/1/106
f 177/1/106 173/1/106 178/1/106
f 178/1/106 176/1/106 177/1/106
f 179/1/107 180/1/107 181/1/107
f 182/1/107 181/1/107 180/1/107
f 180/1/107 179/1/107 183/1/107
f 181/1/107 182/1/107 184/1/107
f 179/1/107 185/1/107 183/1/107
f 186/1/107 184/1/107 182/1/107
f 185/1/107 179/1/107 187/1/107
f 184/1/107 186/1/107 188/1/107
f 185/1/107 187/1/107 189/1/107
f 190/1/107 188/1/107 186/1/107
f 188/1/107 190/1/107 191/1/107
f 192/1/107 191/1/107 190/1/107
f 192/1/107 193/1/107 191/1/107
f 193/1/107 192/1/107 194/1/107
f 194/1/107 195/1/107 193/1/107
f 196/1/107 195/1/107 194/1/107
f 195/1/107 196/1/107 197/1/107
f 198/1/107 197/1/107 196/1/107
f 197/1/107 198/1/107 199/1/107
f 200/1/107 199/1/107 198/1/107
f 199/1/107 200/1/107 201/1/107
f 200/1/107 202/1/107 201/1/107
f 202/1/107 200/1/107 203/1/107
f 203/1/107 204/1/107 202/1/107
f 204/1/107 203/1/107 205/1/108
f 205/1/108 206/1/108 204/1/107
f 205/1/108 207/1/108 206/1/108
f 208/1/109 209/1/109 210/1/109
f 209/1/109 211/1/110 210/1/109
f 212/1/110 211/1/110 209/1/109
f 211/1/110 212/1/110 213/1/110
f 214/1/110 213/1/110 212/1/110
f 213/1/110 214/1/110 215/1/110
f 215/1/110 214/1/110 216/1/110
f 217/1/110 216/1/110 214/1/110
f 217/1/110 218/1/110 216/1/110
f 219/1/110 218/1/110 217/1/110
f 219/1/110 220/1/110 218/1/110
f 220/1/110 219/1/110 221/1/110
f 221/1/110 222/1/110 220/1/110
f 223/1/110 222/1/110 221/1/110
f 222/1/110 223/1/110 224/1/110
f 225/1/110 224/1/110 223/1/110
f 224/1/110 225/1/110 226/1/110
f 227/1/110 226/1/110 225/1/110
f 226/1/110 227/1/110 228/1/110
f 229/1/110 228/1/110 227/1/110
f 229/1/110 230/1/110 228/1/110
f 230/1/110 229/1/110 231/1/110
f 231/1/110 232/1/110 230/1/110
f 233/1/110 232/1/110 231/1/110
f 234/1/110 232/1/110 233/1/110
f 232/1/110 234/1/110 235/1/110
f 236/1/110 235/1/110 234/1/110
f 235/1/110 236/1/110 237/1/111
f 238/1/110 237/1/111 236/1/110
f 237/1/111 238/1/110 239/1/110
f 240/1/110 237/1/111 239/1/110
f 240/1/110 239/1/110 241/1/110
f 237/1/111 240/1/110 242/1/110
f 240/1/110 243/1/110 242/1/110
f 244/1/107 245/1/107 246/1/107
f 245/1/107 247/1/107 248/1/107
f 245/1/107 249/1/112 247/1/107
f 249/1/112 245/1/107 244/1/107
f 250/1/107 249/1/112 244/1/107
f 189/1/107 249/1/112 250/1/107
f 249/1/112 189/1/107 187/1/107
f 251/1/113 252/1/114 253/1/113
f 252/1/114 251/1/113 254/1/115
f 255/1/116 252/1/114 254/1/115
f 252/1/114 255/1/116 256/1/117
f 257/1/118 256/1/117 255/1/116
f 256/1/117 257/1/118 258/1/119
f 259/1/120 258/1/119 257/1/118
f 258/1/119 259/1/120 260/1/121
f 261/1/122 260/1/121 259/1/120
f 260/1/121 261/1/122 262/1/123
f 263/1/124 262/1/123 261/1/122
f 262/1/123 263/1/124 264/1/125
f 265/1/126 264/1/125 263/1/124
f 264/1/125 265/1/126 266/1/127
f 267/1/128 266/1/127 265/1/126
f 266/1/127 267/1/128 268/1/129
f 269/1/130 268/1/129 267/1/128
f 269/1/130 270/1/131 268/1/129
f 271/1/132 270/1/131 269/1/130
f 271/1/132 272/1/133 270/1/131
f 273/1/134 272/1/133 271/1/132
f 273/1/134 274/1/135 272/1/133
f 275/1/136 274/1/135 273/1/134
f 275/1/136 276/1/137 274/1/135
f 276/1/137 275/1/136 277/1/138
f 277/1/138 278/1/139 276/1/137
f 278/1/139 277/1/138 279/1/140
f 279/1/140 280/1/141 278/1/139
f 280/1/141 279/1/140 281/1/142
f 282/1/143 280/1/141 281/1/142
f 282/1/143 281/1/142 283/1/144
f 283/1/144 284/1/145 282/1/143
f 284/1/145 283/1/144 285/1/146
f 286/1/147 284/1/145 285/1/146
f 287/1/148 288/1/149 289/1/150
f 288/1/149 287/1/148 290/1/151
f 289/1/150 291/1/152 287/1/148
f 291/1/152 289/1/150 292/1/153
f 292/1/153 293/1/154 291/1/152
f 293/1/154 292/1/153 294/1/155
f 294/1/155 295/1/156 293/1/154
f 295/1/156 294/1/155 296/1/157
f 296/1/157 297/1/158 295/1/156
f 297/1/158 296/1/157 298/1/159
f 298/1/159 299/1/160 297/1/158
f 299/1/160 298/1/159 300/1/161
f 300/1/161 301/1/162 299/1/160
f 301/1/162 300/1/161 302/1/163
f 302/1/163 303/1/164 301/1/162
f 303/1/164 302/1/163 304/1/165
f 304/1/165 305/1/166 303/1/164
f 305/1/166 304/1/165 306/1/167
f 306/1/167 307/1/168 305/1/166
f 307/1/168 306/1/167 308/1/169
f 308/1/169 309/1/170 307/1/168
f 309/1/170 308/1/169 310/1/171
f 310/1/171 311/1/172 309/1/170
f 311/1/172 310/1/171 312/1/173
f 312/1/173 313/1/174 311/1/172
f 313/1/174 312/1/173 314/1/175
f 314/1/175 315/1/176 313/1/174
f 315/1/176 314/1/175 316/1/177
f 316/1/177 317/1/178 315/1/176
f 317/1/178 316/1/177 318/1/179
f 318/1/179 319/1/180 317/1/178
f 319/1/180 318/1/179 320/1/181
f 321/1/182 319/1/180 320/1/181
f 319/1/180 321/1/182 322/1/182
f 323/1/183 324/1/184 325/1/185
f 323/1/183 325/1/185 326/1/186
f 327/1/187 323/1/183 326/1/186
f 328/1/187 323/1/183 327/1/187
f 323/1/183 328/1/187 329/1/188
f 329/1/188 328/1/187 330/1/189
f 331/1/190 323/1/183 329/1/188
f 323/1/183 331/1/190 332/1/191
f 333/1/192 334/1/193 335/1/194
f 336/1/195 333/1/192 335/1/194
f 334/1/193 333/1/192 337/1/196
f 338/1/197 339/1/198 336/1/195
f 339/1/198 333/1/192 336/1/195
f 339/1/198 338/1/197 340/1/199
f 333/1/192 341/1/200 337/1/196
f 342/1/201 339/1/198 340/1/199
f 339/1/198 342/1/201 343/1/202
f 343/1/202 333/1/192 339/1/198
f 344/1/203 343/1/202 342/1/201
f 333/1/192 345/1/204 341/1/200
f 333/1/192 343/1/202 345/1/204
f 346/1/205 341/1/200 345/1/204
f 345/1/204 347/1/206 346/1/205
f 343/1/202 347/1/206 345/1/204
f 348/1/207 346/1/205 347/1/206
f 343/1/202 344/1/203 349/1/208
f 347/1/206 343/1/202 349/1/208
f 350/1/209 349/1/208 344/1/203
f 347/1/206 351/1/210 348/1/207
f 349/1/208 351/1/210 347/1/206
f 349/1/208 350/1/209 352/1/211
f 349/1/208 352/1/211 351/1/210
f 353/1/212 352/1/211 350/1/209
f 351/1/210 354/1/213 348/1/207
f 352/1/211 353/1/212 355/1/214
f 355/1/214 351/1/210 352/1/211
f 353/1/212 356/1/215 355/1/214
f 351/1/210 355/1/214 357/1/216
f 354/1/213 351/1/210 357/1/216
f 356/1/215 357/1/216 355/1/214
f 357/1/216 358/1/217 354/1/213
f 357/1/216 356/1/215 358/1/217
f 354/1/213 358/1/217 359/1/218
f 356/1/215 353/1/212 360/1/219
f 361/1/220 359/1/218 358/1/217
f 356/1/215 361/1/220 358/1/217
f 359/1/218 361/1/220 362/1/221
f 360/1/219 363/1/222 356/1/215
f 356/1/215 363/1/222 361/1/220
f 360/1/219 364/1/223 363/1/222
f 365/1/224 362/1/221 361/1/220
f 363/1/222 365/1/224 361/1/220
f 362/1/221 365/1/224 366/1/225
f 364/1/223 367/1/226 363/1/222
f 363/1/222 367/1/226 365/1/224
f 364/1/223 368/1/227 367/1/226
f 369/1/228 366/1/225 365/1/224
f 367/1/226 369/1/228 365/1/224
f 366/1/225 369/1/228 370/1/229
f 371/1/230 367/1/226 368/1/227
f 367/1/226 371/1/230 369/1/228
f 368/1/227 372/1/231 371/1/230
f 373/1/232 370/1/229 369/1/228
f 371/1/230 373/1/232 369/1/228
f 370/1/229 373/1/232 374/1/233
f 375/1/234 371/1/230 372/1/231
f 371/1/230 375/1/234 373/1/232
f 372/1/231 376/1/235 375/1/234
f 377/1/236 374/1/233 373/1/232
f 378/1/237 375/1/234 376/1/235
f 373/1/232 379/1/238 377/1/236
f 380/1/239 373/1/232 375/1/234
f 373/1/232 380/1/239 379/1/238
f 375/1/234 378/1/237 380/1/239
f 381/1/240 377/1/236 379/1/238
f 380/1/239 381/1/240 379/1/238
f 382/1/241 383/1/242 384/1/243
f 385/1/244 382/1/241 384/1/243
f 383/1/242 382/1/241 386/1/245
f 382/1/241 385/1/244 387/1/246
f 388/1/247 384/1/243 383/1/242
f 388/1/247 385/1/244 384/1/243
f 389/1/248 383/1/242 386/1/245
f 386/1/245 390/1/249 389/1/248
f 391/1/250 388/1/247 383/1/242
f 392/1/251 387/1/246 385/1/244
f 387/1/246 392/1/251 393/1/252
f 394/1/253 393/1/252 392/1/251
f 388/1/247 391/1/250 395/1/254
f 394/1/253 392/1/251 396/1/255
f 397/1/256 385/1/244 388/1/247
f 395/1/254 397/1/256 388/1/247
f 395/1/254 391/1/250 398/1/257
f 395/1/254 399/1/258 397/1/256
f 400/1/259 398/1/257 391/1/250
f 400/1/259 391/1/250 383/1/242
f 398/1/257 400/1/259 401/1/260
f 400/1/259 383/1/242 389/1/248
f 399/1/258 402/1/261 397/1/256
f 402/1/261 385/1/244 397/1/256
f 385/1/244 402/1/261 392/1/251
f 402/1/261 399/1/258 403/1/262
f 402/1/261 396/1/255 392/1/251
f 404/1/263 402/1/261 403/1/262
f 396/1/255 405/1/264 394/1/253
f 402/1/261 404/1/263 406/1/265
f 396/1/255 402/1/261 406/1/265
f 407/1/266 406/1/265 404/1/263
f 396/1/255 408/1/267 405/1/264
f 406/1/265 408/1/267 396/1/255
f 406/1/265 407/1/266 409/1/268
f 408/1/267 406/1/265 409/1/268
f 407/1/266 410/1/269 409/1/268
f 411/1/270 405/1/264 408/1/267
f 409/1/268 411/1/270 408/1/267
f 410/1/269 411/1/270 409/1/268
f 405/1/264 411/1/270 412/1/271
f 407/1/266 413/1/272 410/1/269
f 414/1/273 412/1/271 411/1/270
f 410/1/269 414/1/273 411/1/270
f 412/1/271 414/1/273 415/1/274
f 413/1/272 416/1/275 410/1/269
f 416/1/275 414/1/273 410/1/269
f 413/1/272 417/1/276 416/1/275
f 414/1/273 418/1/277 415/1/274
f 419/1/278 416/1/275 417/1/276
f 416/1/275 419/1/278 420/1/279
f 420/1/279 414/1/273 416/1/275
f 421/1/280 420/1/279 419/1/278
f 414/1/273 422/1/281 418/1/277
f 414/1/273 420/1/279 422/1/281
f 422/1/281 423/1/282 418/1/277
f 420/1/279 424/1/283 422/1/281
f 424/1/283 423/1/282 422/1/281
f 420/1/279 421/1/280 425/1/284
f 425/1/284 424/1/283 420/1/279
f 426/1/285 423/1/282 424/1/283
f 425/1/284 426/1/285 424/1/283
f 423/1/282 426/1/285 427/1/286
f 426/1/285 428/1/287 427/1/286
f 421/1/280 429/1/288 425/1/284
f 426/1/285 425/1/284 429/1/288
f 421/1/280 430/1/289 429/1/288
f 431/1/290 429/1/288 430/1/289
f 426/1/285 432/1/291 428/1/287
f 429/1/288 432/1/291 426/1/285
f 432/1/291 433/1/292 428/1/287
f 429/1/288 431/1/290 434/1/293
f 434/1/293 432/1/291 429/1/288
f 435/1/294 434/1/293 431/1/290
f 434/1/293 435/1/294 436/1/295
f 436/1/295 432/1/291 434/1/293
f 437/1/296 436/1/295 435/1/294
f 432/1/291 438/1/297 433/1/292
f 432/1/291 436/1/295 438/1/297
f 438/1/297 439/1/298 433/1/292
f 436/1/295 440/1/299 438/1/297
f 438/1/297 440/1/299 439/1/298
f 436/1/295 437/1/296 441/1/300
f 441/1/300 440/1/299 436/1/295
f 442/1/301 439/1/298 440/1/299
f 441/1/300 442/1/301 440/1/299
f 439/1/298 442/1/301 443/1/302
f 437/1/296 444/1/303 441/1/300
f 442/1/301 441/1/300 444/1/303
f 437/1/296 445/1/304 444/1/303
f 442/1/301 446/1/305 443/1/302
f 447/1/306 444/1/303 445/1/304
f 446/1/305 442/1/301 448/1/307
f 444/1/303 448/1/307 442/1/301
f 449/1/308 446/1/305 448/1/307
f 446/1/305 449/1/308 450/1/309
f 448/1/307 444/1/303 451/1/310
f 444/1/303 447/1/306 451/1/310
f 451/1/310 449/1/308 448/1/307
f 449/1/308 452/1/311 450/1/309
f 447/1/306 453/1/312 451/1/310
f 453/1/312 449/1/308 451/1/310
f 447/1/306 454/1/313 453/1/312
f 455/1/314 453/1/312 454/1/313
f 449/1/308 456/1/315 452/1/311
f 453/1/312 456/1/315 449/1/308
f 453/1/312 455/1/314 457/1/316
f 457/1/316 456/1/315 453/1/312
f 338/1/197 457/1/316 455/1/314
f 456/1/315 334/1/193 452/1/311
f 457/1/316 338/1/197 336/1/195
f 336/1/195 456/1/315 457/1/316
f 456/1/315 335/1/194 334/1/193
f 456/1/315 336/1/195 335/1/194
f 377/1/236 381/1/240 458/1/317
f 459/1/318 380/1/239 378/1/237
f 380/1/239 459/1/318 381/1/240
f 459/1/318 378/1/237 460/1/319
f 461/1/320 458/1/317 381/1/240
f 459/1/318 461/1/320 381/1/240
f 458/1/317 461/1/320 462/1/321
f 460/1/319 463/1/322 459/1/318
f 463/1/322 461/1/320 459/1/318
f 463/1/322 460/1/319 464/1/323
f 465/1/324 462/1/321 461/1/320
f 466/1/325 463/1/322 464/1/323
f 461/1/320 467/1/326 465/1/324
f 463/1/322 467/1/326 461/1/320
f 463/1/322 466/1/325 468/1/327
f 468/1/327 467/1/326 463/1/322
f 469/1/328 465/1/324 467/1/326
f 468/1/327 469/1/328 467/1/326
f 465/1/324 469/1/328 470/1/329
f 466/1/325 471/1/330 468/1/327
f 468/1/327 471/1/330 469/1/328
f 466/1/325 472/1/331 471/1/330
f 473/1/332 470/1/329 469/1/328
f 471/1/330 473/1/332 469/1/328
f 470/1/329 473/1/332 474/1/333
f 472/1/331 475/1/334 471/1/330
f 471/1/330 475/1/334 473/1/332
f 472/1/331 476/1/335 475/1/334
f 473/1/332 477/1/336 474/1/333
f 478/1/337 475/1/334 476/1/335
f 473/1/332 479/1/338 477/1/336
f 480/1/339 473/1/332 475/1/334
f 473/1/332 480/1/339 479/1/338
f 475/1/334 478/1/337 480/1/339
f 481/1/340 477/1/336 479/1/338
f 480/1/339 481/1/340 479/1/338
f 477/1/336 481/1/340 482/1/341
f 478/1/337 483/1/342 480/1/339
f 480/1/339 483/1/342 481/1/340
f 483/1/342 478/1/337 484/1/343
f 484/1/343 485/1/344 483/1/342
f 485/1/344 481/1/340 483/1/342
f 485/1/344 484/1/343 486/1/345
f 487/1/346 482/1/341 481/1/340
f 481/1/340 485/1/344 487/1/346
f 482/1/341 487/1/346 488/1/347
f 489/1/348 485/1/344 486/1/345
f 490/1/349 488/1/347 487/1/346
f 485/1/344 491/1/350 487/1/346
f 487/1/346 491/1/350 490/1/349
f 492/1/351 491/1/350 485/1/344
f 485/1/344 489/1/348 492/1/351
f 493/1/352 490/1/349 491/1/350
f 492/1/351 493/1/352 491/1/350
f 490/1/349 493/1/352 494/1/353
f 489/1/348 495/1/354 492/1/351
f 492/1/351 495/1/354 493/1/352
f 489/1/348 496/1/355 495/1/354
f 497/1/356 494/1/353 493/1/352
f 495/1/354 497/1/356 493/1/352
f 494/1/353 497/1/356 498/1/357
f 499/1/358 495/1/354 496/1/355
f 495/1/354 499/1/358 497/1/356
f 496/1/355 500/1/359 499/1/358
f 501/1/360 498/1/357 497/1/356
f 499/1/358 501/1/360 497/1/356
f 498/1/357 501/1/360 502/1/361
f 500/1/359 503/1/362 499/1/358
f 503/1/362 501/1/360 499/1/358
f 503/1/362 500/1/359 504/1/363
f 505/1/364 502/1/361 501/1/360
f 503/1/362 505/1/364 501/1/360
f 502/1/361 505/1/364 506/1/365
f 504/1/363 507/1/366 503/1/362
f 507/1/366 505/1/364 503/1/362
f 507/1/366 504/1/363 508/1/367
f 509/1/368 506/1/365 505/1/364
f 510/1/369 507/1/366 508/1/367
f 507/1/366 510/1/369 511/1/370
f 507/1/366 512/1/371 505/1/364
f 509/1/368 505/1/364 512/1/371
f 511/1/370 512/1/371 507/1/366
f 510/1/369 513/1/372 511/1/370
f 513/1/372 512/1/371 511/1/370
f 513/1/372 510/1/369 514/1/373
f 515/1/374 509/1/368 512/1/371
f 512/1/371 513/1/372 515/1/374
f 509/1/368 515/1/374 516/1/375
f 517/1/376 513/1/372 514/1/373
f 518/1/377 516/1/375 515/1/374
f 513/1/372 519/1/378 515/1/374
f 515/1/374 519/1/378 518/1/377
f 520/1/379 519/1/378 513/1/372
f 513/1/372 517/1/376 520/1/379
f 521/1/380 518/1/377 519/1/378
f 520/1/379 521/1/380 519/1/378
f 518/1/377 521/1/380 522/1/381
f 517/1/376 523/1/382 520/1/379
f 520/1/379 523/1/382 521/1/380
f 517/1/376 524/1/383 523/1/382
f 525/1/384 523/1/382 524/1/383
f 525/1/384 521/1/380 523/1/382
f 524/1/383 526/1/385 525/1/384
f 401/1/260 525/1/384 526/1/385
f 525/1/384 401/1/260 400/1/259
f 525/1/384 400/1/259 389/1/248
f 521/1/380 525/1/384 527/1/386
f 525/1/384 389/1/248 527/1/386
f 527/1/386 522/1/381 521/1/380
f 390/1/249 527/1/386 389/1/248
f 522/1/381 527/1/386 528/1/387
f 527/1/386 390/1/249 528/1/387
f 529/1/388 530/1/388 531/1/388
f 530/1/388 529/1/388 532/1/388
f 533/1/388 531/1/388 530/1/388
f 531/1/388 533/1/388 534/1/388
f 533/1/388 535/1/388 534/1/388
f 535/1/388 533/1/388 536/1/388
f 532/1/388 529/1/388 537/1/388
f 535/1/388 536/1/388 538/1/388
f 537/1/388 529/1/388 539/1/388
f 540/1/388 538/1/388 536/1/388
f 538/1/388 540/1/388 541/1/388
f 542/1/388 541/1/388 540/1/388
f 541/1/388 542/1/388 543/1/388
f 538/1/388 541/1/388 544/1/388
f 538/1/388 544/1/388 545/1/388
f 546/1/388 545/1/388 544/1/388
f 547/1/388 545/1/388 546/1/388
f 548/1/388 545/1/388 547/1/388
f 548/1/388 547/1/388 549/1/388
f 549/1/388 547/1/388 550/1/388
f 545/1/388 548/1/388 551/1/388
f 552/1/388 551/1/388 548/1/388
f 553/1/388 551/1/388 552/1/388
f 551/1/388 553/1/388 554/1/388
f 553/1/388 555/1/388 554/1/388
f 555/1/388 553/1/388 556/1/388
f 556/1/388 557/1/388 555/1/388
f 554/1/388 555/1/388 558/1/388
f 558/1/388 559/1/388 554/1/388
f 559/1/388 558/1/388 560/1/388
f 559/1/388 560/1/388 561/1/388
f 562/1/388 559/1/388 561/1/388
f 559/1/388 562/1/388 563/1/388
f 563/1/388 562/1/388 564/1/388
f 539/1/388 565/1/388 537/1/388
f 566/1/388 565/1/388 539/1/388
f 567/1/388 537/1/388 565/1/388
f 537/1/388 567/1/388 568/1/388
f 569/1/388 568/1/388 567/1/388
f 569/1/388 570/1/388 568/1/388
f 571/1/388 565/1/388 566/1/388
f 565/1/388 571/1/388 572/1/388
f 571/1/388 573/1/388 572/1/388
f 571/1/388 574/1/388 573/1/388
f 566/1/388 575/1/388 571/1/388
f 575/1/388 566/1/388 576/1/388
f 576/1/388 577/1/388 575/1/388
f 578/1/389 579/1/389 580/1/389
f 581/1/389 579/1/389 578/1/389
f 582/1/389 580/1/389 579/1/389
f 579/1/389 581/1/389 583/1/389
f 580/1/389 582/1/389 584/1/389
f 580/1/389 584/1/389 585/1/389
f 584/1/389 586/1/389 585/1/389
f 584/1/389 582/1/389 587/1/389
f 588/1/389 587/1/389 582/1/389
f 587/1/389 588/1/389 589/1/389
f 589/1/389 588/1/389 590/1/389
f 588/1/389 591/1/389 590/1/389
f 591/1/389 588/1/389 592/1/389
f 592/1/389 593/1/389 591/1/389
f 581/1/389 594/1/389 583/1/389
f 595/1/389 594/1/389 581/1/389
f 594/1/389 595/1/389 596/1/389
f 597/1/389 583/1/389 594/1/389
f 598/1/389 583/1/389 597/1/389
f 583/1/389 598/1/389 599/1/389
f 600/1/389 599/1/389 598/1/389
f 600/1/389 601/1/389 602/1/389
f 600/1/389 602/1/389 603/1/389
f 603/1/389 599/1/389 600/1/389
f 604/1/389 599/1/389 603/1/389
f 599/1/389 604/1/389 605/1/389
f 606/1/389 605/1/389 604/1/389
f 605/1/389 606/1/389 607/1/389
f 606/1/389 608/1/389 607/1/389
f 608/1/389 606/1/389 609/1/389
f 609/1/389 610/1/389 608/1/389
f 611/1/389 610/1/389 609/1/389
f 612/1/389 610/1/389 611/1/389
f 610/1/389 612/1/389 613/1/389
f 613/1/389 612/1/389 614/1/389
f 613/1/389 614/1/389 615/1/389
f 614/1/389 612/1/389 616/1/389
f 616/1/389 612/1/389 617/1/389
f 617/1/389 618/1/389 616/1/389
f 618/1/389 617/1/389 619/1/389
f 620/1/389 615/1/389 614/1/389
f 620/1/389 614/1/389 621/1/389
f 622/1/389 620/1/389 621/1/389
f 620/1/389 622/1/389 623/1/389
f 624/1/389 615/1/389 620/1/389
f 615/1/389 624/1/389 625/1/389
f 625/1/389 624/1/389 626/1/389
